<?xml version="1.0" standalone="no"?>
<!DOCTYPE svg PUBLIC "-//W3C//DTD SVG 1.1//EN" "http://www.w3.org/Graphics/SVG/1.1/DTD/svg11.dtd" >
<svg xmlns="http://www.w3.org/2000/svg" xmlns:xlink="http://www.w3.org/1999/xlink" version="1.1">
<metadata>
Created by FontForge 20161013 at Fri Dec  4 14:55:42 2009
 By ,,,
Copyright (c) 2009 Linotype Corp., www.linotype.com. All rights reserved. This font software may not be reproduced, modified, disclosed or transferred without the express written approval of Linotype Corp. Univers is a trademark of Linotype Corp. registered in the U.S. Patent and Trademark Office and may be registered in certain other jurisdictions in the name of Linotype Corp. or its licensee Linotype GmbH. This typeface is original artwork of Adrian Frutiger. The design may be protected in certain jurisdictions. 
</metadata>
<defs>
<font id="UniversLTCYR-49LightUltCond" horiz-adv-x="278" >
  <font-face 
    font-family="Univers LT CYR 49 Light UltraCn"
    font-weight="300"
    font-stretch="ultra-condensed"
    units-per-em="1000"
    panose-1="2 11 3 8 2 2 2 6 2 4"
    ascent="750"
    descent="-250"
    x-height="545"
    cap-height="722"
    bbox="-57 -214 1000 941"
    underline-thickness="50"
    underline-position="-200"
    unicode-range="U+000D-FB04"
  />
<missing-glyph horiz-adv-x="485" 
d="M263 111h-53v63h53v-63zM257 222h-46v16q0 50 11 75.5t46 55.5q28 27 37 44t9 36q0 33 -21 56.5t-51 23.5q-67 0 -77 -90q-8 2 -24 4.5t-24 3.5q7 66 41 98t87 32q52 0 85 -34t33 -90q0 -32 -12.5 -56.5t-47.5 -56.5t-40.5 -47.5t-5.5 -70.5zM47 47h391v585h-391v-585z
M0 680h485v-680h-485v680z" />
    <glyph glyph-name="IJ" unicode="IJ" horiz-adv-x="446" 
d="M117 0h-66v722h66v-722zM395 94q0 -42 -25 -71t-78 -29q-103 0 -103 102v102h66v-105q0 -46 35 -46q39 0 39 50v625h66v-628z" />
    <glyph glyph-name="ij" unicode="ij" horiz-adv-x="296" 
d="M108 648h-68v74h68v-74zM105 0h-62v545h62v-545zM256 648h-68v74h68v-74zM253 -37q0 -35 -21.5 -53t-58.5 -18q-16 0 -20 2v50q1 0 3.5 -0.5t4.5 -0.5q30 0 30 46v556h62v-582z" />
    <glyph glyph-name="napostrophe" unicode="&#x22;n" 
d="M242 0h-63v433q0 35 -8.5 50t-28.5 15q-42 0 -42 -65v-433h-63v545h59v-37q24 45 72 45q74 0 74 -89v-464zM-7 614l24 108h62l-39 -108h-47z" />
    <glyph glyph-name="f_f" unicode="ff" horiz-adv-x="325" 
d="M45 0v492h-30v53h30v86q0 52 16 73.5t66 21.5q16 0 25 -1v-53l-8 2q-19 0 -27 -10.5t-8 -35.5v-83h41v-53h-41v-492h-64zM203 0v492h-64v53h64v86q0 52 16 73.5t66 21.5q16 0 25 -1v-53l-8 2q-19 0 -27 -10.5t-8 -35.5v-83h41v-53h-41v-492h-64z" />
    <glyph glyph-name="fi" unicode="fi" horiz-adv-x="308" 
d="M45 0v492h-30v53h30v86q0 47 15.5 71t67.5 24q4 0 12 -0.5t12 -0.5v-53q-6 2 -8 2q-35 0 -35 -46v-83h41v-53h-41v-492h-64zM200 648v74h67v-74h-67zM203 0v545h62v-545h-62z" />
    <glyph glyph-name="fl" unicode="fl" horiz-adv-x="308" 
d="M45 0v492h-30v53h30v86q0 47 15.5 71t67.5 24q4 0 12 -0.5t12 -0.5v-53q-6 2 -8 2q-35 0 -35 -46v-83h41v-53h-41v-492h-64zM203 0v722h62v-722h-62z" />
    <glyph glyph-name="f_f_i" unicode="ffi" horiz-adv-x="466" 
d="M45 0v492h-30v53h30v86q0 52 16 73.5t66 21.5q16 0 25 -1v-53l-8 2q-19 0 -27 -10.5t-8 -35.5v-83h94v86q0 52 16 73.5t66 21.5q16 0 25 -1v-53l-8 2q-19 0 -27 -10.5t-8 -35.5v-83h41v-53h-41v-492h-64v492h-94v-492h-64zM361 0v545h62v-545h-62zM358 648v74h67v-74h-67
z" />
    <glyph glyph-name="f_f_l" unicode="ffl" horiz-adv-x="466" 
d="M45 0v492h-30v53h30v86q0 52 16 73.5t66 21.5q16 0 25 -1v-53l-8 2q-19 0 -27 -10.5t-8 -35.5v-83h94v86q0 52 16 73.5t66 21.5q16 0 25 -1v-53l-8 2q-19 0 -27 -10.5t-8 -35.5v-83h41v-53h-41v-492h-64v492h-94v-492h-64zM361 0v722h62v-722h-62z" />
    <glyph glyph-name=".notdef" horiz-adv-x="485" 
d="M263 111h-53v63h53v-63zM257 222h-46v16q0 50 11 75.5t46 55.5q28 27 37 44t9 36q0 33 -21 56.5t-51 23.5q-67 0 -77 -90q-8 2 -24 4.5t-24 3.5q7 66 41 98t87 32q52 0 85 -34t33 -90q0 -32 -12.5 -56.5t-47.5 -56.5t-40.5 -47.5t-5.5 -70.5zM47 47h391v585h-391v-585z
M0 680h485v-680h-485v680z" />
    <glyph glyph-name=".null" horiz-adv-x="500" 
 />
    <glyph glyph-name="nonmarkingreturn" horiz-adv-x="333" 
 />
    <glyph glyph-name="CR" unicode="&#xd;" horiz-adv-x="0" 
 />
    <glyph glyph-name="space" unicode=" " horiz-adv-x="138" 
 />
    <glyph glyph-name="exclam" unicode="!" horiz-adv-x="258" 
d="M166 722l-10 -547h-55l-9 547h74zM163 0h-69v76h69v-76z" />
    <glyph glyph-name="quotedbl" unicode="&#x22;" 
d="M226 722l-6 -177h-36l-6 177h48zM101 722l-7 -177h-36l-6 177h49z" />
    <glyph glyph-name="numbersign" unicode="#" horiz-adv-x="276" 
d="M283 450h-55l-32 -178h45v-43h-54l-42 -229h-48l42 229h-53l-42 -229h-48l43 229h-47v43h54l34 178h-47v43h54l43 229h48l-43 -229h54l42 229h48l-42 -229h46v-43zM181 450h-54l-33 -178h54z" />
    <glyph glyph-name="dollar" unicode="$" horiz-adv-x="276" 
d="M245 134q0 -101 -82 -115v-77h-55v77q-78 13 -78 104v77h66v-72q0 -56 41 -56q42 0 42 58v68q0 43 -19 77l-97 169q-28 48 -28 102v54q0 88 73 103v75h55v-73q80 -10 80 -102v-67h-66v68q0 49 -36 49q-40 0 -40 -51v-44q0 -32 3.5 -47t18.5 -40l98 -168q24 -41 24 -97
v-72z" />
    <glyph glyph-name="percent" unicode="%" horiz-adv-x="480" 
d="M193 450q0 -73 -82 -73q-79 0 -79 77v187q0 43 18 64t62 21q45 0 63 -20t18 -65v-191zM390 729l-249 -735h-51l249 735h51zM447 69q0 -73 -82 -73q-79 0 -79 77v187q0 43 18 64t62 21q45 0 63 -20t18 -65v-191zM139 450v200q0 20 -6 28t-20 8q-27 0 -27 -39v-200
q0 -13 8 -21.5t19 -8.5t18.5 9.5t7.5 23.5zM393 69v200q0 20 -6 28t-20 8q-27 0 -27 -39v-200q0 -13 8 -21.5t19 -8.5t18.5 9.5t7.5 23.5z" />
    <glyph glyph-name="ampersand" unicode="&#x26;" horiz-adv-x="370" 
d="M351 0h-66l-14 36q-25 -23 -45.5 -32.5t-51.5 -9.5q-131 0 -131 129v115q0 100 60 150q-46 77 -46 155v70q0 60 26.5 88t83.5 28q55 0 79.5 -25t24.5 -81v-72q0 -60 -16 -87t-70 -75l-10 -9l95 -220q4 9 4 28v170h55v-130q0 -73 -20 -133zM213 545v71q0 62 -46 62
q-49 0 -49 -65v-66q0 -69 28 -122q22 19 42 43q25 29 25 77zM245 75l-117 261q-23 -35 -23 -113v-82q0 -97 74 -97q34 0 66 31z" />
    <glyph glyph-name="quotesingle" unicode="'" horiz-adv-x="168" 
d="M109 722l-7 -177h-36l-6 177h49z" />
    <glyph glyph-name="parenleft" unicode="(" horiz-adv-x="167" 
d="M148 734q-54 -194 -54 -427q0 -236 52 -415h-50q-66 182 -66 422q0 243 67 420h51z" />
    <glyph glyph-name="parenright" unicode=")" horiz-adv-x="167" 
d="M137 314q0 -240 -66 -422h-50q52 179 52 415q0 233 -54 427h51q67 -177 67 -420z" />
    <glyph glyph-name="asterisk" unicode="*" 
d="M259 575l-94 13l60 -74l-51 -30l-35 91l-35 -91l-52 31l61 73l-94 -15v60l93 -15l-61 75l53 32l36 -90l31 90l56 -32l-59 -73l91 14v-59z" />
    <glyph glyph-name="plus" unicode="+" horiz-adv-x="600" 
d="M547 219h-222v-219h-49v219h-223v45h223v218h49v-218h222v-45z" />
    <glyph glyph-name="comma" unicode="," horiz-adv-x="138" 
d="M108 76l-52 -166h-56l34 166h74z" />
    <glyph glyph-name="hyphen" unicode="-" horiz-adv-x="166" 
d="M142 272h-119v56h119v-56z" />
    <glyph glyph-name="period" unicode="." horiz-adv-x="138" 
d="M103 0h-69v76h69v-76z" />
    <glyph glyph-name="slash" unicode="/" 
d="M265 722l-194 -722h-58l194 722h58z" />
    <glyph glyph-name="zero" unicode="0" horiz-adv-x="276" 
d="M241 100q0 -51 -27.5 -78.5t-78.5 -27.5q-100 0 -100 100v532q0 48 27.5 75.5t76.5 27.5q102 0 102 -110v-519zM177 94v533q0 50 -39 50t-39 -47v-539q0 -45 37 -45q41 0 41 48z" />
    <glyph glyph-name="one" unicode="1" horiz-adv-x="276" 
d="M181 0h-64v647q-30 -26 -67 -45v67q45 23 75 53h56v-722z" />
    <glyph glyph-name="two" unicode="2" horiz-adv-x="276" 
d="M246 0h-215v67l124 365q26 75 26 160q0 48 -8.5 66.5t-30.5 18.5t-31 -13t-9 -45v-83h-63v84q0 109 102 109q64 0 84 -34.5t20 -103.5q0 -87 -30 -173l-126 -361h157v-57z" />
    <glyph glyph-name="three" unicode="3" horiz-adv-x="276" 
d="M242 107q0 -113 -103 -113q-50 0 -77 25.5t-27 68.5v113h63v-99q0 -57 40 -57q24 0 32 15t8 42v190q0 33 -11 45.5t-41 12.5h-24v54h22q32 0 43 10.5t11 40.5v169q0 53 -39 53q-21 0 -30 -12.5t-9 -41.5v-89h-64v83q0 112 104 112q102 0 102 -109v-160q0 -47 -9 -63
t-39 -22q29 -4 38.5 -18.5t9.5 -46.5v-203z" />
    <glyph glyph-name="four" unicode="4" horiz-adv-x="276" 
d="M264 190h-53v-190h-65v190h-127v73l99 459h93v-482h53v-50zM146 240v404l-73 -404h73z" />
    <glyph glyph-name="five" unicode="5" horiz-adv-x="276" 
d="M248 122q0 -128 -103 -128q-51 0 -78.5 27.5t-27.5 78.5v101h64v-101q0 -56 40 -56q41 0 41 59v248q0 53 -39 53q-42 0 -42 -50v-37h-61v405h201v-57h-140v-243q25 33 65 33q38 0 59 -24t21 -69v-240z" />
    <glyph glyph-name="six" unicode="6" horiz-adv-x="276" 
d="M241 97q0 -48 -27.5 -75.5t-76.5 -27.5q-102 0 -102 110v520q0 51 27.5 78t78.5 27q100 0 100 -99v-110h-63v110q0 47 -40 47q-39 0 -39 -49v-208q28 26 61 26q39 0 60 -24t21 -68v-257zM178 94v257q0 45 -38 45q-41 0 -41 -48v-252q0 -50 39 -50q40 0 40 48z" />
    <glyph glyph-name="seven" unicode="7" horiz-adv-x="276" 
d="M248 652l-107 -652h-67l117 665h-161v57h218v-70z" />
    <glyph glyph-name="eight" unicode="8" horiz-adv-x="276" 
d="M243 97q0 -50 -27 -76.5t-77 -26.5q-106 0 -106 109v189q0 43 13 62t44 21q-56 14 -56 82v153q0 119 106 119q103 0 103 -123v-145q0 -74 -54 -86q32 -5 43 -19t11 -48v-211zM180 455v178q0 45 -40 45q-42 0 -42 -50v-175q0 -24 11.5 -38.5t29.5 -14.5q41 0 41 55z
M180 101v201q0 52 -40 52q-43 0 -43 -53v-204q0 -52 40 -52q43 0 43 56z" />
    <glyph glyph-name="nine" unicode="9" horiz-adv-x="276" 
d="M241 100q0 -51 -27.5 -78.5t-78.5 -27.5q-100 0 -100 100v110h64v-110q0 -48 39 -48t39 49v208q-25 -25 -61 -25q-39 0 -60 23.5t-21 67.5v257q0 48 27.5 75.5t76.5 27.5q102 0 102 -110v-519zM177 375v252q0 50 -39 50t-39 -47v-257q0 -45 37 -45q41 0 41 47z" />
    <glyph glyph-name="colon" unicode=":" horiz-adv-x="138" 
d="M104 469h-69v76h69v-76zM104 0h-69v76h69v-76z" />
    <glyph glyph-name="semicolon" unicode=";" horiz-adv-x="138" 
d="M103 469h-69v76h69v-76zM109 76l-52 -166h-55l33 166h74z" />
    <glyph glyph-name="less" unicode="&#x3c;" horiz-adv-x="600" 
d="M547 16l-494 200v49l494 201v-50l-435 -176l435 -174v-50z" />
    <glyph glyph-name="equal" unicode="=" horiz-adv-x="600" 
d="M547 309h-494v45h494v-45zM547 128h-494v45h494v-45z" />
    <glyph glyph-name="greater" unicode="&#x3e;" horiz-adv-x="600" 
d="M547 216l-494 -200v50l436 174l-436 176v50l494 -201v-49z" />
    <glyph glyph-name="question" unicode="?" 
d="M235 542q0 -47 -15 -87l-34 -93q-12 -33 -12 -82v-104h-57v106q0 69 16 110l26 69q11 31 11 64v105q0 44 -31 44q-35 0 -35 -48v-90h-61v79q0 55 22.5 84.5t78.5 29.5q91 0 91 -89v-98zM179 0h-69v76h69v-76z" />
    <glyph glyph-name="at" unicode="@" horiz-adv-x="800" 
d="M488 410q0 74 -65 74q-12 0 -23 -3t-19 -7t-16 -13t-13 -14.5t-10.5 -19t-8 -19t-6.5 -21.5t-5.5 -20.5t-5 -21t-3.5 -18.5q-13 -67 -13 -90q0 -69 55 -69q25 0 45 11.5t32 26t22 42t14.5 45t10.5 48.5q9 58 9 69zM475 208q-23 -39 -59.5 -60t-69.5 -21q-53 0 -79 30.5
t-26 81.5q0 46 11 95q20 92 58 143t113 51q26 0 49.5 -14.5t36.5 -37.5l10 47h58l-59 -270q-18 -81 50 -81q70 0 116.5 76.5t46.5 162.5q0 127 -88.5 198t-221.5 71q-164 0 -258 -101t-94 -264q0 -159 89.5 -249t244.5 -90q86 0 156.5 25t148.5 77l25 -37
q-157 -113 -332 -113q-173 0 -279 103.5t-106 283.5q0 184 112.5 299t293.5 115q97 0 178 -36.5t132.5 -110.5t51.5 -172q0 -85 -40.5 -160.5t-113.5 -107.5q-35 -15 -73 -15q-35 0 -60 22.5t-22 58.5z" />
    <glyph glyph-name="A" unicode="A" horiz-adv-x="332" 
d="M317 0h-66l-28 201h-117l-26 -201h-66l108 722h91zM216 256l-49 416l-54 -416h103z" />
    <glyph glyph-name="B" unicode="B" horiz-adv-x="333" 
d="M281 97q0 -60 -31.5 -78.5t-94.5 -18.5h-101v722h141q83 0 83 -94v-172q0 -41 -16 -59t-56 -20q47 -8 61 -22.5t14 -54.5v-203zM212 455v154q0 32 -12.5 44t-45.5 12h-35v-262h31q37 0 49.5 10.5t12.5 41.5zM215 106v193q0 19 -6 33q-9 18 -69 18h-21v-293h40q30 0 43 10
t13 39z" />
    <glyph glyph-name="C" unicode="C" 
d="M256 98q0 -47 -25.5 -75.5t-78.5 -28.5q-102 0 -102 102v538q0 40 25.5 67.5t75.5 27.5q54 0 79.5 -29.5t25.5 -76.5v-89h-66v90q0 52 -35 52q-39 0 -39 -57v-526q0 -46 34 -46q40 0 40 50v101h66v-100z" />
    <glyph glyph-name="D" unicode="D" horiz-adv-x="333" 
d="M279 112q0 -64 -32.5 -88t-89.5 -24h-103v722h112q61 0 87 -28.5t26 -88.5v-493zM213 116v492q0 33 -12 45t-46 12h-35v-608h25q40 0 54 12t14 47z" />
    <glyph glyph-name="E" unicode="E" horiz-adv-x="259" 
d="M228 0h-176v722h175v-57h-109v-262h104v-57h-104v-289h110v-57z" />
    <glyph glyph-name="F" unicode="F" horiz-adv-x="259" 
d="M221 665h-103v-262h98v-57h-98v-346h-66v722h169v-57z" />
    <glyph glyph-name="G" unicode="G" horiz-adv-x="333" 
d="M282 17q-69 -23 -104 -23q-124 0 -124 118v503q0 56 29.5 85t85.5 29q58 0 85.5 -28.5t27.5 -71.5v-95h-66v72q0 69 -46 69q-50 0 -50 -71v-484q0 -73 58 -73q17 0 38 10v242h-53v55h119v-337z" />
    <glyph glyph-name="H" unicode="H" horiz-adv-x="333" 
d="M280 0h-66v346h-96v-346h-66v722h66v-319h96v319h66v-722z" />
    <glyph glyph-name="I" unicode="I" horiz-adv-x="168" 
d="M117 0h-66v722h66v-722z" />
    <glyph glyph-name="J" unicode="J" 
d="M227 94q0 -42 -25 -71t-78 -29q-103 0 -103 102v102h66v-105q0 -46 35 -46q39 0 39 50v625h66v-628z" />
    <glyph glyph-name="K" unicode="K" 
d="M275 0h-65l-92 361v-361h-66v722h66v-310l82 310h66l-95 -330z" />
    <glyph glyph-name="L" unicode="L" horiz-adv-x="259" 
d="M228 0h-174v722h66v-665h108v-57z" />
    <glyph glyph-name="M" unicode="M" horiz-adv-x="444" 
d="M400 0h-60v669l-78 -669h-82l-75 669v-669h-60v722h103l74 -644l77 644h101v-722z" />
    <glyph glyph-name="N" unicode="N" horiz-adv-x="333" 
d="M285 0h-94l-85 641v-641h-57v722h95l83 -616v616h58v-722z" />
    <glyph glyph-name="O" unicode="O" horiz-adv-x="334" 
d="M282 99q0 -52 -32 -78.5t-83 -26.5q-55 0 -85 31t-30 87v496q0 62 27.5 91.5t87.5 29.5q115 0 115 -123v-507zM216 118v482q0 76 -48 76q-50 0 -50 -72v-492q0 -63 46 -63q52 0 52 69z" />
    <glyph glyph-name="P" unicode="P" 
d="M264 426q0 -58 -26.5 -79.5t-83.5 -21.5h-39v-325h-66v722h122q51 0 72 -25t21 -78v-193zM198 433v183q0 29 -9.5 39t-38.5 10h-35v-284h26q33 0 45 10.5t12 41.5z" />
    <glyph glyph-name="Q" unicode="Q" horiz-adv-x="334" 
d="M323 0h-112q-21 -6 -45 -6q-55 0 -85 31t-30 87v496q0 62 27.5 91.5t87.5 29.5q115 0 115 -123v-507q0 -24 -8 -45q13 3 30 3h20v-57zM215 118v482q0 76 -48 76q-50 0 -50 -72v-492q0 -63 46 -63q52 0 52 69z" />
    <glyph glyph-name="R" unicode="R" horiz-adv-x="333" 
d="M279 0h-67v307q0 40 -43 40h-50v-347h-66v722h136q85 0 85 -90v-179q0 -38 -16.5 -56.5t-52.5 -21.5q43 0 58.5 -21t15.5 -66v-288zM208 450v169q0 26 -8.5 36t-30.5 10h-50v-261h41q26 0 37 10.5t11 35.5z" />
    <glyph glyph-name="S" unicode="S" 
d="M247 101q0 -46 -27 -76.5t-82 -30.5q-52 0 -79 27t-27 69v110h66v-95q0 -56 41 -56q42 0 42 57v92q0 43 -19 77l-97 169q-28 48 -28 102v77q0 106 106 106q58 0 80 -27.5t22 -75.5v-90h-66v91q0 49 -36 49q-40 0 -40 -51v-67q0 -32 3.5 -47t18.5 -40l98 -168
q24 -41 24 -97v-105z" />
    <glyph glyph-name="T" unicode="T" horiz-adv-x="260" 
d="M237 665h-75v-665h-66v665h-74v57h215v-57z" />
    <glyph glyph-name="U" unicode="U" horiz-adv-x="334" 
d="M282 109q0 -115 -115 -115q-55 0 -85 31t-30 87v610h66v-610q0 -63 46 -63q52 0 52 69v604h66v-613z" />
    <glyph glyph-name="V" unicode="V" 
d="M271 722l-86 -722h-97l-80 722h66l65 -657l68 657h64z" />
    <glyph glyph-name="W" unicode="W" horiz-adv-x="444" 
d="M433 722l-73 -722h-87l-51 641l-50 -641h-86l-74 722h66l53 -647l51 647h83l54 -647l51 647h63z" />
    <glyph glyph-name="X" unicode="X" 
d="M270 0h-69l-62 304l-66 -304h-65l95 363l-86 359h68l59 -293l55 293h65l-85 -359z" />
    <glyph glyph-name="Y" unicode="Y" 
d="M270 722l-98 -408v-314h-66l-1 314l-96 408h70l63 -328l64 328h64z" />
    <glyph glyph-name="Z" unicode="Z" horiz-adv-x="259" 
d="M235 665l-146 -608h145v-57h-209v68l146 597h-139v57h203v-57z" />
    <glyph glyph-name="bracketleft" unicode="[" horiz-adv-x="167" 
d="M162 -108h-114v842h114v-45h-60v-751h60v-46z" />
    <glyph glyph-name="backslash" unicode="\" 
d="M265 0h-58l-194 722h58z" />
    <glyph glyph-name="bracketright" unicode="]" horiz-adv-x="167" 
d="M119 -108h-114v46h60v751h-60v45h114v-842z" />
    <glyph glyph-name="asciicircum" unicode="^" horiz-adv-x="600" 
d="M491 309h-52l-140 355l-137 -355h-53l166 413h50z" />
    <glyph glyph-name="underscore" unicode="_" horiz-adv-x="500" 
d="M500 -125h-500v50h500v-50z" />
    <glyph glyph-name="grave" unicode="`" horiz-adv-x="148" 
d="M110 614h-51l-62 108h70z" />
    <glyph glyph-name="a" unicode="a" 
d="M242 0h-59v31q-9 -15 -28.5 -24.5t-39.5 -9.5q-27 0 -44.5 9.5t-24.5 26.5t-9 31.5t-2 34.5v98q0 78 24.5 106t107.5 35l11 1v117q0 46 -35 46q-39 0 -39 -60v-43h-62v54q0 43 25.5 71.5t78.5 28.5q47 0 71.5 -27t24.5 -78v-448zM178 97v191q-47 -4 -64 -21t-17 -50v-101
v-5q0 -20 1 -31.5t9.5 -24t25.5 -12.5q20 0 32.5 15t12.5 39z" />
    <glyph glyph-name="b" unicode="b" 
d="M244 102q0 -49 -21 -76.5t-59 -27.5q-50 0 -68 38v-36h-59v722h63v-208q25 39 67 39q41 0 59 -26t18 -63v-362zM182 127v298q0 73 -38 73q-44 0 -44 -66v-316q0 -65 42 -65q40 0 40 76z" />
    <glyph glyph-name="c" unicode="c" horiz-adv-x="259" 
d="M222 88q0 -44 -24.5 -68.5t-67.5 -24.5q-44 0 -68 23t-24 64v368q0 49 25 76t71 27q40 0 64 -21.5t24 -56.5v-101h-60v82q0 46 -29 46q-32 0 -32 -52v-355q0 -15 1 -23.5t8 -18t21 -9.5q30 0 30 54v77h61v-87z" />
    <glyph glyph-name="d" unicode="d" 
d="M242 0h-59v36q-8 -17 -27 -27.5t-41 -10.5q-38 0 -59.5 27.5t-21.5 76.5v352q0 99 77 99q43 0 68 -39v208h63v-722zM179 106v326q0 66 -44 66q-20 0 -29 -17t-9 -39v-315q0 -76 40 -76q22 0 32 18.5t10 36.5z" />
    <glyph glyph-name="e" unicode="e" 
d="M242 103q0 -108 -107 -108q-52 0 -75.5 27.5t-23.5 68.5v362q0 48 27.5 74t77.5 26q51 0 76 -29t25 -78v-189h-144v-157q0 -54 41 -54q20 0 30 15.5t11 28.5t1 36v6v44h61v-73zM181 313v127q0 60 -40 60q-43 0 -43 -68v-119h83z" />
    <glyph glyph-name="f" unicode="f" horiz-adv-x="167" 
d="M152 672l-8 2q-19 0 -27 -10.5t-8 -35.5v-83h41v-53h-41v-492h-64v492h-30v53h30v86q0 52 16 73.5t66 21.5q16 0 25 -1v-53z" />
    <glyph glyph-name="g" unicode="g" 
d="M241 6q0 -115 -102 -115q-46 0 -73.5 22.5t-27.5 60.5v24h63v-8q0 -52 38 -52t38 55v65q-23 -33 -64 -33q-37 0 -57.5 25t-20.5 69v329q0 105 77 105q40 0 71 -44v36h58v-539zM177 150v291q0 56 -44 56q-36 0 -36 -56v-303q0 -58 38 -58q19 0 28.5 12.5t11.5 25t2 32.5z
" />
    <glyph glyph-name="h" unicode="h" 
d="M242 0h-63v433q0 35 -8.5 50t-28.5 15q-42 0 -42 -65v-433h-63v722h63v-208q27 39 68 39q42 0 58 -26.5t16 -58.5v-468z" />
    <glyph glyph-name="i" unicode="i" horiz-adv-x="148" 
d="M108 648h-68v74h68v-74zM105 0h-62v545h62v-545z" />
    <glyph glyph-name="j" unicode="j" horiz-adv-x="148" 
d="M108 648h-68v74h68v-74zM105 -37q0 -35 -21.5 -53t-58.5 -18q-16 0 -20 2v50q1 0 3.5 -0.5t4.5 -0.5q30 0 30 46v556h62v-582z" />
    <glyph glyph-name="k" unicode="k" 
d="M267 0h-67l-100 294v-294h-63v722h63v-398l92 221h65l-102 -231z" />
    <glyph glyph-name="l" unicode="l" horiz-adv-x="148" 
d="M105 0h-62v722h62v-722z" />
    <glyph glyph-name="m" unicode="m" horiz-adv-x="406" 
d="M367 0h-63v455q0 40 -32 40q-37 0 -37 -51v-444h-63v450q0 45 -31 45q-38 0 -38 -55v-440h-63v545h60v-37q32 45 71 45q32 0 58 -36q26 36 66 36q32 0 52 -21t20 -55v-477z" />
    <glyph glyph-name="n" unicode="n" 
d="M242 0h-63v433q0 35 -8.5 50t-28.5 15q-42 0 -42 -65v-433h-63v545h59v-37q24 45 72 45q74 0 74 -89v-464z" />
    <glyph glyph-name="o" unicode="o" 
d="M242 100q0 -105 -107 -105q-99 0 -99 101v357q0 48 27.5 74t77.5 26q101 0 101 -112v-341zM180 108v332q0 60 -39 60q-43 0 -43 -68v-332q0 -54 41 -54t41 62z" />
    <glyph glyph-name="p" unicode="p" 
d="M244 100q0 -100 -81 -100q-43 0 -64 32v-140h-62v653h59v-33q24 41 70 41q78 0 78 -102v-351zM182 128v298q0 39 -9 55.5t-30 16.5q-44 0 -44 -71v-296q0 -80 44 -80q39 0 39 77z" />
    <glyph glyph-name="q" unicode="q" 
d="M242 -108h-64v140q-19 -32 -64 -32q-81 0 -81 100v351q0 102 79 102q43 0 70 -41v33h60v-653zM178 131v296q0 71 -44 71q-38 0 -38 -72v-313q0 -23 9.5 -42.5t29.5 -19.5q43 0 43 80z" />
    <glyph glyph-name="r" unicode="r" horiz-adv-x="204" 
d="M182 485h-3q-41 0 -59.5 -17.5t-18.5 -57.5v-410h-63v545h60v-42q11 20 33 32t46 12h5v-62z" />
    <glyph glyph-name="s" unicode="s" horiz-adv-x="259" 
d="M222 88q0 -44 -24 -68.5t-68 -24.5t-68 23t-24 64v94h63v-81q0 -15 1 -23.5t8 -18t21 -9.5q30 0 30 54v64q0 26 -23 57l-71 97q-11 16 -16 23.5t-9 20.5t-4 29v61q0 49 25 76t72 27q39 0 63 -21.5t24 -56.5v-90h-60v71q0 46 -30 46q-31 0 -31 -52v-38q0 -16 4.5 -29.5
t9 -20t17.5 -25.5l69 -97q14 -19 17.5 -30.5t3.5 -34.5v-87z" />
    <glyph glyph-name="t" unicode="t" horiz-adv-x="167" 
d="M150 1q-11 -1 -24 -1q-43 0 -62 17t-19 55v420h-30v53h30v73l63 24v-97h42v-53h-42v-411q0 -29 32 -29q7 0 10 1v-52z" />
    <glyph glyph-name="u" unicode="u" 
d="M241 0h-59v37q-25 -43 -72 -43q-44 0 -59 25.5t-15 68.5v457h62v-431q0 -65 37 -65q43 0 43 65v431h63v-545z" />
    <glyph glyph-name="v" unicode="v" horiz-adv-x="258" 
d="M238 545l-63 -545h-92l-63 545h61l47 -484l52 484h58z" />
    <glyph glyph-name="w" unicode="w" horiz-adv-x="406" 
d="M392 545l-57 -545h-91l-40 495l-43 -495h-88l-60 545h58l48 -485l42 485h88l39 -485l48 485h56z" />
    <glyph glyph-name="x" unicode="x" horiz-adv-x="258" 
d="M239 0h-63l-45 193l-52 -193h-60l82 281l-74 264h66l38 -162l40 162h62l-68 -261v-2z" />
    <glyph glyph-name="y" unicode="y" horiz-adv-x="259" 
d="M241 545l-103 -653h-61l21 108l-80 545h64l44 -385l54 385h61z" />
    <glyph glyph-name="z" unicode="z" horiz-adv-x="204" 
d="M185 0h-166v72l103 420h-98v53h160v-54l-108 -438h109v-53z" />
    <glyph glyph-name="braceleft" unicode="{" horiz-adv-x="167" 
d="M159 -108q-64 0 -84.5 15t-20.5 76v246q0 32 -10 48t-36 16v40q26 0 36 16t10 48v246q0 61 20.5 76t84.5 15v-40q-17 0 -22 -0.5t-14.5 -4.5t-12.5 -15t-3 -31v-251q0 -64 -43 -79q43 -15 43 -79v-252q0 -19 3 -30t12 -15.5t15 -5t22 -0.5v-39z" />
    <glyph glyph-name="bar" unicode="|" horiz-adv-x="222" 
d="M135 -214h-48v1000h48v-1000z" />
    <glyph glyph-name="braceright" unicode="}" horiz-adv-x="167" 
d="M159 293q-26 0 -36.5 -16t-10.5 -48v-246q0 -61 -20 -76t-84 -15v39q16 0 22 0.5t14.5 5t11.5 15.5t3 30v252q0 63 43 79q-43 16 -43 79v251q0 13 -1 22.5t-6 15t-6.5 8.5t-11 4t-11.5 1h-15v40q64 0 84 -15t20 -76v-246q0 -32 10.5 -48t36.5 -16v-40z" />
    <glyph glyph-name="asciitilde" unicode="~" horiz-adv-x="600" 
d="M560 307q-8 -54 -37 -89.5t-81 -35.5q-17 0 -46.5 6.5t-47.5 12.5t-56.5 19t-40.5 14q-68 22 -91 22q-33 0 -55 -23.5t-28 -58.5h-37q24 126 118 126q37 0 101 -22q4 -1 31 -10.5t52.5 -17.5t54.5 -15.5t43 -7.5q66 0 85 80h35z" />
    <glyph glyph-name="uni00A0" unicode="&#xa0;" horiz-adv-x="138" 
 />
    <glyph glyph-name="exclamdown" unicode="&#xa1;" horiz-adv-x="258" 
d="M92 -103l10 547h55l9 -547h-74zM95 619h69v-76h-69v76z" />
    <glyph glyph-name="cent" unicode="&#xa2;" horiz-adv-x="276" 
d="M228 399h-60v82q0 47 -29 47q-32 0 -32 -52v-356q0 -51 30 -51t30 55v76h61v-87q0 -34 -17.5 -57.5t-47.5 -31.5v-82h-51v81q-68 13 -68 85v368q0 38 17.5 64.5t50.5 34.5v79h51v-78q28 -6 46.5 -26t18.5 -50v-101z" />
    <glyph glyph-name="sterling" unicode="&#xa3;" horiz-adv-x="276" 
d="M271 575h-62v62q0 18 -9 28.5t-24 10.5q-36 0 -36 -45v-214h95v-56h-95v-304h123v-57h-245v57h55v304h-57v56h57v186q0 60 23 92t80 32q46 0 70.5 -22t24.5 -64v-66z" />
    <glyph glyph-name="currency" unicode="&#xa4;" horiz-adv-x="287" 
d="M144 242q-39 0 -69 22l-27 -27l-28 28l28 28q-23 29 -23 68t23 68l-28 28l28 28l27 -27q30 22 69 22t69 -22l27 27l28 -28l-28 -28q23 -29 23 -68t-23 -68l28 -28l-28 -28l-27 27q-30 -22 -69 -22zM144 292q28 0 48.5 20t20.5 49t-20.5 49t-48.5 20t-48.5 -20t-20.5 -49
t20.5 -49t48.5 -20z" />
    <glyph glyph-name="yen" unicode="&#xa5;" horiz-adv-x="276" 
d="M105 0v211h-90v50h90v53l-5 21h-85v50h73l-80 337h66l65 -328l63 328h66l-80 -337h73v-50h-85l-5 -21v-53h90v-50h-90v-211h-66z" />
    <glyph glyph-name="brokenbar" unicode="&#xa6;" horiz-adv-x="222" 
d="M135 409h-48v252h48v-252zM135 -89h-48v251h48v-251z" />
    <glyph glyph-name="section" unicode="&#xa7;" 
d="M245 100q0 -105 -107 -105q-55 0 -80 27t-25 84v55h63v-39q0 -75 45 -75q17 0 28 14t11 37v30q0 28 -37 65l-51 49q-27 26 -41 47.5t-14 51.5v40q0 52 37 89l28 28l-26 27q-36 37 -36 80v40q0 40 27.5 61.5t77.5 21.5q51 0 74 -25t23 -77v-50h-62v40q0 60 -38 60
q-39 0 -39 -49v-10q0 -30 30 -64l79 -88q19 -21 24.5 -38t5.5 -46v-30q0 -56 -31 -84l-27 -25l27 -26q34 -33 34 -82v-34zM180 358v19q0 27 -7 41.5t-34 41.5l-5 5l-3 -4q-4 -6 -12 -15.5t-10 -12.5t-5.5 -11t-4 -16.5t-0.5 -21.5v-23q0 -9 0.5 -16t3.5 -14t4.5 -11t7 -10.5
t7.5 -9t10.5 -10.5t11.5 -11l5 -5l16 23q15 23 15 61z" />
    <glyph glyph-name="dieresis" unicode="&#xa8;" horiz-adv-x="148" 
d="M-7 627v77h60v-77h-60zM94 627v77h60v-77h-60z" />
    <glyph glyph-name="copyright" unicode="&#xa9;" horiz-adv-x="800" 
d="M766 363q0 -152 -107.5 -259.5t-258.5 -107.5q-152 0 -259.5 108t-107.5 259q0 152 107.5 259t259.5 107t259 -107.5t107 -258.5zM717 361q0 132 -92.5 224.5t-224.5 92.5t-224.5 -92.5t-92.5 -224.5t92.5 -224.5t224.5 -92.5t224.5 92.5t92.5 224.5zM574 282l4 -5
q-8 -63 -57.5 -101.5t-113.5 -38.5q-91 0 -148 64.5t-57 156.5q0 90 54.5 155t142.5 65q68 0 118.5 -43t57.5 -111h-50q-8 48 -41.5 77t-81.5 29q-68 0 -105.5 -50t-37.5 -120q0 -72 39.5 -124t109.5 -52q44 0 77.5 26.5t43.5 71.5h45z" />
    <glyph glyph-name="ordfeminine" unicode="&#xaa;" horiz-adv-x="220" 
d="M93 378q-23 0 -37.5 6t-20 18t-7 20.5t-1.5 22.5v60q0 51 18 68.5t85 21.5h6v68q0 21 -21 21q-26 0 -26 -31v-31h-55v38q0 29 19.5 47.5t62.5 18.5q74 0 74 -69v-277h-51v15q-20 -17 -46 -17zM108 416q28 0 28 28v111q-32 -2 -42.5 -11t-10.5 -27v-65q0 -11 1 -17
t6.5 -12.5t17.5 -6.5z" />
    <glyph glyph-name="guillemotleft" unicode="&#xab;" 
d="M258 61h-52l-58 213l56 210h54l-47 -210zM130 61h-52l-58 213l57 210h53l-46 -210z" />
    <glyph glyph-name="logicalnot" unicode="&#xac;" horiz-adv-x="600" 
d="M547 128h-46v181h-448v45h494v-226z" />
    <glyph glyph-name="uni00AD" unicode="&#xad;" horiz-adv-x="166" 
d="M142 272h-119v56h119v-56z" />
    <glyph glyph-name="registered" unicode="&#xae;" horiz-adv-x="400" 
d="M383 545q0 -75 -54 -129t-129 -54q-76 0 -129.5 54t-53.5 129q0 76 53.5 130t129.5 54t129.5 -54t53.5 -130zM355 545q0 65 -45.5 111t-109.5 46t-110 -46t-46 -111q0 -64 46 -110t110 -46t109.5 45.5t45.5 110.5zM286 453h-32q-5 11 -5 33t-10.5 32t-46.5 10h-32v-75
h-31v188h72q82 0 82 -56q0 -30 -33 -45q26 -12 29 -46t7 -41zM253 586q0 29 -50 29h-43v-61h40q53 0 53 32z" />
    <glyph glyph-name="macron" unicode="&#xaf;" horiz-adv-x="148" 
d="M-16 644v46h179v-46h-179z" />
    <glyph glyph-name="degree" unicode="&#xb0;" horiz-adv-x="400" 
d="M200 493q-49 0 -83.5 34.5t-34.5 83.5t34.5 83.5t83.5 34.5t83.5 -34.5t34.5 -83.5t-34.5 -83.5t-83.5 -34.5zM200 537q31 0 52.5 21.5t21.5 52.5t-21.5 52.5t-52.5 21.5t-52.5 -21.5t-21.5 -52.5t21.5 -52.5t52.5 -21.5z" />
    <glyph glyph-name="plusminus" unicode="&#xb1;" horiz-adv-x="600" 
d="M547 263h-223v-181h-49v181h-223v45h223v180h49v-180h223v-45zM547 -7h-495v45h495v-45z" />
    <glyph glyph-name="twosuperior" unicode="&#xb2;" horiz-adv-x="220" 
d="M189 287h-158v44l84 216q18 46 18 94q0 26 -4.5 36t-16.5 10q-21 0 -21 -30v-53h-56v54q0 68 77 68q46 0 61 -21.5t15 -63.5q0 -51 -21 -104l-83 -209h105v-41z" />
    <glyph glyph-name="threesuperior" unicode="&#xb3;" horiz-adv-x="220" 
d="M183 357q0 -71 -77 -71q-36 0 -56 16.5t-20 43.5v71h56v-63q0 -30 20 -30q22 0 22 30v112q0 17 -6.5 24t-23.5 7h-22v39h20q19 0 25.5 5.5t6.5 21.5v99q0 28 -22 28q-19 0 -19 -28v-57h-56v53q0 70 77 70q75 0 75 -68v-94q0 -42 -21 -50q21 -7 21 -39v-120z" />
    <glyph glyph-name="acute" unicode="&#xb4;" horiz-adv-x="148" 
d="M31 614l45 108h71l-64 -108h-52z" />
    <glyph glyph-name="mu" unicode="&#xb5;" 
d="M241 0h-59v37q-25 -43 -72 -43q-8 0 -12 1v-103h-62v653h62v-431q0 -65 37 -65q43 0 43 65v431h63v-545z" />
    <glyph glyph-name="paragraph" unicode="&#xb6;" horiz-adv-x="400" 
d="M379 682h-34v-790h-48v790h-50v-790h-48v443q-69 0 -123.5 51.5t-54.5 136.5q0 99 66 149t157 50h135v-40z" />
    <glyph glyph-name="periodcentered" unicode="&#xb7;" horiz-adv-x="138" 
d="M104 274h-69v76h69v-76z" />
    <glyph glyph-name="cedilla" unicode="&#xb8;" horiz-adv-x="148" 
d="M18 -104l10 24q15 -7 31 -7q27 0 27 19q0 18 -28 18q-6 0 -16 -2l-10 7l34 46h27l-23 -32q12 2 20 2q17 0 29.5 -10.5t12.5 -27.5q0 -46 -62 -46q-24 0 -52 9z" />
    <glyph glyph-name="onesuperior" unicode="&#xb9;" horiz-adv-x="220" 
d="M142 287h-56v375q-25 -13 -46 -22v48q38 17 54 34h48v-435z" />
    <glyph glyph-name="ordmasculine" unicode="&#xba;" horiz-adv-x="220" 
d="M30 454v187q0 85 80 85q45 0 63 -20t18 -65v-191q0 -35 -23.5 -54t-58.5 -19t-57 21.5t-22 55.5zM137 450v200q0 36 -26 36t-26 -39v-200q0 -12 7.5 -21t18.5 -9q12 0 19 11t7 22z" />
    <glyph glyph-name="guillemotright" unicode="&#xbb;" 
d="M258 274l-58 -213h-52l46 213l-46 210h53zM130 274l-58 -213h-52l47 213l-47 210h54z" />
    <glyph glyph-name="onequarter" unicode="&#xbc;" horiz-adv-x="556" 
d="M142 287h-56v375q-25 -13 -46 -22v48q38 17 54 34h48v-435zM129 0l194 722h50l-194 -722h-50zM417 0v112h-86v49l69 274h74v-285h35v-38h-35v-112h-57zM381 150h36v174z" />
    <glyph glyph-name="onehalf" unicode="&#xbd;" horiz-adv-x="556" 
d="M142 287h-56v375q-25 -13 -46 -22v48q38 17 54 34h48v-435zM129 0l194 722h50l-194 -722h-50zM502 0h-158v44l84 216q18 46 18 94q0 26 -4.5 36t-16.5 10q-21 0 -21 -30v-53h-56v54q0 68 77 68q46 0 61 -21.5t15 -63.5q0 -52 -21 -104l-83 -209h105v-41z" />
    <glyph glyph-name="threequarters" unicode="&#xbe;" horiz-adv-x="556" 
d="M191 357q0 -71 -77 -71q-36 0 -56 16.5t-20 43.5v71h56v-63q0 -30 20 -30q22 0 22 30v112q0 17 -6.5 24t-23.5 7h-22v39h20q19 0 25.5 5.5t6.5 21.5v99q0 28 -22 28q-19 0 -19 -28v-57h-56v53q0 70 77 70q75 0 75 -68v-94q0 -42 -21 -50q21 -7 21 -39v-120zM147 0
l194 722h50l-194 -722h-50zM424 0v112h-86v49l69 274h74v-285h35v-38h-35v-112h-57zM388 150h36v174z" />
    <glyph glyph-name="questiondown" unicode="&#xbf;" 
d="M43 77q0 47 15 87l34 93q12 33 12 82v104h57v-106q0 -69 -16 -110l-26 -69q-11 -31 -11 -64v-105q0 -44 31 -44q35 0 35 48v90h61v-79q0 -55 -22.5 -84.5t-78.5 -29.5q-91 0 -91 89v98zM99 619h69v-76h-69v76z" />
    <glyph glyph-name="Agrave" unicode="&#xc0;" horiz-adv-x="332" 
d="M317 0h-66l-28 201h-117l-26 -201h-66l108 722h91zM216 256l-49 416l-54 -416h103zM157 753l-62 108h70l43 -108h-51z" />
    <glyph glyph-name="Aacute" unicode="&#xc1;" horiz-adv-x="332" 
d="M317 0h-66l-28 201h-117l-26 -201h-66l108 722h91zM216 256l-49 416l-54 -416h103zM129 753l45 108h71l-64 -108h-52z" />
    <glyph glyph-name="Acircumflex" unicode="&#xc2;" horiz-adv-x="332" 
d="M317 0h-66l-28 201h-117l-26 -201h-66l108 722h91zM216 256l-49 416l-54 -416h103zM82 753l46 108h85l42 -108h-60l-24 71l-29 -71h-60z" />
    <glyph glyph-name="Atilde" unicode="&#xc3;" horiz-adv-x="332" 
d="M317 0h-66l-28 201h-117l-26 -201h-66l108 722h91zM216 256l-49 416l-54 -416h103zM112 772h-33q0 28 15.5 47t42.5 19q13 0 34.5 -9t30.5 -9t16 6.5t7 15.5h35q-2 -28 -17.5 -48.5t-42.5 -20.5q-12 0 -34 9.5t-33 9.5q-15 0 -21 -20z" />
    <glyph glyph-name="Adieresis" unicode="&#xc4;" horiz-adv-x="332" 
d="M317 0h-66l-28 201h-117l-26 -201h-66l108 722h91zM216 256l-49 416l-54 -416h103zM90 766v77h60v-77h-60zM191 766v77h60v-77h-60z" />
    <glyph glyph-name="Aring" unicode="&#xc5;" horiz-adv-x="332" 
d="M317 0h-66l-28 201h-117l-26 -201h-66l108 722h91zM216 256l-49 416l-54 -416h103zM166 735q-28 0 -47.5 20t-19.5 47q0 28 19.5 47.5t47.5 19.5t47.5 -19.5t19.5 -47.5q0 -27 -19.5 -47t-47.5 -20zM166 770q13 0 22.5 9.5t9.5 22.5q0 14 -9.5 23.5t-22.5 9.5t-22.5 -9.5
t-9.5 -23.5q0 -13 9.5 -22.5t22.5 -9.5z" />
    <glyph glyph-name="AE" unicode="&#xc6;" horiz-adv-x="407" 
d="M13 0l126 722h245v-57h-128l17 -263h105v-56h-100l21 -289h86v-57h-149l-14 201h-111l-35 -201h-63zM120 256h100l-29 418z" />
    <glyph glyph-name="Ccedilla" unicode="&#xc7;" 
d="M96 -104l10 24q15 -7 31 -7q27 0 27 19q0 18 -28 18q-6 0 -16 -2l-10 7l29 40q-89 6 -89 101v538q0 40 25.5 67.5t75.5 27.5q54 0 79.5 -29.5t25.5 -76.5v-89h-66v90q0 52 -35 52q-39 0 -39 -57v-526q0 -46 34 -46q40 0 40 50v101h66v-100q0 -43 -22 -71t-68 -32l-18 -26
q12 2 20 2q17 0 29.5 -10.5t12.5 -27.5q0 -46 -62 -46q-24 0 -52 9z" />
    <glyph glyph-name="Egrave" unicode="&#xc8;" horiz-adv-x="259" 
d="M228 0h-176v722h175v-57h-109v-262h104v-57h-104v-289h110v-57zM127 753l-62 108h70l43 -108h-51z" />
    <glyph glyph-name="Eacute" unicode="&#xc9;" horiz-adv-x="259" 
d="M228 0h-176v722h175v-57h-109v-262h104v-57h-104v-289h110v-57zM99 753l45 108h71l-64 -108h-52z" />
    <glyph glyph-name="Ecircumflex" unicode="&#xca;" horiz-adv-x="259" 
d="M228 0h-176v722h175v-57h-109v-262h104v-57h-104v-289h110v-57zM52 753l46 108h85l42 -108h-60l-24 71l-29 -71h-60z" />
    <glyph glyph-name="Edieresis" unicode="&#xcb;" horiz-adv-x="259" 
d="M228 0h-176v722h175v-57h-109v-262h104v-57h-104v-289h110v-57zM60 766v77h60v-77h-60zM161 766v77h60v-77h-60z" />
    <glyph glyph-name="Igrave" unicode="&#xcc;" horiz-adv-x="168" 
d="M117 0h-66v722h66v-722zM69 753l-62 108h70l43 -108h-51z" />
    <glyph glyph-name="Iacute" unicode="&#xcd;" horiz-adv-x="168" 
d="M117 0h-66v722h66v-722zM41 753l45 108h71l-64 -108h-52z" />
    <glyph glyph-name="Icircumflex" unicode="&#xce;" horiz-adv-x="168" 
d="M117 0h-66v722h66v-722zM-6 753l46 108h85l42 -108h-60l-24 71l-29 -71h-60z" />
    <glyph glyph-name="Idieresis" unicode="&#xcf;" horiz-adv-x="168" 
d="M117 0h-66v722h66v-722zM2 766v77h60v-77h-60zM103 766v77h60v-77h-60z" />
    <glyph glyph-name="Eth" unicode="&#xd0;" horiz-adv-x="333" 
d="M54 0v347h-32v56h32v319h112q61 0 87 -28.5t26 -88.5v-493q0 -64 -32.5 -88t-89.5 -24h-103zM120 57h25q40 0 54 12t14 47v492q0 33 -12 45t-46 12h-35v-262h40v-56h-40v-290z" />
    <glyph glyph-name="Ntilde" unicode="&#xd1;" horiz-adv-x="333" 
d="M285 0h-94l-85 641v-641h-57v722h95l83 -616v616h58v-722zM107 772h-33q0 28 15.5 47t42.5 19q13 0 34.5 -9t30.5 -9t16 6.5t7 15.5h35q-2 -28 -17.5 -48.5t-42.5 -20.5q-12 0 -34 9.5t-33 9.5q-15 0 -21 -20z" />
    <glyph glyph-name="Ograve" unicode="&#xd2;" horiz-adv-x="334" 
d="M282 99q0 -52 -32 -78.5t-83 -26.5q-55 0 -85 31t-30 87v496q0 62 27.5 91.5t87.5 29.5q115 0 115 -123v-507zM216 118v482q0 76 -48 76q-50 0 -50 -72v-492q0 -63 46 -63q52 0 52 69zM152 753l-62 108h70l43 -108h-51z" />
    <glyph glyph-name="Oacute" unicode="&#xd3;" horiz-adv-x="334" 
d="M282 99q0 -52 -32 -78.5t-83 -26.5q-55 0 -85 31t-30 87v496q0 62 27.5 91.5t87.5 29.5q115 0 115 -123v-507zM216 118v482q0 76 -48 76q-50 0 -50 -72v-492q0 -63 46 -63q52 0 52 69zM124 753l45 108h71l-64 -108h-52z" />
    <glyph glyph-name="Ocircumflex" unicode="&#xd4;" horiz-adv-x="334" 
d="M282 99q0 -52 -32 -78.5t-83 -26.5q-55 0 -85 31t-30 87v496q0 62 27.5 91.5t87.5 29.5q115 0 115 -123v-507zM216 118v482q0 76 -48 76q-50 0 -50 -72v-492q0 -63 46 -63q52 0 52 69zM77 753l46 108h85l42 -108h-60l-24 71l-29 -71h-60z" />
    <glyph glyph-name="Otilde" unicode="&#xd5;" horiz-adv-x="334" 
d="M282 99q0 -52 -32 -78.5t-83 -26.5q-55 0 -85 31t-30 87v496q0 62 27.5 91.5t87.5 29.5q115 0 115 -123v-507zM216 118v482q0 76 -48 76q-50 0 -50 -72v-492q0 -63 46 -63q52 0 52 69zM107 772h-33q0 28 15.5 47t42.5 19q13 0 34.5 -9t30.5 -9t16 6.5t7 15.5h35
q-2 -28 -17.5 -48.5t-42.5 -20.5q-12 0 -34 9.5t-33 9.5q-15 0 -21 -20z" />
    <glyph glyph-name="Odieresis" unicode="&#xd6;" horiz-adv-x="334" 
d="M282 99q0 -52 -32 -78.5t-83 -26.5q-55 0 -85 31t-30 87v496q0 62 27.5 91.5t87.5 29.5q115 0 115 -123v-507zM216 118v482q0 76 -48 76q-50 0 -50 -72v-492q0 -63 46 -63q52 0 52 69zM85 766v77h60v-77h-60zM186 766v77h60v-77h-60z" />
    <glyph glyph-name="multiply" unicode="&#xd7;" horiz-adv-x="600" 
d="M299 288l191 191l36 -36l-191 -190l191 -190l-36 -36l-191 191l-189 -191l-36 36l190 190l-190 190l36 36z" />
    <glyph glyph-name="Oslash" unicode="&#xd8;" horiz-adv-x="334" 
d="M45 -32l21 79q-14 26 -14 65v496q0 62 27.5 91.5t87.5 29.5q45 0 73 -19l12 45l33 -7l-18 -69q15 -29 15 -73v-507q0 -52 -32 -78.5t-83 -26.5q-47 0 -75 22l-15 -56zM118 114v-2q0 -63 46 -63q52 0 52 69v368zM118 245l97 371q-4 60 -47 60q-50 0 -50 -72v-359z" />
    <glyph glyph-name="Ugrave" unicode="&#xd9;" horiz-adv-x="334" 
d="M282 109q0 -115 -115 -115q-55 0 -85 31t-30 87v610h66v-610q0 -63 46 -63q52 0 52 69v604h66v-613zM152 753l-62 108h70l43 -108h-51z" />
    <glyph glyph-name="Uacute" unicode="&#xda;" horiz-adv-x="334" 
d="M282 109q0 -115 -115 -115q-55 0 -85 31t-30 87v610h66v-610q0 -63 46 -63q52 0 52 69v604h66v-613zM124 753l45 108h71l-64 -108h-52z" />
    <glyph glyph-name="Ucircumflex" unicode="&#xdb;" horiz-adv-x="334" 
d="M282 109q0 -115 -115 -115q-55 0 -85 31t-30 87v610h66v-610q0 -63 46 -63q52 0 52 69v604h66v-613zM77 753l46 108h85l42 -108h-60l-24 71l-29 -71h-60z" />
    <glyph glyph-name="Udieresis" unicode="&#xdc;" horiz-adv-x="334" 
d="M282 109q0 -115 -115 -115q-55 0 -85 31t-30 87v610h66v-610q0 -63 46 -63q52 0 52 69v604h66v-613zM85 766v77h60v-77h-60zM186 766v77h60v-77h-60z" />
    <glyph glyph-name="Yacute" unicode="&#xdd;" 
d="M270 722l-98 -408v-314h-66l-1 314l-96 408h70l63 -328l64 328h64zM96 753l45 108h71l-64 -108h-52z" />
    <glyph glyph-name="Thorn" unicode="&#xde;" 
d="M49 0v722h66v-124h56q51 0 72 -25t21 -78v-193q0 -58 -26.5 -79.5t-83.5 -21.5h-39v-201h-66zM115 257h26q33 0 45 10.5t12 41.5v183q0 29 -9.5 39t-38.5 10h-35v-284z" />
    <glyph glyph-name="germandbls" unicode="&#xdf;" horiz-adv-x="370" 
d="M38 0v580q0 73 31.5 111t91.5 38q116 0 116 -124v-105q-65 -25 -65 -64q0 -21 17 -47l75 -120q31 -50 31 -104v-67q0 -104 -101 -104q-44 0 -68 24t-24 68v75h63v-70q0 -46 32 -46q35 0 35 50v60q0 45 -21 79l-74 120q-30 49 -30 82q0 50 67 91v82q0 68 -52 68
q-32 0 -46.5 -21.5t-14.5 -53.5v-602h-63z" />
    <glyph glyph-name="agrave" unicode="&#xe0;" 
d="M242 0h-59v31q-9 -15 -28.5 -24.5t-39.5 -9.5q-27 0 -44.5 9.5t-24.5 26.5t-9 31.5t-2 34.5v98q0 78 24.5 106t107.5 35l11 1v117q0 46 -35 46q-39 0 -39 -60v-43h-62v54q0 43 25.5 71.5t78.5 28.5q47 0 71.5 -27t24.5 -78v-448zM178 97v191q-47 -4 -64 -21t-17 -50v-101
v-5q0 -20 1 -31.5t9.5 -24t25.5 -12.5q20 0 32.5 15t12.5 39zM181 614h-51l-62 108h70z" />
    <glyph glyph-name="aacute" unicode="&#xe1;" 
d="M242 0h-59v31q-9 -15 -28.5 -24.5t-39.5 -9.5q-27 0 -44.5 9.5t-24.5 26.5t-9 31.5t-2 34.5v98q0 78 24.5 106t107.5 35l11 1v117q0 46 -35 46q-39 0 -39 -60v-43h-62v54q0 43 25.5 71.5t78.5 28.5q47 0 71.5 -27t24.5 -78v-448zM178 97v191q-47 -4 -64 -21t-17 -50v-101
v-5q0 -20 1 -31.5t9.5 -24t25.5 -12.5q20 0 32.5 15t12.5 39zM102 614l45 108h71l-64 -108h-52z" />
    <glyph glyph-name="acircumflex" unicode="&#xe2;" 
d="M242 0h-59v31q-9 -15 -28.5 -24.5t-39.5 -9.5q-27 0 -44.5 9.5t-24.5 26.5t-9 31.5t-2 34.5v98q0 78 24.5 106t107.5 35l11 1v117q0 46 -35 46q-39 0 -39 -60v-43h-62v54q0 43 25.5 71.5t78.5 28.5q47 0 71.5 -27t24.5 -78v-448zM178 97v191q-47 -4 -64 -21t-17 -50v-101
v-5q0 -20 1 -31.5t9.5 -24t25.5 -12.5q20 0 32.5 15t12.5 39zM59 614l46 108h85l42 -108h-60l-24 71l-29 -71h-60z" />
    <glyph glyph-name="atilde" unicode="&#xe3;" 
d="M242 0h-59v31q-9 -15 -28.5 -24.5t-39.5 -9.5q-27 0 -44.5 9.5t-24.5 26.5t-9 31.5t-2 34.5v98q0 78 24.5 106t107.5 35l11 1v117q0 46 -35 46q-39 0 -39 -60v-43h-62v54q0 43 25.5 71.5t78.5 28.5q47 0 71.5 -27t24.5 -78v-448zM178 97v191q-47 -4 -64 -21t-17 -50v-101
v-5q0 -20 1 -31.5t9.5 -24t25.5 -12.5q20 0 32.5 15t12.5 39zM87 633h-33q0 28 15.5 47t42.5 19q13 0 34.5 -9t30.5 -9t16 6.5t7 15.5h35q-2 -28 -17.5 -48.5t-42.5 -20.5q-12 0 -34 9.5t-33 9.5q-15 0 -21 -20z" />
    <glyph glyph-name="adieresis" unicode="&#xe4;" 
d="M242 0h-59v31q-9 -15 -28.5 -24.5t-39.5 -9.5q-27 0 -44.5 9.5t-24.5 26.5t-9 31.5t-2 34.5v98q0 78 24.5 106t107.5 35l11 1v117q0 46 -35 46q-39 0 -39 -60v-43h-62v54q0 43 25.5 71.5t78.5 28.5q47 0 71.5 -27t24.5 -78v-448zM178 97v191q-47 -4 -64 -21t-17 -50v-101
v-5q0 -20 1 -31.5t9.5 -24t25.5 -12.5q20 0 32.5 15t12.5 39zM64 627v77h60v-77h-60zM165 627v77h60v-77h-60z" />
    <glyph glyph-name="aring" unicode="&#xe5;" 
d="M242 0h-59v31q-9 -15 -28.5 -24.5t-39.5 -9.5q-27 0 -44.5 9.5t-24.5 26.5t-9 31.5t-2 34.5v98q0 78 24.5 106t107.5 35l11 1v117q0 46 -35 46q-39 0 -39 -60v-43h-62v54q0 43 25.5 71.5t78.5 28.5q47 0 71.5 -27t24.5 -78v-448zM178 97v191q-47 -4 -64 -21t-17 -50v-101
v-5q0 -20 1 -31.5t9.5 -24t25.5 -12.5q20 0 32.5 15t12.5 39zM139 596q-28 0 -47.5 20t-19.5 47q0 28 19.5 47.5t47.5 19.5t47.5 -19.5t19.5 -47.5q0 -27 -19.5 -47t-47.5 -20zM139 631q13 0 22.5 9.5t9.5 22.5q0 14 -9.5 23.5t-22.5 9.5t-22.5 -9.5t-9.5 -23.5
q0 -13 9.5 -22.5t22.5 -9.5z" />
    <glyph glyph-name="ae" unicode="&#xe6;" horiz-adv-x="402" 
d="M35 96v107q0 111 112 111h22v146q0 40 -34 40t-34 -43v-69h-62v63q0 102 89 102q48 0 75 -39q31 39 76 39q44 0 65.5 -27t21.5 -72v-196h-134v-170q0 -17 8.5 -29.5t25.5 -12.5q18 0 28 12.5t10 30.5v87h62v-85q0 -45 -23 -70.5t-69 -25.5q-55 0 -74 43q-13 -43 -74 -43
q-91 0 -91 101zM232 314h72v143q0 44 -34 44q-19 0 -28.5 -13.5t-9.5 -33.5v-140zM169 94v164h-18q-26 0 -39.5 -15t-13.5 -40v-107q0 -52 34 -52q37 0 37 50z" />
    <glyph glyph-name="ccedilla" unicode="&#xe7;" horiz-adv-x="259" 
d="M72 -104l10 24q15 -7 31 -7q27 0 27 19q0 18 -28 18q-6 0 -16 -2l-10 7l30 41q-37 3 -57.5 25.5t-20.5 60.5v368q0 49 25 76t71 27q40 0 64 -21.5t24 -56.5v-101h-60v82q0 46 -29 46q-32 0 -32 -52v-355q0 -15 1 -23.5t8 -18t21 -9.5q30 0 30 54v77h61v-87q0 -41 -21 -65
t-58 -27l-19 -27q12 2 20 2q17 0 29.5 -10.5t12.5 -27.5q0 -46 -62 -46q-24 0 -52 9z" />
    <glyph glyph-name="egrave" unicode="&#xe8;" 
d="M242 103q0 -108 -107 -108q-52 0 -75.5 27.5t-23.5 68.5v362q0 48 27.5 74t77.5 26q51 0 76 -29t25 -78v-189h-144v-157q0 -54 41 -54q20 0 30 15.5t11 28.5t1 36v6v44h61v-73zM181 313v127q0 60 -40 60q-43 0 -43 -68v-119h83zM175 614h-51l-62 108h70z" />
    <glyph glyph-name="eacute" unicode="&#xe9;" 
d="M242 103q0 -108 -107 -108q-52 0 -75.5 27.5t-23.5 68.5v362q0 48 27.5 74t77.5 26q51 0 76 -29t25 -78v-189h-144v-157q0 -54 41 -54q20 0 30 15.5t11 28.5t1 36v6v44h61v-73zM181 313v127q0 60 -40 60q-43 0 -43 -68v-119h83zM96 614l45 108h71l-64 -108h-52z" />
    <glyph glyph-name="ecircumflex" unicode="&#xea;" 
d="M242 103q0 -108 -107 -108q-52 0 -75.5 27.5t-23.5 68.5v362q0 48 27.5 74t77.5 26q51 0 76 -29t25 -78v-189h-144v-157q0 -54 41 -54q20 0 30 15.5t11 28.5t1 36v6v44h61v-73zM181 313v127q0 60 -40 60q-43 0 -43 -68v-119h83zM53 614l46 108h85l42 -108h-60l-24 71
l-29 -71h-60z" />
    <glyph glyph-name="edieresis" unicode="&#xeb;" 
d="M242 103q0 -108 -107 -108q-52 0 -75.5 27.5t-23.5 68.5v362q0 48 27.5 74t77.5 26q51 0 76 -29t25 -78v-189h-144v-157q0 -54 41 -54q20 0 30 15.5t11 28.5t1 36v6v44h61v-73zM181 313v127q0 60 -40 60q-43 0 -43 -68v-119h83zM58 627v77h60v-77h-60zM159 627v77h60v-77
h-60z" />
    <glyph glyph-name="igrave" unicode="&#xec;" horiz-adv-x="148" 
d="M43 0v545h62v-545h-62zM110 614h-51l-62 108h70z" />
    <glyph glyph-name="iacute" unicode="&#xed;" horiz-adv-x="148" 
d="M43 0v545h62v-545h-62zM31 614l45 108h71l-64 -108h-52z" />
    <glyph glyph-name="icircumflex" unicode="&#xee;" horiz-adv-x="148" 
d="M43 0v545h62v-545h-62zM-12 614l46 108h85l42 -108h-60l-24 71l-29 -71h-60z" />
    <glyph glyph-name="idieresis" unicode="&#xef;" horiz-adv-x="148" 
d="M43 0v545h62v-545h-62zM-7 627v77h60v-77h-60zM94 627v77h60v-77h-60z" />
    <glyph glyph-name="eth" unicode="&#xf0;" 
d="M36 99v347q0 105 103 105q27 0 38 -16q-1 26 -14 58t-26 44l-66 -48l-25 28l66 48q-28 28 -51 45l40 31q30 -23 52 -46l63 47l26 -29l-64 -47q64 -74 64 -253v-314q0 -105 -103 -105t-103 105zM180 99v347q0 55 -41 55t-41 -55v-347q0 -55 41 -55t41 55z" />
    <glyph glyph-name="ntilde" unicode="&#xf1;" 
d="M242 0h-63v433q0 35 -8.5 50t-28.5 15q-42 0 -42 -65v-433h-63v545h59v-37q24 45 72 45q74 0 74 -89v-464zM81 633h-33q0 28 15.5 47t42.5 19q13 0 34.5 -9t30.5 -9t16 6.5t7 15.5h35q-2 -28 -17.5 -48.5t-42.5 -20.5q-12 0 -34 9.5t-33 9.5q-15 0 -21 -20z" />
    <glyph glyph-name="ograve" unicode="&#xf2;" 
d="M242 100q0 -105 -107 -105q-99 0 -99 101v357q0 48 27.5 74t77.5 26q101 0 101 -112v-341zM180 108v332q0 60 -39 60q-43 0 -43 -68v-332q0 -54 41 -54t41 62zM175 614h-51l-62 108h70z" />
    <glyph glyph-name="oacute" unicode="&#xf3;" 
d="M242 100q0 -105 -107 -105q-99 0 -99 101v357q0 48 27.5 74t77.5 26q101 0 101 -112v-341zM180 108v332q0 60 -39 60q-43 0 -43 -68v-332q0 -54 41 -54t41 62zM96 614l45 108h71l-64 -108h-52z" />
    <glyph glyph-name="ocircumflex" unicode="&#xf4;" 
d="M242 100q0 -105 -107 -105q-99 0 -99 101v357q0 48 27.5 74t77.5 26q101 0 101 -112v-341zM180 108v332q0 60 -39 60q-43 0 -43 -68v-332q0 -54 41 -54t41 62zM53 614l46 108h85l42 -108h-60l-24 71l-29 -71h-60z" />
    <glyph glyph-name="otilde" unicode="&#xf5;" 
d="M242 100q0 -105 -107 -105q-99 0 -99 101v357q0 48 27.5 74t77.5 26q101 0 101 -112v-341zM180 108v332q0 60 -39 60q-43 0 -43 -68v-332q0 -54 41 -54t41 62zM81 633h-33q0 28 15.5 47t42.5 19q13 0 34.5 -9t30.5 -9t16 6.5t7 15.5h35q-2 -28 -17.5 -48.5t-42.5 -20.5
q-12 0 -34 9.5t-33 9.5q-15 0 -21 -20z" />
    <glyph glyph-name="odieresis" unicode="&#xf6;" 
d="M242 100q0 -105 -107 -105q-99 0 -99 101v357q0 48 27.5 74t77.5 26q101 0 101 -112v-341zM180 108v332q0 60 -39 60q-43 0 -43 -68v-332q0 -54 41 -54t41 62zM58 627v77h60v-77h-60zM159 627v77h60v-77h-60z" />
    <glyph glyph-name="divide" unicode="&#xf7;" horiz-adv-x="600" 
d="M333 378h-69v76h69v-76zM547 218h-495v45h495v-45zM333 27h-69v76h69v-76z" />
    <glyph glyph-name="oslash" unicode="&#xf8;" 
d="M23 -28l23 69q-10 23 -10 55v357q0 48 27.5 74t77.5 26q44 0 71 -24l17 51l24 -7l-23 -69q12 -26 12 -63v-341q0 -105 -107 -105q-46 0 -71 22l-17 -52zM98 116v-16q0 -54 41 -54t41 62v250zM98 193l82 242v5q0 60 -39 60q-43 0 -43 -68v-239z" />
    <glyph glyph-name="ugrave" unicode="&#xf9;" 
d="M241 0h-59v37q-25 -43 -72 -43q-44 0 -59 25.5t-15 68.5v457h62v-431q0 -65 37 -65q43 0 43 65v431h63v-545zM175 614h-51l-62 108h70z" />
    <glyph glyph-name="uacute" unicode="&#xfa;" 
d="M241 0h-59v37q-25 -43 -72 -43q-44 0 -59 25.5t-15 68.5v457h62v-431q0 -65 37 -65q43 0 43 65v431h63v-545zM96 614l45 108h71l-64 -108h-52z" />
    <glyph glyph-name="ucircumflex" unicode="&#xfb;" 
d="M241 0h-59v37q-25 -43 -72 -43q-44 0 -59 25.5t-15 68.5v457h62v-431q0 -65 37 -65q43 0 43 65v431h63v-545zM53 614l46 108h85l42 -108h-60l-24 71l-29 -71h-60z" />
    <glyph glyph-name="udieresis" unicode="&#xfc;" 
d="M241 0h-59v37q-25 -43 -72 -43q-44 0 -59 25.5t-15 68.5v457h62v-431q0 -65 37 -65q43 0 43 65v431h63v-545zM58 627v77h60v-77h-60zM159 627v77h60v-77h-60z" />
    <glyph glyph-name="yacute" unicode="&#xfd;" horiz-adv-x="259" 
d="M241 545l-103 -653h-61l21 108l-80 545h64l44 -385l54 385h61zM87 614l45 108h71l-64 -108h-52z" />
    <glyph glyph-name="thorn" unicode="&#xfe;" 
d="M37 -108v830h62v-205q24 36 67 36q78 0 78 -102v-351q0 -100 -81 -100q-43 0 -64 32v-140h-62zM182 128v298q0 39 -9 55.5t-30 16.5q-44 0 -44 -71v-296q0 -80 44 -80q39 0 39 77z" />
    <glyph glyph-name="ydieresis" unicode="&#xff;" horiz-adv-x="259" 
d="M241 545l-103 -653h-61l21 108l-80 545h64l44 -385l54 385h61zM49 627v77h60v-77h-60zM150 627v77h60v-77h-60z" />
    <glyph glyph-name="Amacron" unicode="&#x100;" horiz-adv-x="332" 
d="M317 0h-66l-28 201h-117l-26 -201h-66l108 722h91zM216 256l-49 416l-54 -416h103zM76 783v46h179v-46h-179z" />
    <glyph glyph-name="amacron" unicode="&#x101;" 
d="M242 0h-59v31q-9 -15 -28.5 -24.5t-39.5 -9.5q-27 0 -44.5 9.5t-24.5 26.5t-9 31.5t-2 34.5v98q0 78 24.5 106t107.5 35l11 1v117q0 46 -35 46q-39 0 -39 -60v-43h-62v54q0 43 25.5 71.5t78.5 28.5q47 0 71.5 -27t24.5 -78v-448zM178 97v191q-47 -4 -64 -21t-17 -50v-101
v-5q0 -20 1 -31.5t9.5 -24t25.5 -12.5q20 0 32.5 15t12.5 39zM49 644v46h179v-46h-179z" />
    <glyph glyph-name="Abreve" unicode="&#x102;" horiz-adv-x="332" 
d="M317 0h-66l-28 201h-117l-26 -201h-66l108 722h91zM216 256l-49 416l-54 -416h103zM74 838v4h35q3 -33 53 -33q53 0 59 33h36v-5q0 -35 -27.5 -54t-63.5 -19q-92 0 -92 74z" />
    <glyph glyph-name="abreve" unicode="&#x103;" 
d="M242 0h-59v31q-9 -15 -28.5 -24.5t-39.5 -9.5q-27 0 -44.5 9.5t-24.5 26.5t-9 31.5t-2 34.5v98q0 78 24.5 106t107.5 35l11 1v117q0 46 -35 46q-39 0 -39 -60v-43h-62v54q0 43 25.5 71.5t78.5 28.5q47 0 71.5 -27t24.5 -78v-448zM178 97v191q-47 -4 -64 -21t-17 -50v-101
v-5q0 -20 1 -31.5t9.5 -24t25.5 -12.5q20 0 32.5 15t12.5 39zM47 699v4h35q3 -33 53 -33q53 0 59 33h36v-5q0 -35 -27.5 -54t-63.5 -19q-92 0 -92 74z" />
    <glyph glyph-name="Aogonek" unicode="&#x104;" horiz-adv-x="332" 
d="M311 -75l6 -24q-32 -9 -56 -9q-65 0 -65 43q0 18 17 35.5t44 29.5h-6l-28 201h-117l-26 -201h-66l108 722h91l104 -722h-19q-52 -34 -52 -61q0 -21 28 -21q16 0 37 7zM216 256l-49 416l-54 -416h103z" />
    <glyph glyph-name="aogonek" unicode="&#x105;" 
d="M236 -75l6 -24q-32 -9 -56 -9q-65 0 -65 43q0 38 62 65v31q-9 -15 -28.5 -24.5t-39.5 -9.5q-27 0 -44.5 9.5t-24.5 26.5t-9 31.5t-2 34.5v98q0 78 24.5 106t107.5 35l11 1v117q0 46 -35 46q-39 0 -39 -60v-43h-62v54q0 43 25.5 71.5t78.5 28.5q47 0 71.5 -27t24.5 -78
v-448h-19q-52 -34 -52 -61q0 -21 28 -21q16 0 37 7zM178 97v191q-47 -4 -64 -21t-17 -50v-101v-5q0 -20 1 -31.5t9.5 -24t25.5 -12.5q20 0 32.5 15t12.5 39z" />
    <glyph glyph-name="Cacute" unicode="&#x106;" 
d="M256 98q0 -47 -25.5 -75.5t-78.5 -28.5q-102 0 -102 102v538q0 40 25.5 67.5t75.5 27.5q54 0 79.5 -29.5t25.5 -76.5v-89h-66v90q0 52 -35 52q-39 0 -39 -57v-526q0 -46 34 -46q40 0 40 50v101h66v-100zM111 753l45 108h71l-64 -108h-52z" />
    <glyph glyph-name="cacute" unicode="&#x107;" horiz-adv-x="259" 
d="M222 88q0 -44 -24.5 -68.5t-67.5 -24.5q-44 0 -68 23t-24 64v368q0 49 25 76t71 27q40 0 64 -21.5t24 -56.5v-101h-60v82q0 46 -29 46q-32 0 -32 -52v-355q0 -15 1 -23.5t8 -18t21 -9.5q30 0 30 54v77h61v-87zM101 614l45 108h71l-64 -108h-52z" />
    <glyph glyph-name="Ccircumflex" unicode="&#x108;" 
d="M256 98q0 -47 -25.5 -75.5t-78.5 -28.5q-102 0 -102 102v538q0 40 25.5 67.5t75.5 27.5q54 0 79.5 -29.5t25.5 -76.5v-89h-66v90q0 52 -35 52q-39 0 -39 -57v-526q0 -46 34 -46q40 0 40 50v101h66v-100zM65 753l46 108h85l42 -108h-60l-24 71l-29 -71h-60z" />
    <glyph glyph-name="ccircumflex" unicode="&#x109;" horiz-adv-x="259" 
d="M222 88q0 -44 -24.5 -68.5t-67.5 -24.5q-44 0 -68 23t-24 64v368q0 49 25 76t71 27q40 0 64 -21.5t24 -56.5v-101h-60v82q0 46 -29 46q-32 0 -32 -52v-355q0 -15 1 -23.5t8 -18t21 -9.5q30 0 30 54v77h61v-87zM45 614l46 108h85l42 -108h-60l-24 71l-29 -71h-60z" />
    <glyph glyph-name="Cdotaccent" unicode="&#x10a;" 
d="M256 98q0 -47 -25.5 -75.5t-78.5 -28.5q-102 0 -102 102v538q0 40 25.5 67.5t75.5 27.5q54 0 79.5 -29.5t25.5 -76.5v-89h-66v90q0 52 -35 52q-39 0 -39 -57v-526q0 -46 34 -46q40 0 40 50v101h66v-100zM118 766v77h62v-77h-62z" />
    <glyph glyph-name="cdotaccent" unicode="&#x10b;" horiz-adv-x="259" 
d="M222 88q0 -44 -24.5 -68.5t-67.5 -24.5q-44 0 -68 23t-24 64v368q0 49 25 76t71 27q40 0 64 -21.5t24 -56.5v-101h-60v82q0 46 -29 46q-32 0 -32 -52v-355q0 -15 1 -23.5t8 -18t21 -9.5q30 0 30 54v77h61v-87zM100 627v77h62v-77h-62z" />
    <glyph glyph-name="Ccaron" unicode="&#x10c;" 
d="M256 98q0 -47 -25.5 -75.5t-78.5 -28.5q-102 0 -102 102v538q0 40 25.5 67.5t75.5 27.5q54 0 79.5 -29.5t25.5 -76.5v-89h-66v90q0 52 -35 52q-39 0 -39 -57v-526q0 -46 34 -46q40 0 40 50v101h66v-100zM108 753l-42 108h58l28 -75l28 75h57l-44 -108h-85z" />
    <glyph glyph-name="ccaron" unicode="&#x10d;" horiz-adv-x="259" 
d="M222 88q0 -44 -24.5 -68.5t-67.5 -24.5q-44 0 -68 23t-24 64v368q0 49 25 76t71 27q40 0 64 -21.5t24 -56.5v-101h-60v82q0 46 -29 46q-32 0 -32 -52v-355q0 -15 1 -23.5t8 -18t21 -9.5q30 0 30 54v77h61v-87zM89 614l-42 108h58l28 -75l28 75h57l-44 -108h-85z" />
    <glyph glyph-name="Dcaron" unicode="&#x10e;" horiz-adv-x="333" 
d="M279 112q0 -64 -32.5 -88t-89.5 -24h-103v722h112q61 0 87 -28.5t26 -88.5v-493zM213 116v492q0 33 -12 45t-46 12h-35v-608h25q40 0 54 12t14 47zM123 753l-42 108h58l28 -75l28 75h57l-44 -108h-85z" />
    <glyph glyph-name="dcaron" unicode="&#x10f;" 
d="M242 0h-59v36q-8 -17 -27 -27.5t-41 -10.5q-38 0 -59.5 27.5t-21.5 76.5v352q0 99 77 99q43 0 68 -39v208h63v-722zM179 106v326q0 66 -44 66q-20 0 -29 -17t-9 -39v-315q0 -76 40 -76q22 0 32 18.5t10 36.5zM271 614l24 108h62l-39 -108h-47z" />
    <glyph glyph-name="Dcroat" unicode="&#x110;" horiz-adv-x="333" 
d="M54 0v347h-32v56h32v319h112q61 0 87 -28.5t26 -88.5v-493q0 -64 -32.5 -88t-89.5 -24h-103zM120 57h25q40 0 54 12t14 47v492q0 33 -12 45t-46 12h-35v-262h40v-56h-40v-290z" />
    <glyph glyph-name="dcroat" unicode="&#x111;" 
d="M34 102v352q0 99 77 99q43 0 68 -39v100h-72v53h72v55h63v-55h30v-53h-30v-614h-59v36q-8 -17 -27 -27.5t-41 -10.5q-38 0 -59.5 27.5t-21.5 76.5zM179 106v326q0 66 -44 66q-20 0 -29 -17t-9 -39v-315q0 -76 40 -76q22 0 32 18.5t10 36.5z" />
    <glyph glyph-name="Emacron" unicode="&#x112;" horiz-adv-x="259" 
d="M228 0h-176v722h175v-57h-109v-262h104v-57h-104v-289h110v-57zM40 783v46h179v-46h-179z" />
    <glyph glyph-name="emacron" unicode="&#x113;" 
d="M242 103q0 -108 -107 -108q-52 0 -75.5 27.5t-23.5 68.5v362q0 48 27.5 74t77.5 26q51 0 76 -29t25 -78v-189h-144v-157q0 -54 41 -54q20 0 30 15.5t11 28.5t1 36v6v44h61v-73zM181 313v127q0 60 -40 60q-43 0 -43 -68v-119h83zM49 644v46h179v-46h-179z" />
    <glyph glyph-name="Ebreve" unicode="&#x114;" horiz-adv-x="259" 
d="M228 0h-176v722h175v-57h-109v-262h104v-57h-104v-289h110v-57zM38 838v4h35q3 -33 53 -33q53 0 59 33h36v-5q0 -35 -27.5 -54t-63.5 -19q-92 0 -92 74z" />
    <glyph glyph-name="ebreve" unicode="&#x115;" 
d="M242 103q0 -108 -107 -108q-52 0 -75.5 27.5t-23.5 68.5v362q0 48 27.5 74t77.5 26q51 0 76 -29t25 -78v-189h-144v-157q0 -54 41 -54q20 0 30 15.5t11 28.5t1 36v6v44h61v-73zM181 313v127q0 60 -40 60q-43 0 -43 -68v-119h83zM47 699v4h35q3 -33 53 -33q53 0 59 33h36
v-5q0 -35 -27.5 -54t-63.5 -19q-92 0 -92 74z" />
    <glyph glyph-name="Edotaccent" unicode="&#x116;" horiz-adv-x="259" 
d="M228 0h-176v722h175v-57h-109v-262h104v-57h-104v-289h110v-57zM98 766v77h62v-77h-62z" />
    <glyph glyph-name="edotaccent" unicode="&#x117;" 
d="M242 103q0 -108 -107 -108q-52 0 -75.5 27.5t-23.5 68.5v362q0 48 27.5 74t77.5 26q51 0 76 -29t25 -78v-189h-144v-157q0 -54 41 -54q20 0 30 15.5t11 28.5t1 36v6v44h61v-73zM181 313v127q0 60 -40 60q-43 0 -43 -68v-119h83zM108 627v77h62v-77h-62z" />
    <glyph glyph-name="Eogonek" unicode="&#x118;" horiz-adv-x="259" 
d="M222 -75l6 -24q-32 -9 -56 -9q-65 0 -65 43q0 18 17 35.5t44 29.5h-116v722h175v-57h-109v-262h104v-57h-104v-289h110v-57h-19q-52 -34 -52 -61q0 -21 28 -21q16 0 37 7z" />
    <glyph glyph-name="eogonek" unicode="&#x119;" 
d="M193 -75l6 -24q-31 -9 -56 -9q-65 0 -65 43q0 35 51 60q-49 2 -71 29.5t-22 66.5v362q0 48 27.5 74t77.5 26q51 0 76 -29t25 -78v-189h-144v-157q0 -54 41 -54q20 0 30 15.5t11 28.5t1 36v6v44h61v-73q0 -78 -58 -100q-56 -37 -56 -64q0 -21 28 -21q16 0 37 7zM181 313
v127q0 60 -40 60q-43 0 -43 -68v-119h83z" />
    <glyph glyph-name="Ecaron" unicode="&#x11a;" horiz-adv-x="259" 
d="M228 0h-176v722h175v-57h-109v-262h104v-57h-104v-289h110v-57zM86 753l-42 108h58l28 -75l28 75h57l-44 -108h-85z" />
    <glyph glyph-name="ecaron" unicode="&#x11b;" 
d="M242 103q0 -108 -107 -108q-52 0 -75.5 27.5t-23.5 68.5v362q0 48 27.5 74t77.5 26q51 0 76 -29t25 -78v-189h-144v-157q0 -54 41 -54q20 0 30 15.5t11 28.5t1 36v6v44h61v-73zM181 313v127q0 60 -40 60q-43 0 -43 -68v-119h83zM95 614l-42 108h58l28 -75l28 75h57
l-44 -108h-85z" />
    <glyph glyph-name="Gcircumflex" unicode="&#x11c;" horiz-adv-x="333" 
d="M282 17q-69 -23 -104 -23q-124 0 -124 118v503q0 56 29.5 85t85.5 29q58 0 85.5 -28.5t27.5 -71.5v-95h-66v72q0 69 -46 69q-50 0 -50 -71v-484q0 -73 58 -73q17 0 38 10v242h-53v55h119v-337zM80 753l46 108h85l42 -108h-60l-24 71l-29 -71h-60z" />
    <glyph glyph-name="gcircumflex" unicode="&#x11d;" 
d="M241 6q0 -115 -102 -115q-46 0 -73.5 22.5t-27.5 60.5v24h63v-8q0 -52 38 -52t38 55v65q-23 -33 -64 -33q-37 0 -57.5 25t-20.5 69v329q0 105 77 105q40 0 71 -44v36h58v-539zM177 150v291q0 56 -44 56q-36 0 -36 -56v-303q0 -58 38 -58q19 0 28.5 12.5t11.5 25t2 32.5z
M52 614l46 108h85l42 -108h-60l-24 71l-29 -71h-60z" />
    <glyph glyph-name="Gbreve" unicode="&#x11e;" horiz-adv-x="333" 
d="M282 17q-69 -23 -104 -23q-124 0 -124 118v503q0 56 29.5 85t85.5 29q58 0 85.5 -28.5t27.5 -71.5v-95h-66v72q0 69 -46 69q-50 0 -50 -71v-484q0 -73 58 -73q17 0 38 10v242h-53v55h119v-337zM75 838v4h35q3 -33 53 -33q53 0 59 33h36v-5q0 -35 -27.5 -54t-63.5 -19
q-92 0 -92 74z" />
    <glyph glyph-name="gbreve" unicode="&#x11f;" 
d="M241 6q0 -115 -102 -115q-46 0 -73.5 22.5t-27.5 60.5v24h63v-8q0 -52 38 -52t38 55v65q-23 -33 -64 -33q-37 0 -57.5 25t-20.5 69v329q0 105 77 105q40 0 71 -44v36h58v-539zM177 150v291q0 56 -44 56q-36 0 -36 -56v-303q0 -58 38 -58q19 0 28.5 12.5t11.5 25t2 32.5z
M47 699v4h35q3 -33 53 -33q53 0 59 33h36v-5q0 -35 -27.5 -54t-63.5 -19q-92 0 -92 74z" />
    <glyph glyph-name="Gdotaccent" unicode="&#x120;" horiz-adv-x="333" 
d="M282 17q-69 -23 -104 -23q-124 0 -124 118v503q0 56 29.5 85t85.5 29q58 0 85.5 -28.5t27.5 -71.5v-95h-66v72q0 69 -46 69q-50 0 -50 -71v-484q0 -73 58 -73q17 0 38 10v242h-53v55h119v-337zM138 766v77h62v-77h-62z" />
    <glyph glyph-name="gdotaccent" unicode="&#x121;" 
d="M241 6q0 -115 -102 -115q-46 0 -73.5 22.5t-27.5 60.5v24h63v-8q0 -52 38 -52t38 55v65q-23 -33 -64 -33q-37 0 -57.5 25t-20.5 69v329q0 105 77 105q40 0 71 -44v36h58v-539zM177 150v291q0 56 -44 56q-36 0 -36 -56v-303q0 -58 38 -58q19 0 28.5 12.5t11.5 25t2 32.5z
M108 627v77h62v-77h-62z" />
    <glyph glyph-name="Gcommaaccent" unicode="&#x122;" horiz-adv-x="333" 
d="M282 17q-69 -23 -104 -23q-124 0 -124 118v503q0 56 29.5 85t85.5 29q58 0 85.5 -28.5t27.5 -71.5v-95h-66v72q0 69 -46 69q-50 0 -50 -71v-484q0 -73 58 -73q17 0 38 10v242h-53v55h119v-337zM121 -136l24 108h62l-39 -108h-47z" />
    <glyph glyph-name="gcommaaccent" unicode="&#x123;" 
d="M241 6q0 -115 -102 -115q-46 0 -73.5 22.5t-27.5 60.5v24h63v-8q0 -52 38 -52t38 55v65q-23 -33 -64 -33q-37 0 -57.5 25t-20.5 69v329q0 105 77 105q40 0 71 -44v36h58v-539zM177 150v291q0 56 -44 56q-36 0 -36 -56v-303q0 -58 38 -58q19 0 28.5 12.5t11.5 25t2 32.5z
M109 614l39 108h47l-24 -108h-62z" />
    <glyph glyph-name="Hcircumflex" unicode="&#x124;" horiz-adv-x="333" 
d="M280 0h-66v346h-96v-346h-66v722h66v-319h96v319h66v-722zM80 753l46 108h85l42 -108h-60l-24 71l-29 -71h-60z" />
    <glyph glyph-name="hcircumflex" unicode="&#x125;" 
d="M242 0h-63v433q0 35 -8.5 50t-28.5 15q-42 0 -42 -65v-433h-63v722h63v-208q27 39 68 39q42 0 58 -26.5t16 -58.5v-468zM52 753l46 108h85l42 -108h-60l-24 71l-29 -71h-60z" />
    <glyph glyph-name="Hbar" unicode="&#x126;" horiz-adv-x="333" 
d="M52 0v722h66v-174h96v174h66v-722h-66v346h-96v-346h-66zM118 403h96v88h-96v-88z" />
    <glyph glyph-name="hbar" unicode="&#x127;" 
d="M37 0v614h-30v53h30v55h63v-55h72v-53h-72v-100q27 39 68 39q42 0 58 -26.5t16 -58.5v-468h-63v433q0 35 -8.5 50t-28.5 15q-42 0 -42 -65v-433h-63z" />
    <glyph glyph-name="Itilde" unicode="&#x128;" horiz-adv-x="168" 
d="M117 0h-66v722h66v-722zM26 772h-33q0 28 15.5 47t42.5 19q13 0 34.5 -9t30.5 -9t16 6.5t7 15.5h35q-2 -28 -17.5 -48.5t-42.5 -20.5q-12 0 -34 9.5t-33 9.5q-15 0 -21 -20z" />
    <glyph glyph-name="itilde" unicode="&#x129;" horiz-adv-x="148" 
d="M43 0v545h62v-545h-62zM16 633h-33q0 28 15.5 47t42.5 19q13 0 34.5 -9t30.5 -9t16 6.5t7 15.5h35q-2 -28 -17.5 -48.5t-42.5 -20.5q-12 0 -34 9.5t-33 9.5q-15 0 -21 -20z" />
    <glyph glyph-name="Imacron" unicode="&#x12a;" horiz-adv-x="168" 
d="M117 0h-66v722h66v-722zM-6 783v46h179v-46h-179z" />
    <glyph glyph-name="imacron" unicode="&#x12b;" horiz-adv-x="148" 
d="M43 0v545h62v-545h-62zM-16 644v46h179v-46h-179z" />
    <glyph glyph-name="Ibreve" unicode="&#x12c;" horiz-adv-x="168" 
d="M117 0h-66v722h66v-722zM-8 838v4h35q3 -33 53 -33q53 0 59 33h36v-5q0 -35 -27.5 -54t-63.5 -19q-92 0 -92 74z" />
    <glyph glyph-name="ibreve" unicode="&#x12d;" horiz-adv-x="148" 
d="M43 0v545h62v-545h-62zM-18 699v4h35q3 -33 53 -33q53 0 59 33h36v-5q0 -35 -27.5 -54t-63.5 -19q-92 0 -92 74z" />
    <glyph glyph-name="Iogonek" unicode="&#x12e;" horiz-adv-x="168" 
d="M117 -75l6 -24q-32 -9 -56 -9q-65 0 -65 43q0 18 17 35.5t44 29.5h-12v722h66v-722h-13q-52 -34 -52 -61q0 -21 28 -21q16 0 37 7z" />
    <glyph glyph-name="iogonek" unicode="&#x12f;" horiz-adv-x="148" 
d="M106 -75l6 -24q-32 -9 -56 -9q-65 0 -65 43q0 18 17 35.5t44 29.5h-9v545h62v-545h-12q-52 -34 -52 -61q0 -21 28 -21q16 0 37 7zM108 648h-68v74h68v-74z" />
    <glyph glyph-name="Idotaccent" unicode="&#x130;" horiz-adv-x="168" 
d="M117 0h-66v722h66v-722zM53 766v77h62v-77h-62z" />
    <glyph glyph-name="dotlessi" unicode="&#x131;" horiz-adv-x="148" 
d="M43 0v545h62v-545h-62z" />
    <glyph glyph-name="Jcircumflex" unicode="&#x134;" 
d="M227 94q0 -42 -25 -71t-78 -29q-103 0 -103 102v102h66v-105q0 -46 35 -46q39 0 39 50v625h66v-628zM108 753l46 108h85l42 -108h-60l-24 71l-29 -71h-60z" />
    <glyph glyph-name="jcircumflex" unicode="&#x135;" horiz-adv-x="148" 
d="M5 -106v50q1 0 3.5 -0.5t4.5 -0.5q30 0 30 46v556h62v-582q0 -35 -21.5 -53t-58.5 -18q-16 0 -20 2zM-12 614l46 108h85l42 -108h-60l-24 71l-29 -71h-60z" />
    <glyph glyph-name="Kcommaaccent" unicode="&#x136;" 
d="M275 0h-65l-92 361v-361h-66v722h66v-310l82 310h66l-95 -330zM104 -136l24 108h62l-39 -108h-47z" />
    <glyph glyph-name="kcommaaccent" unicode="&#x137;" 
d="M267 0h-67l-100 294v-294h-63v722h63v-398l92 221h65l-102 -231zM96 -136l24 108h62l-39 -108h-47z" />
    <glyph glyph-name="kgreenlandic" unicode="&#x138;" 
d="M39 0v545h62v-245h2l93 245h63l-103 -260l111 -285h-66l-98 268h-2v-268h-62z" />
    <glyph glyph-name="Lacute" unicode="&#x139;" horiz-adv-x="259" 
d="M228 0h-174v722h66v-665h108v-57zM61 753l45 108h71l-64 -108h-52z" />
    <glyph glyph-name="lacute" unicode="&#x13a;" horiz-adv-x="148" 
d="M105 0h-62v722h62v-722zM46 753l45 108h71l-64 -108h-52z" />
    <glyph glyph-name="Lcommaaccent" unicode="&#x13b;" horiz-adv-x="259" 
d="M228 0h-174v722h66v-665h108v-57zM84 -136l24 108h62l-39 -108h-47z" />
    <glyph glyph-name="lcommaaccent" unicode="&#x13c;" horiz-adv-x="148" 
d="M105 0h-62v722h62v-722zM19 -136l24 108h62l-39 -108h-47z" />
    <glyph glyph-name="Lcaron" unicode="&#x13d;" horiz-adv-x="259" 
d="M156 614l24 108h66l-39 -108h-51zM228 0h-174v722h66v-665h108v-57z" />
    <glyph glyph-name="lcaron" unicode="&#x13e;" horiz-adv-x="148" 
d="M105 0h-62v722h62v-722zM141 614l24 108h62l-39 -108h-47z" />
    <glyph glyph-name="Ldot" unicode="&#x13f;" horiz-adv-x="259" 
d="M228 0h-174v722h66v-665h108v-57zM166 327v77h62v-77h-62z" />
    <glyph glyph-name="ldot" unicode="&#x140;" horiz-adv-x="248" 
d="M105 0h-62v722h62v-722zM166 327v77h62v-77h-62z" />
    <glyph glyph-name="Lslash" unicode="&#x141;" horiz-adv-x="259" 
d="M54 0v298l-51 -54v66l51 54v358h66v-288l88 94v-66l-88 -94v-311h108v-57h-174z" />
    <glyph glyph-name="lslash" unicode="&#x142;" horiz-adv-x="148" 
d="M43 0v309l-43 -46v76l43 46v337h62v-270l43 47v-76l-43 -47v-376h-62z" />
    <glyph glyph-name="Nacute" unicode="&#x143;" horiz-adv-x="333" 
d="M285 0h-94l-85 641v-641h-57v722h95l83 -616v616h58v-722zM138 753l45 108h71l-64 -108h-52z" />
    <glyph glyph-name="nacute" unicode="&#x144;" 
d="M242 0h-63v433q0 35 -8.5 50t-28.5 15q-42 0 -42 -65v-433h-63v545h59v-37q24 45 72 45q74 0 74 -89v-464zM111 614l45 108h71l-64 -108h-52z" />
    <glyph glyph-name="Ncommaaccent" unicode="&#x145;" horiz-adv-x="333" 
d="M285 0h-94l-85 641v-641h-57v722h95l83 -616v616h58v-722zM121 -136l24 108h62l-39 -108h-47z" />
    <glyph glyph-name="ncommaaccent" unicode="&#x146;" 
d="M242 0h-63v433q0 35 -8.5 50t-28.5 15q-42 0 -42 -65v-433h-63v545h59v-37q24 45 72 45q74 0 74 -89v-464zM86 -136l24 108h62l-39 -108h-47z" />
    <glyph glyph-name="Ncaron" unicode="&#x147;" horiz-adv-x="333" 
d="M285 0h-94l-85 641v-641h-57v722h95l83 -616v616h58v-722zM123 753l-42 108h58l28 -75l28 75h57l-44 -108h-85z" />
    <glyph glyph-name="ncaron" unicode="&#x148;" 
d="M242 0h-63v433q0 35 -8.5 50t-28.5 15q-42 0 -42 -65v-433h-63v545h59v-37q24 45 72 45q74 0 74 -89v-464zM95 614l-42 108h58l28 -75l28 75h57l-44 -108h-85z" />
    <glyph glyph-name="Eng" unicode="&#x14a;" horiz-adv-x="333" 
d="M285 -37q0 -35 -21.5 -53t-58.5 -18q-16 0 -26 2v50q2 -1 14 -1q34 0 34 46v11h-36l-85 641v-641h-57v722h95l83 -616v616h58v-759z" />
    <glyph glyph-name="eng" unicode="&#x14b;" 
d="M161 -108q-16 0 -20 2v50q1 0 3.5 -0.5t4.5 -0.5q30 0 30 46v444q0 35 -8.5 50t-28.5 15q-42 0 -42 -65v-433h-63v545h59v-37q24 45 72 45q74 0 74 -89v-501q0 -35 -22 -53t-59 -18z" />
    <glyph glyph-name="Omacron" unicode="&#x14c;" horiz-adv-x="334" 
d="M282 99q0 -52 -32 -78.5t-83 -26.5q-55 0 -85 31t-30 87v496q0 62 27.5 91.5t87.5 29.5q115 0 115 -123v-507zM216 118v482q0 76 -48 76q-50 0 -50 -72v-492q0 -63 46 -63q52 0 52 69zM77 783v46h179v-46h-179z" />
    <glyph glyph-name="omacron" unicode="&#x14d;" 
d="M242 100q0 -105 -107 -105q-99 0 -99 101v357q0 48 27.5 74t77.5 26q101 0 101 -112v-341zM180 108v332q0 60 -39 60q-43 0 -43 -68v-332q0 -54 41 -54t41 62zM49 644v46h179v-46h-179z" />
    <glyph glyph-name="Obreve" unicode="&#x14e;" horiz-adv-x="334" 
d="M282 99q0 -52 -32 -78.5t-83 -26.5q-55 0 -85 31t-30 87v496q0 62 27.5 91.5t87.5 29.5q115 0 115 -123v-507zM216 118v482q0 76 -48 76q-50 0 -50 -72v-492q0 -63 46 -63q52 0 52 69zM75 838v4h35q3 -33 53 -33q53 0 59 33h36v-5q0 -35 -27.5 -54t-63.5 -19
q-92 0 -92 74z" />
    <glyph glyph-name="obreve" unicode="&#x14f;" 
d="M242 100q0 -105 -107 -105q-99 0 -99 101v357q0 48 27.5 74t77.5 26q101 0 101 -112v-341zM180 108v332q0 60 -39 60q-43 0 -43 -68v-332q0 -54 41 -54t41 62zM47 699v4h35q3 -33 53 -33q53 0 59 33h36v-5q0 -35 -27.5 -54t-63.5 -19q-92 0 -92 74z" />
    <glyph glyph-name="Ohungarumlaut" unicode="&#x150;" horiz-adv-x="334" 
d="M282 99q0 -52 -32 -78.5t-83 -26.5q-55 0 -85 31t-30 87v496q0 62 27.5 91.5t87.5 29.5q115 0 115 -123v-507zM216 118v482q0 76 -48 76q-50 0 -50 -72v-492q0 -63 46 -63q52 0 52 69zM190 753l44 108h70l-70 -108h-44zM90 753l44 108h70l-70 -108h-44z" />
    <glyph glyph-name="ohungarumlaut" unicode="&#x151;" 
d="M242 100q0 -105 -107 -105q-99 0 -99 101v357q0 48 27.5 74t77.5 26q101 0 101 -112v-341zM180 108v332q0 60 -39 60q-43 0 -43 -68v-332q0 -54 41 -54t41 62zM162 614l44 108h70l-70 -108h-44zM62 614l44 108h70l-70 -108h-44z" />
    <glyph glyph-name="OE" unicode="&#x152;" horiz-adv-x="407" 
d="M51 108v497q0 68 35.5 92.5t96.5 24.5h198v-57h-103v-262h98v-57h-98v-289h106v-57h-206q-57 0 -92 22.5t-35 85.5zM177 57h35v608h-33q-33 0 -47.5 -14t-14.5 -47v-491q0 -31 14 -43.5t46 -12.5z" />
    <glyph glyph-name="oe" unicode="&#x153;" horiz-adv-x="402" 
d="M36 101v351q0 44 25.5 72.5t69.5 28.5q51 0 73 -40q22 40 70 40q46 0 69 -32t23 -80v-184h-132v-157q0 -54 33 -54q14 0 22.5 8.5t11.5 26.5t3.5 26.5t0.5 28.5v40h61v-73q0 -48 -25.5 -78t-74.5 -30q-21 0 -39.5 11.5t-24.5 30.5q-20 -42 -69 -42q-97 0 -97 106zM171 96
v355q0 48 -34 48q-38 0 -38 -68v-331q0 -54 37 -54q35 0 35 50zM234 313h71v127q0 59 -40 59q-31 0 -31 -67v-119z" />
    <glyph glyph-name="Racute" unicode="&#x154;" horiz-adv-x="333" 
d="M279 0h-67v307q0 40 -43 40h-50v-347h-66v722h136q85 0 85 -90v-179q0 -38 -16.5 -56.5t-52.5 -21.5q43 0 58.5 -21t15.5 -66v-288zM208 450v169q0 26 -8.5 36t-30.5 10h-50v-261h41q26 0 37 10.5t11 35.5zM118 753l45 108h71l-64 -108h-52z" />
    <glyph glyph-name="racute" unicode="&#x155;" horiz-adv-x="204" 
d="M182 485h-3q-41 0 -59.5 -17.5t-18.5 -57.5v-410h-63v545h60v-42q11 20 33 32t46 12h5v-62zM64 614l45 108h71l-64 -108h-52z" />
    <glyph glyph-name="Rcommaaccent" unicode="&#x156;" horiz-adv-x="333" 
d="M279 0h-67v307q0 40 -43 40h-50v-347h-66v722h136q85 0 85 -90v-179q0 -38 -16.5 -56.5t-52.5 -21.5q43 0 58.5 -21t15.5 -66v-288zM208 450v169q0 26 -8.5 36t-30.5 10h-50v-261h41q26 0 37 10.5t11 35.5zM111 -136l24 108h62l-39 -108h-47z" />
    <glyph glyph-name="rcommaaccent" unicode="&#x157;" horiz-adv-x="204" 
d="M182 485h-3q-41 0 -59.5 -17.5t-18.5 -57.5v-410h-63v545h60v-42q11 20 33 32t46 12h5v-62zM17 -136l24 108h62l-39 -108h-47z" />
    <glyph glyph-name="Rcaron" unicode="&#x158;" horiz-adv-x="333" 
d="M279 0h-67v307q0 40 -43 40h-50v-347h-66v722h136q85 0 85 -90v-179q0 -38 -16.5 -56.5t-52.5 -21.5q43 0 58.5 -21t15.5 -66v-288zM208 450v169q0 26 -8.5 36t-30.5 10h-50v-261h41q26 0 37 10.5t11 35.5zM113 753l-42 108h58l28 -75l28 75h57l-44 -108h-85z" />
    <glyph glyph-name="rcaron" unicode="&#x159;" horiz-adv-x="204" 
d="M182 485h-3q-41 0 -59.5 -17.5t-18.5 -57.5v-410h-63v545h60v-42q11 20 33 32t46 12h5v-62zM58 614l-42 108h58l28 -75l28 75h57l-44 -108h-85z" />
    <glyph glyph-name="Sacute" unicode="&#x15a;" 
d="M247 101q0 -46 -27 -76.5t-82 -30.5q-52 0 -79 27t-27 69v110h66v-95q0 -56 41 -56q42 0 42 57v92q0 43 -19 77l-97 169q-28 48 -28 102v77q0 106 106 106q58 0 80 -27.5t22 -75.5v-90h-66v91q0 49 -36 49q-40 0 -40 -51v-67q0 -32 3.5 -47t18.5 -40l98 -168
q24 -41 24 -97v-105zM111 753l45 108h71l-64 -108h-52z" />
    <glyph glyph-name="sacute" unicode="&#x15b;" horiz-adv-x="259" 
d="M222 88q0 -44 -24 -68.5t-68 -24.5t-68 23t-24 64v94h63v-81q0 -15 1 -23.5t8 -18t21 -9.5q30 0 30 54v64q0 26 -23 57l-71 97q-11 16 -16 23.5t-9 20.5t-4 29v61q0 49 25 76t72 27q39 0 63 -21.5t24 -56.5v-90h-60v71q0 46 -30 46q-31 0 -31 -52v-38q0 -16 4.5 -29.5
t9 -20t17.5 -25.5l69 -97q14 -19 17.5 -30.5t3.5 -34.5v-87zM101 614l45 108h71l-64 -108h-52z" />
    <glyph glyph-name="Scircumflex" unicode="&#x15c;" 
d="M247 101q0 -46 -27 -76.5t-82 -30.5q-52 0 -79 27t-27 69v110h66v-95q0 -56 41 -56q42 0 42 57v92q0 43 -19 77l-97 169q-28 48 -28 102v77q0 106 106 106q58 0 80 -27.5t22 -75.5v-90h-66v91q0 49 -36 49q-40 0 -40 -51v-67q0 -32 3.5 -47t18.5 -40l98 -168
q24 -41 24 -97v-105zM52 753l46 108h85l42 -108h-60l-24 71l-29 -71h-60z" />
    <glyph glyph-name="scircumflex" unicode="&#x15d;" horiz-adv-x="259" 
d="M222 88q0 -44 -24 -68.5t-68 -24.5t-68 23t-24 64v94h63v-81q0 -15 1 -23.5t8 -18t21 -9.5q30 0 30 54v64q0 26 -23 57l-71 97q-11 16 -16 23.5t-9 20.5t-4 29v61q0 49 25 76t72 27q39 0 63 -21.5t24 -56.5v-90h-60v71q0 46 -30 46q-31 0 -31 -52v-38q0 -16 4.5 -29.5
t9 -20t17.5 -25.5l69 -97q14 -19 17.5 -30.5t3.5 -34.5v-87zM43 614l46 108h85l42 -108h-60l-24 71l-29 -71h-60z" />
    <glyph glyph-name="Scedilla" unicode="&#x15e;" 
d="M82 -104l10 24q15 -7 31 -7q27 0 27 19q0 18 -28 18q-6 0 -16 -2l-10 7l29 40q-45 4 -69 30t-24 65v110h66v-95q0 -56 41 -56q42 0 42 57v92q0 43 -19 77l-97 169q-28 48 -28 102v77q0 106 106 106q58 0 80 -27.5t22 -75.5v-90h-66v91q0 49 -36 49q-40 0 -40 -51v-67
q0 -32 3.5 -47t18.5 -40l98 -168q24 -41 24 -97v-105q0 -43 -23.5 -72.5t-71.5 -33.5l-18 -26q12 2 20 2q17 0 29.5 -10.5t12.5 -27.5q0 -46 -62 -46q-24 0 -52 9z" />
    <glyph glyph-name="scedilla" unicode="&#x15f;" horiz-adv-x="259" 
d="M222 88q0 -44 -24 -68.5t-68 -24.5t-68 23t-24 64v94h63v-81q0 -15 1 -23.5t8 -18t21 -9.5q30 0 30 54v64q0 26 -23 57l-71 97q-11 16 -16 23.5t-9 20.5t-4 29v61q0 49 25 76t72 27q39 0 63 -21.5t24 -56.5v-90h-60v71q0 46 -30 46q-31 0 -31 -52v-38q0 -16 4.5 -29.5
t9 -20t17.5 -25.5l69 -97q14 -19 17.5 -30.5t3.5 -34.5v-87zM72 -104l10 24q15 -7 31 -7q27 0 27 19q0 18 -28 18q-6 0 -16 -2l-10 7l34 46h27l-23 -32q12 2 20 2q17 0 29.5 -10.5t12.5 -27.5q0 -46 -62 -46q-24 0 -52 9z" />
    <glyph glyph-name="Scaron" unicode="&#x160;" 
d="M247 101q0 -46 -27 -76.5t-82 -30.5q-52 0 -79 27t-27 69v110h66v-95q0 -56 41 -56q42 0 42 57v92q0 43 -19 77l-97 169q-28 48 -28 102v77q0 106 106 106q58 0 80 -27.5t22 -75.5v-90h-66v91q0 49 -36 49q-40 0 -40 -51v-67q0 -32 3.5 -47t18.5 -40l98 -168
q24 -41 24 -97v-105zM93 753l-42 108h58l28 -75l28 75h57l-44 -108h-85z" />
    <glyph glyph-name="scaron" unicode="&#x161;" horiz-adv-x="259" 
d="M222 88q0 -44 -24 -68.5t-68 -24.5t-68 23t-24 64v94h63v-81q0 -15 1 -23.5t8 -18t21 -9.5q30 0 30 54v64q0 26 -23 57l-71 97q-11 16 -16 23.5t-9 20.5t-4 29v61q0 49 25 76t72 27q39 0 63 -21.5t24 -56.5v-90h-60v71q0 46 -30 46q-31 0 -31 -52v-38q0 -16 4.5 -29.5
t9 -20t17.5 -25.5l69 -97q14 -19 17.5 -30.5t3.5 -34.5v-87zM87 614l-42 108h58l28 -75l28 75h57l-44 -108h-85z" />
    <glyph glyph-name="Tcommaaccent" unicode="&#x162;" horiz-adv-x="260" 
d="M237 665h-75v-665h-66v665h-74v57h215v-57zM75 -136l24 108h62l-39 -108h-47z" />
    <glyph glyph-name="tcommaaccent" unicode="&#x163;" horiz-adv-x="167" 
d="M150 1q-11 -1 -24 -1q-43 0 -62 17t-19 55v420h-30v53h30v73l63 24v-97h42v-53h-42v-411q0 -29 32 -29q7 0 10 1v-52zM40 -136l24 108h62l-39 -108h-47z" />
    <glyph glyph-name="Tcaron" unicode="&#x164;" horiz-adv-x="260" 
d="M237 665h-75v-665h-66v665h-74v57h215v-57zM86 753l-42 108h58l28 -75l28 75h57l-44 -108h-85z" />
    <glyph glyph-name="tcaron" unicode="&#x165;" horiz-adv-x="167" 
d="M150 1q-11 -1 -24 -1q-43 0 -62 17t-19 55v420h-30v53h30v73l63 24v-97h42v-53h-42v-411q0 -29 32 -29q7 0 10 1v-52zM158 614l24 108h62l-39 -108h-47z" />
    <glyph glyph-name="Tbar" unicode="&#x166;" horiz-adv-x="260" 
d="M96 0v346h-54v57h54v262h-74v57h215v-57h-75v-262h55v-57h-55v-346h-66z" />
    <glyph glyph-name="tbar" unicode="&#x167;" horiz-adv-x="167" 
d="M45 72v280h-30v53h30v87h-30v53h30v73l63 24v-97h42v-53h-42v-87h42v-53h-42v-271q0 -29 32 -29q7 0 10 1v-52q-11 -1 -24 -1q-43 0 -62 17t-19 55z" />
    <glyph glyph-name="Utilde" unicode="&#x168;" horiz-adv-x="334" 
d="M282 109q0 -115 -115 -115q-55 0 -85 31t-30 87v610h66v-610q0 -63 46 -63q52 0 52 69v604h66v-613zM109 772h-33q0 28 15.5 47t42.5 19q13 0 34.5 -9t30.5 -9t16 6.5t7 15.5h35q-2 -28 -17.5 -48.5t-42.5 -20.5q-12 0 -34 9.5t-33 9.5q-15 0 -21 -20z" />
    <glyph glyph-name="utilde" unicode="&#x169;" 
d="M241 0h-59v37q-25 -43 -72 -43q-44 0 -59 25.5t-15 68.5v457h62v-431q0 -65 37 -65q43 0 43 65v431h63v-545zM81 633h-33q0 28 15.5 47t42.5 19q13 0 34.5 -9t30.5 -9t16 6.5t7 15.5h35q-2 -28 -17.5 -48.5t-42.5 -20.5q-12 0 -34 9.5t-33 9.5q-15 0 -21 -20z" />
    <glyph glyph-name="Umacron" unicode="&#x16a;" horiz-adv-x="334" 
d="M282 109q0 -115 -115 -115q-55 0 -85 31t-30 87v610h66v-610q0 -63 46 -63q52 0 52 69v604h66v-613zM77 783v46h179v-46h-179z" />
    <glyph glyph-name="umacron" unicode="&#x16b;" 
d="M241 0h-59v37q-25 -43 -72 -43q-44 0 -59 25.5t-15 68.5v457h62v-431q0 -65 37 -65q43 0 43 65v431h63v-545zM49 644v46h179v-46h-179z" />
    <glyph glyph-name="Ubreve" unicode="&#x16c;" horiz-adv-x="334" 
d="M282 109q0 -115 -115 -115q-55 0 -85 31t-30 87v610h66v-610q0 -63 46 -63q52 0 52 69v604h66v-613zM75 838v4h35q3 -33 53 -33q53 0 59 33h36v-5q0 -35 -27.5 -54t-63.5 -19q-92 0 -92 74z" />
    <glyph glyph-name="ubreve" unicode="&#x16d;" 
d="M241 0h-59v37q-25 -43 -72 -43q-44 0 -59 25.5t-15 68.5v457h62v-431q0 -65 37 -65q43 0 43 65v431h63v-545zM47 699v4h35q3 -33 53 -33q53 0 59 33h36v-5q0 -35 -27.5 -54t-63.5 -19q-92 0 -92 74z" />
    <glyph glyph-name="Uring" unicode="&#x16e;" horiz-adv-x="334" 
d="M282 109q0 -115 -115 -115q-55 0 -85 31t-30 87v610h66v-610q0 -63 46 -63q52 0 52 69v604h66v-613zM167 735q-28 0 -47.5 20t-19.5 47q0 28 19.5 47.5t47.5 19.5t47.5 -19.5t19.5 -47.5q0 -27 -19.5 -47t-47.5 -20zM167 770q13 0 22.5 9.5t9.5 22.5q0 14 -9.5 23.5
t-22.5 9.5t-22.5 -9.5t-9.5 -23.5q0 -13 9.5 -22.5t22.5 -9.5z" />
    <glyph glyph-name="uring" unicode="&#x16f;" 
d="M241 0h-59v37q-25 -43 -72 -43q-44 0 -59 25.5t-15 68.5v457h62v-431q0 -65 37 -65q43 0 43 65v431h63v-545zM139 596q-28 0 -47.5 20t-19.5 47q0 28 19.5 47.5t47.5 19.5t47.5 -19.5t19.5 -47.5q0 -27 -19.5 -47t-47.5 -20zM139 631q13 0 22.5 9.5t9.5 22.5
q0 14 -9.5 23.5t-22.5 9.5t-22.5 -9.5t-9.5 -23.5q0 -13 9.5 -22.5t22.5 -9.5z" />
    <glyph glyph-name="Uhungarumlaut" unicode="&#x170;" horiz-adv-x="334" 
d="M282 109q0 -115 -115 -115q-55 0 -85 31t-30 87v610h66v-610q0 -63 46 -63q52 0 52 69v604h66v-613zM190 753l44 108h70l-70 -108h-44zM90 753l44 108h70l-70 -108h-44z" />
    <glyph glyph-name="uhungarumlaut" unicode="&#x171;" 
d="M241 0h-59v37q-25 -43 -72 -43q-44 0 -59 25.5t-15 68.5v457h62v-431q0 -65 37 -65q43 0 43 65v431h63v-545zM162 614l44 108h70l-70 -108h-44zM62 614l44 108h70l-70 -108h-44z" />
    <glyph glyph-name="Uogonek" unicode="&#x172;" horiz-adv-x="334" 
d="M222 -75l6 -24q-32 -9 -56 -9q-65 0 -65 43q0 34 49 59q-50 3 -77 33.5t-27 84.5v610h66v-610q0 -63 46 -63q52 0 52 69v604h66v-613q0 -93 -76 -111q-49 -33 -49 -59q0 -21 28 -21q16 0 37 7z" />
    <glyph glyph-name="uogonek" unicode="&#x173;" 
d="M235 -75l6 -24q-32 -9 -56 -9q-65 0 -65 43q0 38 62 65v37q-25 -43 -72 -43q-44 0 -59 25.5t-15 68.5v457h62v-431q0 -65 37 -65q43 0 43 65v431h63v-545h-19q-52 -34 -52 -61q0 -21 28 -21q16 0 37 7z" />
    <glyph glyph-name="Wcircumflex" unicode="&#x174;" horiz-adv-x="444" 
d="M433 722l-73 -722h-87l-51 641l-50 -641h-86l-74 722h66l53 -647l51 647h83l54 -647l51 647h63zM135 753l46 108h85l42 -108h-60l-24 71l-29 -71h-60z" />
    <glyph glyph-name="wcircumflex" unicode="&#x175;" horiz-adv-x="406" 
d="M392 545l-57 -545h-91l-40 495l-43 -495h-88l-60 545h58l48 -485l42 485h88l39 -485l48 485h56zM116 614l46 108h85l42 -108h-60l-24 71l-29 -71h-60z" />
    <glyph glyph-name="Ycircumflex" unicode="&#x176;" 
d="M270 722l-98 -408v-314h-66l-1 314l-96 408h70l63 -328l64 328h64zM56 753l46 108h85l42 -108h-60l-24 71l-29 -71h-60z" />
    <glyph glyph-name="ycircumflex" unicode="&#x177;" horiz-adv-x="259" 
d="M241 545l-103 -653h-61l21 108l-80 545h64l44 -385l54 385h61zM43 614l46 108h85l42 -108h-60l-24 71l-29 -71h-60z" />
    <glyph glyph-name="Ydieresis" unicode="&#x178;" 
d="M270 722l-98 -408v-314h-66l-1 314l-96 408h70l63 -328l64 328h64zM61 766v77h60v-77h-60zM162 766v77h60v-77h-60z" />
    <glyph glyph-name="Zacute" unicode="&#x179;" horiz-adv-x="259" 
d="M235 665l-146 -608h145v-57h-209v68l146 597h-139v57h203v-57zM101 753l45 108h71l-64 -108h-52z" />
    <glyph glyph-name="zacute" unicode="&#x17a;" horiz-adv-x="204" 
d="M185 0h-166v72l103 420h-98v53h160v-54l-108 -438h109v-53zM74 614l45 108h71l-64 -108h-52z" />
    <glyph glyph-name="Zdotaccent" unicode="&#x17b;" horiz-adv-x="259" 
d="M235 665l-146 -608h145v-57h-209v68l146 597h-139v57h203v-57zM98 766v77h62v-77h-62z" />
    <glyph glyph-name="zdotaccent" unicode="&#x17c;" horiz-adv-x="204" 
d="M185 0h-166v72l103 420h-98v53h160v-54l-108 -438h109v-53zM71 627v77h62v-77h-62z" />
    <glyph glyph-name="Zcaron" unicode="&#x17d;" horiz-adv-x="259" 
d="M235 665l-146 -608h145v-57h-209v68l146 597h-139v57h203v-57zM84 753l-42 108h58l28 -75l28 75h57l-44 -108h-85z" />
    <glyph glyph-name="zcaron" unicode="&#x17e;" horiz-adv-x="204" 
d="M185 0h-166v72l103 420h-98v53h160v-54l-108 -438h109v-53zM59 614l-42 108h58l28 -75l28 75h57l-44 -108h-85z" />
    <glyph glyph-name="florin" unicode="&#x192;" horiz-adv-x="276" 
d="M220 674q-1 0 -5.5 0.5t-6.5 0.5q-19 0 -27 -8.5t-10 -29.5l-8 -137h48l-4 -50h-46l-20 -474q-2 -47 -20.5 -66.5t-60.5 -19.5q-7 0 -25 2v50q4 -1 9 -1q19 0 28 12q8 10 9 45l18 452h-46l4 50h45l7 137q4 92 79 92q18 0 32 -3v-52z" />
    <glyph glyph-name="Aringacute" unicode="&#x1fa;" horiz-adv-x="332" 
d="M14 0l105 707q-20 20 -20 48t19.5 47.5t47.5 19.5t47.5 -19.5t19.5 -47.5q0 -26 -18 -46l102 -709h-66l-28 201h-117l-26 -201h-66zM113 256h103l-49 416zM138 833l45 108h71l-64 -108h-52zM166 723q13 0 22.5 9.5t9.5 22.5q0 14 -9.5 23.5t-22.5 9.5t-22.5 -9.5
t-9.5 -23.5q0 -13 9.5 -22.5t22.5 -9.5z" />
    <glyph glyph-name="aringacute" unicode="&#x1fb;" 
d="M242 0h-59v31q-9 -15 -28.5 -24.5t-39.5 -9.5q-27 0 -44.5 9.5t-24.5 26.5t-9 31.5t-2 34.5v98q0 78 24.5 106t107.5 35l11 1v117q0 46 -35 46q-39 0 -39 -60v-43h-62v54q0 43 25.5 71.5t78.5 28.5q47 0 71.5 -27t24.5 -78v-448zM178 97v191q-47 -4 -64 -21t-17 -50v-101
v-5q0 -20 1 -31.5t9.5 -24t25.5 -12.5q20 0 32.5 15t12.5 39zM139 566q-28 0 -47.5 20t-19.5 47q0 28 19.5 47.5t47.5 19.5t47.5 -19.5t19.5 -47.5q0 -27 -19.5 -47t-47.5 -20zM139 601q13 0 22.5 9.5t9.5 22.5q0 14 -9.5 23.5t-22.5 9.5t-22.5 -9.5t-9.5 -23.5
q0 -13 9.5 -22.5t22.5 -9.5zM111 724l45 108h71l-64 -108h-52z" />
    <glyph glyph-name="AEacute" unicode="&#x1fc;" horiz-adv-x="407" 
d="M13 0l126 722h245v-57h-128l17 -263h105v-56h-100l21 -289h86v-57h-149l-14 201h-111l-35 -201h-63zM120 256h100l-29 418zM205 753l45 108h71l-64 -108h-52z" />
    <glyph glyph-name="aeacute" unicode="&#x1fd;" horiz-adv-x="402" 
d="M35 96v107q0 111 112 111h22v146q0 40 -34 40t-34 -43v-69h-62v63q0 102 89 102q48 0 75 -39q31 39 76 39q44 0 65.5 -27t21.5 -72v-196h-134v-170q0 -17 8.5 -29.5t25.5 -12.5q18 0 28 12.5t10 30.5v87h62v-85q0 -45 -23 -70.5t-69 -25.5q-55 0 -74 43q-13 -43 -74 -43
q-91 0 -91 101zM232 314h72v143q0 44 -34 44q-19 0 -28.5 -13.5t-9.5 -33.5v-140zM169 94v164h-18q-26 0 -39.5 -15t-13.5 -40v-107q0 -52 34 -52q37 0 37 50zM172 614l45 108h71l-64 -108h-52z" />
    <glyph glyph-name="Oslashacute" unicode="&#x1fe;" horiz-adv-x="334" 
d="M124 753l45 108h71l-64 -108h-52zM45 -32l21 79q-14 26 -14 65v496q0 62 27.5 91.5t87.5 29.5q45 0 73 -19l12 45l33 -7l-18 -69q15 -29 15 -73v-507q0 -52 -32 -78.5t-83 -26.5q-47 0 -75 22l-15 -56zM118 114v-2q0 -63 46 -63q52 0 52 69v368zM118 245l97 371
q-4 60 -47 60q-50 0 -50 -72v-359z" />
    <glyph glyph-name="oslashacute" unicode="&#x1ff;" 
d="M96 614l45 108h71l-64 -108h-52zM23 -28l23 69q-10 23 -10 55v357q0 48 27.5 74t77.5 26q44 0 71 -24l17 51l24 -7l-23 -69q12 -26 12 -63v-341q0 -105 -107 -105q-46 0 -71 22l-17 -52zM98 116v-16q0 -54 41 -54t41 62v250zM98 193l82 242v5q0 60 -39 60q-43 0 -43 -68
v-239z" />
    <glyph glyph-name="Scommaaccent" unicode="&#x218;" 
d="M247 101q0 -46 -27 -76.5t-82 -30.5q-52 0 -79 27t-27 69v110h66v-95q0 -56 41 -56q42 0 42 57v92q0 43 -19 77l-97 169q-28 48 -28 102v77q0 106 106 106q58 0 80 -27.5t22 -75.5v-90h-66v91q0 49 -36 49q-40 0 -40 -51v-67q0 -32 3.5 -47t18.5 -40l98 -168
q24 -41 24 -97v-105zM85 -136l24 108h62l-39 -108h-47z" />
    <glyph glyph-name="scommaaccent" unicode="&#x219;" horiz-adv-x="259" 
d="M222 88q0 -44 -24 -68.5t-68 -24.5t-68 23t-24 64v94h63v-81q0 -15 1 -23.5t8 -18t21 -9.5q30 0 30 54v64q0 26 -23 57l-71 97q-11 16 -16 23.5t-9 20.5t-4 29v61q0 49 25 76t72 27q39 0 63 -21.5t24 -56.5v-90h-60v71q0 46 -30 46q-31 0 -31 -52v-38q0 -16 4.5 -29.5
t9 -20t17.5 -25.5l69 -97q14 -19 17.5 -30.5t3.5 -34.5v-87zM76 -136l24 108h62l-39 -108h-47z" />
    <glyph glyph-name="uni021A" unicode="&#x21a;" horiz-adv-x="260" 
d="M237 665h-75v-665h-66v665h-74v57h215v-57zM75 -136l24 108h62l-39 -108h-47z" />
    <glyph glyph-name="uni021B" unicode="&#x21b;" horiz-adv-x="167" 
d="M150 1q-11 -1 -24 -1q-43 0 -62 17t-19 55v420h-30v53h30v73l63 24v-97h42v-53h-42v-411q0 -29 32 -29q7 0 10 1v-52zM40 -136l24 108h62l-39 -108h-47z" />
    <glyph glyph-name="dotlessj" unicode="&#x237;" horiz-adv-x="148" 
d="M5 -106v50q1 0 3.5 -0.5t4.5 -0.5q30 0 30 46v556h62v-582q0 -35 -21.5 -53t-58.5 -18q-16 0 -20 2z" />
    <glyph glyph-name="circumflex" unicode="&#x2c6;" horiz-adv-x="148" 
d="M-12 614l46 108h85l42 -108h-60l-24 71l-29 -71h-60z" />
    <glyph glyph-name="caron" unicode="&#x2c7;" horiz-adv-x="148" 
d="M31 614l-42 108h58l28 -75l28 75h57l-44 -108h-85z" />
    <glyph glyph-name="uni02C9" unicode="&#x2c9;" horiz-adv-x="148" 
d="M-16 644v46h179v-46h-179z" />
    <glyph glyph-name="breve" unicode="&#x2d8;" horiz-adv-x="148" 
d="M-18 699v4h35q3 -33 53 -33q53 0 59 33h36v-5q0 -35 -27.5 -54t-63.5 -19q-92 0 -92 74z" />
    <glyph glyph-name="dotaccent" unicode="&#x2d9;" horiz-adv-x="148" 
d="M43 627v77h62v-77h-62z" />
    <glyph glyph-name="ring" unicode="&#x2da;" horiz-adv-x="148" 
d="M74 596q-28 0 -47.5 20t-19.5 47q0 28 19.5 47.5t47.5 19.5t47.5 -19.5t19.5 -47.5q0 -27 -19.5 -47t-47.5 -20zM74 631q13 0 22.5 9.5t9.5 22.5q0 14 -9.5 23.5t-22.5 9.5t-22.5 -9.5t-9.5 -23.5q0 -13 9.5 -22.5t22.5 -9.5z" />
    <glyph glyph-name="ogonek" unicode="&#x2db;" horiz-adv-x="148" 
d="M122 -75l6 -24q-32 -9 -56 -9q-65 0 -65 43q0 20 20.5 39t51.5 30h36q-58 -37 -58 -65q0 -21 28 -21q16 0 37 7z" />
    <glyph glyph-name="tilde" unicode="&#x2dc;" horiz-adv-x="148" 
d="M16 633h-33q0 28 15.5 47t42.5 19q13 0 34.5 -9t30.5 -9t16 6.5t7 15.5h35q-2 -28 -17.5 -48.5t-42.5 -20.5q-12 0 -34 9.5t-33 9.5q-15 0 -21 -20z" />
    <glyph glyph-name="hungarumlaut" unicode="&#x2dd;" horiz-adv-x="148" 
d="M83 614l44 108h70l-70 -108h-44zM-17 614l44 108h70l-70 -108h-44z" />
    <glyph glyph-name="uni0394" unicode="&#x394;" horiz-adv-x="560" 
d="M549 0h-538l228 722h78zM461 57l-184 605l-182 -605h366z" />
    <glyph glyph-name="uni03A9" unicode="&#x3a9;" horiz-adv-x="349" 
d="M40 0v50h63v67q-13 7 -22.5 16.5t-15 24.5t-9 24.5t-5 31.5t-2 29.5t0 34.5t0.5 31v237q0 36 1.5 56.5t8 47.5t19 41.5t36.5 25t59 10.5t59.5 -10.5t37 -25t19 -41.5t8 -47.5t1.5 -56.5v-237q0 -4 0.5 -30.5t0 -34l-2 -30t-5 -32t-9 -24.5t-15 -24.5t-22.5 -16.5v-67h63
v-50h-113v156q17 5 27.5 24.5t10.5 39.5v354q0 48 -11 74.5t-48 26.5q-22 0 -35 -9.5t-18 -30t-6 -35t-1 -42.5v-11v-327q0 -20 10.5 -39.5t27.5 -24.5v-156h-113z" />
    <glyph glyph-name="uni03BC" unicode="&#x3bc;" 
d="M241 0h-59v37q-25 -43 -72 -43q-8 0 -12 1v-103h-62v653h62v-431q0 -65 37 -65q43 0 43 65v431h63v-545z" />
    <glyph glyph-name="pi" unicode="&#x3c0;" horiz-adv-x="387" 
d="M366 10q-34 -16 -61 -16q-22 0 -37.5 7t-23.5 16t-12 26.5t-4.5 30t-0.5 35.5v348h-96v-457h-59v457h-50v48h320v-48h-56v-356q0 -18 1.5 -28t10.5 -18.5t26 -8.5q20 0 42 10v-46z" />
    <glyph glyph-name="uni0400" unicode="&#x400;" horiz-adv-x="259" 
d="M52 0v722h175v-57h-109v-262h104v-57h-104v-289h110v-57h-176zM127 753l-62 108h70l43 -108h-51z" />
    <glyph glyph-name="afii10023" unicode="&#x401;" horiz-adv-x="259" 
d="M52 0v722h175v-57h-109v-262h104v-57h-104v-289h110v-57h-176zM60 766v77h60v-77h-60zM161 766v77h60v-77h-60z" />
    <glyph glyph-name="afii10051" unicode="&#x402;" horiz-adv-x="360" 
d="M95 0v665h-73v57h214v-57h-75v-230q31 12 56 12q51 0 77 -26.5t26 -73.5v-241q0 -109 -92 -109q-13 0 -25 2v53q3 -1 11 -1q23 0 31.5 13.5t8.5 49.5v230q0 25 -10 35.5t-37 10.5q-16 0 -46 -10v-380h-66z" />
    <glyph glyph-name="afii10052" unicode="&#x403;" horiz-adv-x="241" 
d="M56 0v722h169v-57h-103v-665h-66zM92 753l45 108h71l-64 -108h-52z" />
    <glyph glyph-name="afii10053" unicode="&#x404;" 
d="M153 -6q-51 0 -77 26.5t-26 73.5v534q0 47 26 73.5t77 26.5t77 -26.5t26 -73.5v-95h-66v93q0 46 -37 46t-37 -46v-223h94v-57h-94v-250q0 -46 37 -46t37 46v101h66v-103q0 -47 -26 -73.5t-77 -26.5z" />
    <glyph glyph-name="afii10054" unicode="&#x405;" 
d="M138 -6q-52 0 -79 27t-27 69v110h66v-95q0 -56 41 -56q42 0 42 57v92q0 43 -19 77l-97 169q-28 48 -28 102v77q0 106 106 106q58 0 80 -27.5t22 -75.5v-90h-66v91q0 49 -36 49q-40 0 -40 -51v-67q0 -32 3.5 -47t18.5 -40l98 -168q24 -41 24 -97v-105q0 -46 -27 -76.5
t-82 -30.5z" />
    <glyph glyph-name="afii10055" unicode="&#x406;" horiz-adv-x="168" 
d="M51 0v722h66v-722h-66z" />
    <glyph glyph-name="afii10056" unicode="&#x407;" horiz-adv-x="168" 
d="M51 0v722h66v-722h-66zM3 766v77h60v-77h-60zM104 766v77h60v-77h-60z" />
    <glyph glyph-name="afii10057" unicode="&#x408;" 
d="M124 -6q-103 0 -103 102v102h66v-105q0 -46 35 -46q39 0 39 50v625h66v-628q0 -42 -25 -71t-78 -29z" />
    <glyph glyph-name="afii10058" unicode="&#x409;" horiz-adv-x="464" 
d="M32 -2q-16 0 -26 2v54q1 0 6.5 -0.5t7.5 -0.5q11 0 18.5 3t17 18.5t15.5 44t10 82.5t4 130v391h207v-319h39q63 0 86.5 -24t23.5 -86v-183q0 -62 -23.5 -86t-86.5 -24h-105v665h-79v-357q0 -96 -8 -159.5t-24.5 -95t-35.5 -43.5t-47 -12zM292 57h32q25 0 38 9.5t13 35.5
v199q0 26 -13 35.5t-38 9.5h-32v-289z" />
    <glyph glyph-name="afii10059" unicode="&#x40a;" horiz-adv-x="454" 
d="M52 0v722h66v-319h96v319h66v-319h39q63 0 86.5 -24t23.5 -86v-183q0 -62 -23.5 -86t-86.5 -24h-105v346h-96v-346h-66zM280 57h32q25 0 38 9.5t13 35.5v199q0 26 -13 35.5t-38 9.5h-32v-289z" />
    <glyph glyph-name="afii10060" unicode="&#x40b;" horiz-adv-x="360" 
d="M95 0v665h-73v57h214v-57h-75v-230q31 12 56 12q51 0 77 -26.5t26 -73.5v-347h-66v344q0 25 -10 35.5t-37 10.5q-16 0 -46 -10v-380h-66z" />
    <glyph glyph-name="afii10061" unicode="&#x40c;" 
d="M52 0v722h66v-310l82 310h66l-95 -330l104 -392h-65l-92 361v-361h-66zM121 753l45 108h71l-64 -108h-52z" />
    <glyph glyph-name="uni040D" unicode="&#x40d;" horiz-adv-x="347" 
d="M53 0v722h64v-291q0 -61 -6 -247h2l111 538h70v-722h-64v299q0 129 6 263h-2l-111 -562h-70zM159 753l-62 108h70l43 -108h-51z" />
    <glyph glyph-name="afii10062" unicode="&#x40e;" 
d="M60 0l43 180l-96 542h66l61 -402h2l72 402h63l-146 -722h-65zM140 761q-91 0 -91 81h34q0 -13 16.5 -25t40.5 -12t40.5 12t16.5 25h34q0 -81 -91 -81z" />
    <glyph glyph-name="afii10145" unicode="&#x40f;" horiz-adv-x="333" 
d="M136 -108v108h-85v722h66v-665h99v665h66v-722h-84v-108h-62z" />
    <glyph glyph-name="afii10017" unicode="&#x410;" horiz-adv-x="332" 
d="M14 0l108 722h91l104 -722h-66l-28 201h-117l-26 -201h-66zM113 256h103l-49 416z" />
    <glyph glyph-name="afii10018" unicode="&#x411;" horiz-adv-x="303" 
d="M51 0v722h199v-57h-133v-251h71q41 0 66 -24t25 -70v-237q0 -45 -26.5 -64t-78.5 -19h-123zM117 57h40q29 0 42.5 10t13.5 39v207q0 44 -52 44h-44v-300z" />
    <glyph glyph-name="afii10019" unicode="&#x412;" horiz-adv-x="333" 
d="M54 0v722h141q83 0 83 -94v-172q0 -41 -16 -59t-56 -20q47 -8 61 -22.5t14 -54.5v-203q0 -60 -31.5 -78.5t-94.5 -18.5h-101zM119 57h40q30 0 43 10t13 39v193q0 19 -6 33q-9 18 -69 18h-21v-293zM119 403h31q37 0 49.5 10.5t12.5 41.5v154q0 32 -12.5 44t-45.5 12h-35
v-262z" />
    <glyph glyph-name="afii10020" unicode="&#x413;" horiz-adv-x="241" 
d="M56 0v722h169v-57h-103v-665h-66z" />
    <glyph glyph-name="afii10021" unicode="&#x414;" horiz-adv-x="333" 
d="M-1 -108v165h25q32 51 48.5 148.5t16.5 303.5v213h196v-665h39v-165h-62v108h-201v-108h-62zM92 57h127v608h-68v-156q0 -342 -59 -452z" />
    <glyph glyph-name="afii10022" unicode="&#x415;" horiz-adv-x="259" 
d="M52 0v722h175v-57h-109v-262h104v-57h-104v-289h110v-57h-176z" />
    <glyph glyph-name="afii10024" unicode="&#x416;" horiz-adv-x="387" 
d="M3 0l104 392l-95 330h66l80 -310h2v310h66v-310h2l80 310h66l-95 -330l104 -392h-66l-89 362h-2v-362h-66v362h-2l-89 -362h-66z" />
    <glyph glyph-name="afii10025" unicode="&#x417;" horiz-adv-x="296" 
d="M138 -6q-53 0 -80 29t-27 80v98h66v-106q0 -19 11.5 -32t29.5 -13t29.5 13t11.5 32v206q0 19 -11.5 32t-29.5 13h-37v57h33q18 0 29.5 13t11.5 32v179q0 19 -9.5 32t-27.5 13q-41 0 -41 -45v-94h-66v86q0 109 107 109q103 0 103 -109v-166q0 -39 -11 -54.5t-41 -23.5v-2
q29 -5 42.5 -20t13.5 -49v-201q0 -51 -27 -80t-80 -29z" />
    <glyph glyph-name="afii10026" unicode="&#x418;" horiz-adv-x="347" 
d="M53 0v722h64v-291q0 -61 -6 -247h2l111 538h70v-722h-64v299q0 129 6 263h-2l-111 -562h-70z" />
    <glyph glyph-name="afii10027" unicode="&#x419;" horiz-adv-x="347" 
d="M53 0v722h64v-291q0 -61 -6 -247h2l111 538h70v-722h-64v299q0 129 6 263h-2l-111 -562h-70zM169 761q-91 0 -91 81h34q0 -13 16.5 -25t40.5 -12t40.5 12t16.5 25h34q0 -81 -91 -81z" />
    <glyph glyph-name="afii10028" unicode="&#x41a;" 
d="M52 0v722h66v-310l82 310h66l-95 -330l104 -392h-65l-92 361v-361h-66z" />
    <glyph glyph-name="afii10029" unicode="&#x41b;" horiz-adv-x="343" 
d="M32 -2q-16 0 -26 2v54q1 0 6.5 -0.5t7.5 -0.5q11 0 18.5 3t17 18.5t15.5 44t10 82.5t4 130v391h207v-722h-66v665h-79v-357q0 -96 -8 -159.5t-24.5 -95t-35.5 -43.5t-47 -12z" />
    <glyph glyph-name="afii10030" unicode="&#x41c;" horiz-adv-x="444" 
d="M45 0v722h103l74 -644l77 644h101v-722h-60v669l-78 -669h-82l-75 669v-669h-60z" />
    <glyph glyph-name="afii10031" unicode="&#x41d;" horiz-adv-x="333" 
d="M52 0v722h66v-319h96v319h66v-722h-66v346h-96v-346h-66z" />
    <glyph glyph-name="afii10032" unicode="&#x41e;" horiz-adv-x="334" 
d="M167 -6q-55 0 -85 31t-30 87v496q0 62 27.5 91.5t87.5 29.5q115 0 115 -123v-507q0 -52 -32 -78.5t-83 -26.5zM164 49q52 0 52 69v482q0 76 -48 76q-50 0 -50 -72v-492q0 -63 46 -63z" />
    <glyph glyph-name="afii10033" unicode="&#x41f;" horiz-adv-x="333" 
d="M51 0v722h231v-722h-66v665h-99v-665h-66z" />
    <glyph glyph-name="afii10034" unicode="&#x420;" 
d="M49 0v722h122q51 0 72 -25t21 -78v-193q0 -58 -26.5 -79.5t-83.5 -21.5h-39v-325h-66zM115 381h26q33 0 45 10.5t12 41.5v183q0 29 -9.5 39t-38.5 10h-35v-284z" />
    <glyph glyph-name="afii10035" unicode="&#x421;" 
d="M152 -6q-102 0 -102 102v538q0 40 25.5 67.5t75.5 27.5q54 0 79.5 -29.5t25.5 -76.5v-89h-66v90q0 52 -35 52q-39 0 -39 -57v-526q0 -46 34 -46q40 0 40 50v101h66v-100q0 -47 -25.5 -75.5t-78.5 -28.5z" />
    <glyph glyph-name="afii10036" unicode="&#x422;" horiz-adv-x="260" 
d="M96 0v665h-74v57h215v-57h-75v-665h-66z" />
    <glyph glyph-name="afii10037" unicode="&#x423;" 
d="M60 0l43 180l-96 542h66l61 -402h2l72 402h63l-146 -722h-65z" />
    <glyph glyph-name="afii10038" unicode="&#x424;" horiz-adv-x="418" 
d="M176 0v76h-34q-63 0 -86.5 24t-23.5 86v372q0 62 23.5 86t86.5 24h34v54h66v-54h34q63 0 86.5 -24t23.5 -86v-372q0 -62 -23.5 -86t-86.5 -24h-34v-76h-66zM149 132h27v480h-27q-25 0 -38 -9.5t-13 -35.5v-390q0 -26 13 -35.5t38 -9.5zM242 132h27q25 0 38 9.5t13 35.5
v390q0 26 -13 35.5t-38 9.5h-27v-480z" />
    <glyph glyph-name="afii10039" unicode="&#x425;" 
d="M8 0l95 363l-86 359h68l59 -293l55 293h65l-85 -359l91 -363h-69l-62 304l-66 -304h-65z" />
    <glyph glyph-name="afii10040" unicode="&#x426;" horiz-adv-x="333" 
d="M259 -108v108h-208v722h66v-665h99v665h66v-665h39v-165h-62z" />
    <glyph glyph-name="afii10041" unicode="&#x427;" horiz-adv-x="314" 
d="M195 0v324q-33 -9 -66 -9q-43 0 -68 27t-25 73v307h66v-304q0 -46 37 -46q40 0 56 7v343h66v-722h-66z" />
    <glyph glyph-name="afii10042" unicode="&#x428;" horiz-adv-x="461" 
d="M52 0v722h66v-665h79v665h66v-665h79v665h66v-722h-356z" />
    <glyph glyph-name="afii10043" unicode="&#x429;" horiz-adv-x="461" 
d="M385 -108v108h-333v722h66v-665h79v665h66v-665h79v665h66v-665h39v-165h-62z" />
    <glyph glyph-name="afii10044" unicode="&#x42a;" horiz-adv-x="333" 
d="M92 0v665h-73v57h139v-314h39q63 0 86.5 -24t23.5 -86v-188q0 -62 -23.5 -86t-86.5 -24h-105zM158 57h32q25 0 38 9.5t13 35.5v204q0 26 -13 35.5t-38 9.5h-32v-294z" />
    <glyph glyph-name="afii10045" unicode="&#x42b;" horiz-adv-x="440" 
d="M52 0v722h66v-314h39q63 0 86.5 -24t23.5 -86v-188q0 -62 -23.5 -86t-86.5 -24h-105zM118 57h32q25 0 38 9.5t13 35.5v204q0 26 -13 35.5t-38 9.5h-32v-294zM322 0v722h66v-722h-66z" />
    <glyph glyph-name="afii10046" unicode="&#x42c;" horiz-adv-x="294" 
d="M54 0v722h66v-314h39q63 0 86.5 -24t23.5 -86v-188q0 -62 -23.5 -86t-86.5 -24h-105zM120 57h32q25 0 38 9.5t13 35.5v204q0 26 -13 35.5t-38 9.5h-32v-294z" />
    <glyph glyph-name="afii10047" unicode="&#x42d;" 
d="M125 -6q-51 0 -77 26.5t-26 73.5v103h66v-101q0 -46 37 -46t37 46v250h-94v57h94v223q0 46 -37 46t-37 -46v-93h-66v95q0 47 26 73.5t77 26.5t77 -26.5t26 -73.5v-534q0 -47 -26 -73.5t-77 -26.5z" />
    <glyph glyph-name="afii10048" unicode="&#x42e;" horiz-adv-x="460" 
d="M293 -6q-116 0 -116 122v230h-58v-346h-66v722h66v-319h58v203q0 122 116 122t116 -122v-490q0 -122 -116 -122zM293 50q29 0 39.5 17t10.5 51v486q0 34 -10.5 51t-39.5 17t-39.5 -17t-10.5 -51v-486q0 -34 10.5 -51t39.5 -17z" />
    <glyph glyph-name="afii10049" unicode="&#x42f;" horiz-adv-x="330" 
d="M52 0v299q0 36 17.5 50.5t54.5 16.5v2q-39 2 -55.5 19.5t-16.5 58.5v193q0 50 24.5 66.5t77.5 16.5h123v-722h-66v336h-41q-52 0 -52 -44v-292h-66zM167 393h44v272h-37q-29 0 -42.5 -10t-13.5 -39v-171q0 -30 12 -41t37 -11z" />
    <glyph glyph-name="afii10065" unicode="&#x430;" 
d="M115 -3q-27 0 -44.5 9.5t-24.5 26.5t-9 31.5t-2 34.5v98q0 78 24.5 106t107.5 35l11 1v117q0 46 -35 46q-39 0 -39 -60v-43h-62v54q0 43 25.5 71.5t78.5 28.5q47 0 71.5 -27t24.5 -78v-448h-59v31q-9 -15 -28.5 -24.5t-39.5 -9.5zM133 43q20 0 32.5 15t12.5 39v191
q-47 -4 -64 -21t-17 -50v-101v-5q0 -20 1 -31.5t9.5 -24t25.5 -12.5z" />
    <glyph glyph-name="afii10066" unicode="&#x431;" 
d="M139 -6q-103 0 -103 105v354q0 105 12 153q19 77 79 89q56 11 62 19q3 3 3 8h53q0 -10 -1.5 -18.5t-3 -15t-6 -12t-7 -9.5t-10 -7.5t-10.5 -5.5t-13 -4.5t-12.5 -3t-14.5 -3t-15 -3.5q-43 -10 -55.5 -40t-16.5 -99h2q25 44 77 44q34 0 58.5 -21.5t24.5 -77.5v-347
q0 -105 -103 -105zM139 44q41 0 41 55v347q0 55 -41 55t-41 -55v-347q0 -55 41 -55z" />
    <glyph glyph-name="afii10067" unicode="&#x432;" 
d="M38 0v545h111q46 0 69.5 -19t23.5 -76v-89q0 -36 -11 -53.5t-42 -20.5v-2q34 -4 44.5 -20.5t10.5 -61.5v-108q0 -57 -23.5 -76t-69.5 -19h-113zM100 52h41q21 0 31 8.5t10 36.5v114q0 25 -8 35t-33 10h-41v-204zM100 308h39q20 0 30.5 10t10.5 37v91q0 47 -41 47h-39
v-185z" />
    <glyph glyph-name="afii10068" unicode="&#x433;" horiz-adv-x="202" 
d="M40 0v545h159v-53h-97v-492h-62z" />
    <glyph glyph-name="afii10069" unicode="&#x434;" horiz-adv-x="282" 
d="M0 -93v146h23q41 77 41 197v295h176v-492h32v-146h-58v93h-156v-93h-58zM85 53h93v439h-55v-242q0 -116 -38 -197z" />
    <glyph glyph-name="afii10070" unicode="&#x435;" 
d="M135 -5q-52 0 -75.5 27.5t-23.5 68.5v362q0 48 27.5 74t77.5 26q51 0 76 -29t25 -78v-189h-144v-157q0 -54 41 -54q20 0 30 15.5t11 28.5t1 36v6v44h61v-73q0 -108 -107 -108zM98 313h83v127q0 60 -40 60q-43 0 -43 -68v-119z" />
    <glyph glyph-name="afii10072" unicode="&#x436;" horiz-adv-x="410" 
d="M8 0l111 281l-103 264h66l90 -249h2v249h62v-249h2l90 249h66l-103 -264l111 -281h-66l-98 264h-2v-264h-62v264h-2l-98 -264h-66z" />
    <glyph glyph-name="afii10073" unicode="&#x437;" horiz-adv-x="252" 
d="M126 -6q-44 0 -69 22.5t-25 60.5v85h62v-73q0 -45 32 -45q29 0 29 45v124q0 40 -39 40h-27v53h27q20 0 28.5 8.5t8.5 29.5v119q0 38 -32 38q-31 0 -31 -38v-66h-58v71q0 38 23.5 60.5t67.5 22.5t66.5 -22.5t22.5 -60.5v-132q0 -48 -36 -53v-3q40 0 40 -49v-154
q0 -39 -22.5 -61t-67.5 -22z" />
    <glyph glyph-name="afii10074" unicode="&#x438;" horiz-adv-x="290" 
d="M36 0v545h60v-278l-6 -138h2l88 416h74v-545h-60v288l6 129h-2l-88 -417h-74z" />
    <glyph glyph-name="afii10075" unicode="&#x439;" horiz-adv-x="290" 
d="M36 0v545h60v-278l-6 -138h2l88 416h74v-545h-60v288l6 129h-2l-88 -417h-74zM145 628q-91 0 -91 76h34q0 -13 16 -22.5t41 -9.5t41 9.5t16 22.5h34q0 -76 -91 -76z" />
    <glyph glyph-name="afii10076" unicode="&#x43a;" horiz-adv-x="275" 
d="M39 0v545h62v-245h2l93 245h63l-103 -260l111 -285h-66l-98 268h-2v-268h-62z" />
    <glyph glyph-name="afii10077" unicode="&#x43b;" horiz-adv-x="283" 
d="M19 -2q-12 0 -24 2v50q2 0 6.5 -0.5t5.5 -0.5q11 0 18.5 3.5t16.5 19t14 44.5t8.5 82.5t3.5 130.5v216h179v-545h-62v492h-59v-186q0 -127 -14 -196.5t-35.5 -90.5t-57.5 -21z" />
    <glyph glyph-name="afii10078" unicode="&#x43c;" horiz-adv-x="400" 
d="M36 0v545h92l71 -493h2l71 493h92v-545h-58v350l3 133h-2l-70 -483h-74l-70 483h-2l3 -133v-350h-58z" />
    <glyph glyph-name="afii10079" unicode="&#x43d;" 
d="M36 0v545h62v-233h82v233h62v-545h-62v256h-82v-256h-62z" />
    <glyph glyph-name="afii10080" unicode="&#x43e;" 
d="M135 -5q-99 0 -99 101v357q0 48 27.5 74t77.5 26q101 0 101 -112v-341q0 -105 -107 -105zM139 46q41 0 41 62v332q0 60 -39 60q-43 0 -43 -68v-332q0 -54 41 -54z" />
    <glyph glyph-name="afii10081" unicode="&#x43f;" 
d="M36 0v545h206v-545h-62v492h-82v-492h-62z" />
    <glyph glyph-name="afii10082" unicode="&#x440;" 
d="M37 -108v653h59v-33q24 41 70 41q78 0 78 -102v-351q0 -100 -81 -100q-43 0 -64 32v-140h-62zM143 51q39 0 39 77v298q0 39 -9 55.5t-30 16.5q-44 0 -44 -71v-296q0 -80 44 -80z" />
    <glyph glyph-name="afii10083" unicode="&#x441;" horiz-adv-x="259" 
d="M130 -5q-44 0 -68 23t-24 64v368q0 49 25 76t71 27q40 0 64 -21.5t24 -56.5v-101h-60v82q0 46 -29 46q-32 0 -32 -52v-355q0 -15 1 -23.5t8 -18t21 -9.5q30 0 30 54v77h61v-87q0 -44 -24.5 -68.5t-67.5 -24.5z" />
    <glyph glyph-name="afii10084" unicode="&#x442;" horiz-adv-x="220" 
d="M79 0v492h-71v53h204v-53h-71v-492h-62z" />
    <glyph glyph-name="afii10085" unicode="&#x443;" horiz-adv-x="259" 
d="M77 -108l21 108l-80 545h64l44 -385l54 385h61l-103 -653h-61z" />
    <glyph glyph-name="afii10086" unicode="&#x444;" horiz-adv-x="408" 
d="M173 -108v131q-24 -26 -66 -26q-32 0 -51.5 24t-19.5 61v361q0 57 23 81.5t57 24.5q38 0 57 -25v180h62v-180q19 25 57 25q34 0 57 -24.5t23 -81.5v-361q0 -37 -19.5 -61t-51.5 -24q-42 0 -66 26v-131h-62zM132 50q27 0 41 20v412q-13 19 -37 19q-22 0 -30 -14t-8 -44
v-330q0 -63 34 -63zM276 50q34 0 34 63v330q0 30 -8 44t-30 14q-24 0 -37 -19v-412q14 -20 41 -20z" />
    <glyph glyph-name="afii10087" unicode="&#x445;" horiz-adv-x="258" 
d="M19 0l82 281l-74 264h66l38 -162l40 162h62l-68 -261v-2l74 -282h-63l-45 193l-52 -193h-60z" />
    <glyph glyph-name="afii10088" unicode="&#x446;" horiz-adv-x="284" 
d="M216 -93v93h-180v545h62v-492h82v492h62v-492h32v-146h-58z" />
    <glyph glyph-name="afii10089" unicode="&#x447;" horiz-adv-x="262" 
d="M164 0v231q-17 -10 -45 -10q-93 0 -93 95v229h62v-229q0 -27 11 -36t30 -9q15 0 35 10v264h62v-545h-62z" />
    <glyph glyph-name="afii10090" unicode="&#x448;" horiz-adv-x="412" 
d="M36 0v545h62v-494h77v494h62v-494h77v494h62v-545h-340z" />
    <glyph glyph-name="afii10091" unicode="&#x449;" horiz-adv-x="418" 
d="M350 -93v93h-314v545h62v-494h77v494h62v-494h77v494h62v-494h32v-144h-58z" />
    <glyph glyph-name="afii10092" unicode="&#x44a;" horiz-adv-x="314" 
d="M82 0v495h-77v50h139v-220h61q42 0 62.5 -19t20.5 -71v-144q0 -57 -23 -74t-70 -17h-113zM144 50h33q17 0 25 1t16 10t8 26v154q0 23 -11.5 28.5t-35.5 5.5h-35v-225z" />
    <glyph glyph-name="afii10093" unicode="&#x44b;" horiz-adv-x="393" 
d="M36 0v545h62v-220h61q42 0 62.5 -19t20.5 -71v-144q0 -57 -23 -74t-70 -17h-113zM98 50h33q17 0 25 1t16 10t8 26v154q0 23 -11.5 28.5t-35.5 5.5h-35v-225zM295 0v545h62v-545h-62z" />
    <glyph glyph-name="afii10094" unicode="&#x44c;" horiz-adv-x="268" 
d="M36 0v545h62v-220h61q42 0 62.5 -19t20.5 -71v-144q0 -57 -23 -74t-70 -17h-113zM98 50h33q17 0 25 1t16 10t8 26v154q0 23 -11.5 28.5t-35.5 5.5h-35v-225z" />
    <glyph glyph-name="afii10095" unicode="&#x44d;" horiz-adv-x="259" 
d="M129 -6q-45 0 -69 24t-24 68v77h62v-78q0 -41 32 -41q31 0 31 41v168h-78v56h78v147q0 45 -34 45q-15 0 -22 -10t-7 -35v-74h-62v81q0 43 26 65.5t68 22.5q44 0 68.5 -23.5t24.5 -81.5v-370q0 -40 -27 -61t-67 -21z" />
    <glyph glyph-name="afii10096" unicode="&#x44e;" horiz-adv-x="389" 
d="M247 -6q-100 0 -100 105v157h-49v-256h-62v545h62v-239h49v140q0 105 103 105t103 -105v-347q0 -105 -106 -105zM250 44q41 0 41 55v347q0 55 -41 55t-41 -55v-347q0 -55 41 -55z" />
    <glyph glyph-name="afii10097" unicode="&#x44f;" 
d="M36 0v209q0 35 15 50t46 17v2q-61 9 -61 54v141q0 38 18 55t61 17h127v-545h-62v247h-30q-52 0 -52 -44v-203h-62zM139 300h41v192h-47q-35 0 -35 -32v-122q0 -38 41 -38z" />
    <glyph glyph-name="uni0450" unicode="&#x450;" 
d="M135 -5q-52 0 -75.5 27.5t-23.5 68.5v362q0 48 27.5 74t77.5 26q51 0 76 -29t25 -78v-189h-144v-157q0 -54 41 -54q20 0 30 15.5t11 28.5t1 36v6v44h61v-73q0 -108 -107 -108zM98 313h83v127q0 60 -40 60q-43 0 -43 -68v-119zM165 614h-51l-62 108h70z" />
    <glyph glyph-name="afii10071" unicode="&#x451;" 
d="M135 -5q-52 0 -75.5 27.5t-23.5 68.5v362q0 48 27.5 74t77.5 26q51 0 76 -29t25 -78v-189h-144v-157q0 -54 41 -54q20 0 30 15.5t11 28.5t1 36v6v44h61v-73q0 -108 -107 -108zM98 313h83v127q0 60 -40 60q-43 0 -43 -68v-119zM58 627v77h60v-77h-60zM159 627v77h60v-77
h-60z" />
    <glyph glyph-name="afii10099" unicode="&#x452;" 
d="M167 -108q-16 0 -20 2v50q1 0 3.5 -0.5t4.5 -0.5q30 0 30 46v444q0 35 -8.5 50t-28.5 15q-42 0 -42 -65v-433h-63v607h-48v53h48v62h63v-62h89v-53h-89v-93q27 39 68 39q42 0 58 -26.5t16 -58.5v-505q0 -35 -22 -53t-59 -18z" />
    <glyph glyph-name="afii10100" unicode="&#x453;" horiz-adv-x="202" 
d="M40 0v545h159v-53h-97v-492h-62zM73 614l45 108h71l-64 -108h-52z" />
    <glyph glyph-name="afii10101" unicode="&#x454;" horiz-adv-x="259" 
d="M130 -6q-40 0 -67 21t-27 61v370q0 58 24.5 81.5t68.5 23.5q42 0 68 -22.5t26 -65.5v-81h-62v74q0 25 -7 35t-22 10q-34 0 -34 -45v-147h78v-56h-78v-168q0 -41 31 -41q32 0 32 41v78h62v-77q0 -44 -24 -68t-69 -24z" />
    <glyph glyph-name="afii10102" unicode="&#x455;" horiz-adv-x="259" 
d="M130 -5q-44 0 -68 23t-24 64v94h63v-81q0 -15 1 -23.5t8 -18t21 -9.5q30 0 30 54v64q0 26 -23 57l-71 97q-11 16 -16 23.5t-9 20.5t-4 29v61q0 49 25 76t72 27q39 0 63 -21.5t24 -56.5v-90h-60v71q0 46 -30 46q-31 0 -31 -52v-38q0 -16 4.5 -29.5t9 -20t17.5 -25.5
l69 -97q14 -19 17.5 -30.5t3.5 -34.5v-87q0 -44 -24 -68.5t-68 -24.5z" />
    <glyph glyph-name="afii10103" unicode="&#x456;" horiz-adv-x="148" 
d="M43 0v545h62v-545h-62zM40 648v74h68v-74h-68z" />
    <glyph glyph-name="afii10104" unicode="&#x457;" horiz-adv-x="148" 
d="M43 0v545h62v-545h-62zM-7 627v77h60v-77h-60zM94 627v77h60v-77h-60z" />
    <glyph glyph-name="afii10105" unicode="&#x458;" horiz-adv-x="148" 
d="M5 -106v50q1 0 3.5 -0.5t4.5 -0.5q30 0 30 46v556h62v-582q0 -35 -21.5 -53t-58.5 -18q-16 0 -20 2zM40 648v74h68v-74h-68z" />
    <glyph glyph-name="afii10106" unicode="&#x459;" horiz-adv-x="417" 
d="M19 -2q-12 0 -24 2v50q2 0 6.5 -0.5t5.5 -0.5q11 0 18.5 3.5t16.5 19t14 44.5t8.5 82.5t3.5 130.5v216h179v-227h61q42 0 62.5 -19t20.5 -71v-137q0 -57 -23 -74t-70 -17h-113v492h-59v-186q0 -127 -14 -196.5t-35.5 -90.5t-57.5 -21zM247 50h33q17 0 25 1t16 10t8 26
v147q0 23 -11.5 28.5t-35.5 5.5h-35v-218z" />
    <glyph glyph-name="afii10107" unicode="&#x45a;" horiz-adv-x="412" 
d="M36 0v545h62v-227h82v227h62v-227h61q42 0 62.5 -19t20.5 -71v-137q0 -57 -23 -74t-70 -17h-113v266h-82v-266h-62zM242 50h33q17 0 25 1t16 10t8 26v147q0 23 -11.5 28.5t-35.5 5.5h-35v-218z" />
    <glyph glyph-name="afii10108" unicode="&#x45b;" 
d="M43 0v607h-48v53h48v62h63v-62h89v-53h-89v-93q27 39 68 39q42 0 58 -26.5t16 -58.5v-468h-63v433q0 35 -8.5 50t-28.5 15q-42 0 -42 -65v-433h-63z" />
    <glyph glyph-name="afii10109" unicode="&#x45c;" horiz-adv-x="275" 
d="M39 0v545h62v-245h2l93 245h63l-103 -260l111 -285h-66l-98 268h-2v-268h-62zM109 614l45 108h71l-64 -108h-52z" />
    <glyph glyph-name="uni045D" unicode="&#x45d;" horiz-adv-x="290" 
d="M36 0v545h60v-278l-6 -138h2l88 416h74v-545h-60v288l6 129h-2l-88 -417h-74zM171 614h-51l-62 108h70z" />
    <glyph glyph-name="afii10110" unicode="&#x45e;" horiz-adv-x="259" 
d="M77 -108l21 108l-80 545h64l44 -385l54 385h61l-103 -653h-61zM129 628q-91 0 -91 76h34q0 -13 16 -22.5t41 -9.5t41 9.5t16 22.5h34q0 -76 -91 -76z" />
    <glyph glyph-name="afii10193" unicode="&#x45f;" 
d="M110 -93v93h-74v545h62v-492h82v492h62v-545h-74v-93h-58z" />
    <glyph glyph-name="afii10146" unicode="&#x462;" horiz-adv-x="314" 
d="M74 0v558h-74v57h74v107h66v-107h75v-57h-75v-150h39q63 0 86.5 -24t23.5 -86v-188q0 -62 -23.5 -86t-86.5 -24h-105zM140 57h32q25 0 38 9.5t13 35.5v204q0 26 -13 35.5t-38 9.5h-32v-294z" />
    <glyph glyph-name="afii10194" unicode="&#x463;" horiz-adv-x="303" 
d="M71 0v492h-71v53h71v177h62v-177h71v-53h-71v-167h61q42 0 62.5 -19t20.5 -71v-144q0 -57 -23 -74t-70 -17h-113zM133 50h33q17 0 25 1t16 10t8 26v154q0 23 -11.5 28.5t-35.5 5.5h-35v-225z" />
    <glyph glyph-name="afii10147" unicode="&#x472;" horiz-adv-x="334" 
d="M167 -6q-55 0 -85 31t-30 87v496q0 62 27.5 91.5t87.5 29.5q115 0 115 -123v-507q0 -52 -32 -78.5t-83 -26.5zM164 49q52 0 52 69v229q-9 -4 -23 -4q-9 0 -26 5.5t-27 5.5q-15 0 -22 -7v-235q0 -63 46 -63zM194 395q15 0 22 7v198q0 76 -48 76q-50 0 -50 -72v-202
q10 5 23 5q12 0 28.5 -6t24.5 -6z" />
    <glyph glyph-name="afii10195" unicode="&#x473;" 
d="M135 -5q-99 0 -99 101v357q0 48 27.5 74t77.5 26q101 0 101 -112v-341q0 -105 -107 -105zM139 46q41 0 41 62v150q-9 -3 -17 -3t-24 4.5t-25 4.5q-10 0 -16 -6v-158q0 -54 41 -54zM164 304q9 0 16 4v132q0 60 -39 60q-43 0 -43 -68v-122q10 4 17 4q11 0 26.5 -5t22.5 -5z
" />
    <glyph glyph-name="afii10148" unicode="&#x474;" 
d="M88 0l-80 722h66l65 -657l63 605q3 30 20 44.5t56 14.5q16 0 25 -1v-55q-8 2 -14 2q-24 0 -27 -26l-77 -649h-97z" />
    <glyph glyph-name="afii10196" unicode="&#x475;" horiz-adv-x="258" 
d="M83 0l-63 545h61l47 -484l46 431q3 30 18.5 44t53.5 14q16 0 25 -1v-53q-8 2 -12 2q-26 0 -29 -26l-55 -472h-92z" />
    <glyph glyph-name="afii10050" unicode="&#x490;" horiz-adv-x="241" 
d="M56 0v722h107v98h62v-155h-103v-665h-66z" />
    <glyph glyph-name="afii10098" unicode="&#x491;" horiz-adv-x="202" 
d="M40 0v545h101v96h58v-149h-97v-492h-62z" />
    <glyph glyph-name="Wgrave" unicode="&#x1e80;" horiz-adv-x="444" 
d="M433 722l-73 -722h-87l-51 641l-50 -641h-86l-74 722h66l53 -647l51 647h83l54 -647l51 647h63zM197 753l-62 108h70l43 -108h-51z" />
    <glyph glyph-name="wgrave" unicode="&#x1e81;" horiz-adv-x="406" 
d="M392 545l-57 -545h-91l-40 495l-43 -495h-88l-60 545h58l48 -485l42 485h88l39 -485l48 485h56zM229 614h-51l-62 108h70z" />
    <glyph glyph-name="Wacute" unicode="&#x1e82;" horiz-adv-x="444" 
d="M433 722l-73 -722h-87l-51 641l-50 -641h-86l-74 722h66l53 -647l51 647h83l54 -647l51 647h63zM194 753l45 108h71l-64 -108h-52z" />
    <glyph glyph-name="wacute" unicode="&#x1e83;" horiz-adv-x="406" 
d="M392 545l-57 -545h-91l-40 495l-43 -495h-88l-60 545h58l48 -485l42 485h88l39 -485l48 485h56zM175 614l45 108h71l-64 -108h-52z" />
    <glyph glyph-name="Wdieresis" unicode="&#x1e84;" horiz-adv-x="444" 
d="M433 722l-73 -722h-87l-51 641l-50 -641h-86l-74 722h66l53 -647l51 647h83l54 -647l51 647h63zM141 766v77h60v-77h-60zM242 766v77h60v-77h-60z" />
    <glyph glyph-name="wdieresis" unicode="&#x1e85;" horiz-adv-x="406" 
d="M392 545l-57 -545h-91l-40 495l-43 -495h-88l-60 545h58l48 -485l42 485h88l39 -485l48 485h56zM122 627v77h60v-77h-60zM223 627v77h60v-77h-60z" />
    <glyph glyph-name="Ygrave" unicode="&#x1ef2;" 
d="M270 722l-98 -408v-314h-66l-1 314l-96 408h70l63 -328l64 328h64zM114 753l-62 108h70l43 -108h-51z" />
    <glyph glyph-name="ygrave" unicode="&#x1ef3;" horiz-adv-x="259" 
d="M241 545l-103 -653h-61l21 108l-80 545h64l44 -385l54 385h61zM156 614h-51l-62 108h70z" />
    <glyph glyph-name="uni2010" unicode="&#x2010;" horiz-adv-x="166" 
d="M142 272h-119v56h119v-56z" />
    <glyph glyph-name="endash" unicode="&#x2013;" horiz-adv-x="500" 
d="M500 274h-500v51h500v-51z" />
    <glyph glyph-name="emdash" unicode="&#x2014;" horiz-adv-x="1000" 
d="M1000 274h-1000v51h1000v-51z" />
    <glyph glyph-name="quoteleft" unicode="&#x2018;" horiz-adv-x="168" 
d="M138 722l-34 -166h-74l52 166h56z" />
    <glyph glyph-name="quoteright" unicode="&#x2019;" horiz-adv-x="168" 
d="M138 722l-52 -166h-56l34 166h74z" />
    <glyph glyph-name="quotesinglbase" unicode="&#x201a;" horiz-adv-x="168" 
d="M138 76l-52 -166h-56l34 166h74z" />
    <glyph glyph-name="quotedblleft" unicode="&#x201c;" 
d="M253 722l-33 -166h-74l52 166h55zM132 722l-34 -166h-74l52 166h56z" />
    <glyph glyph-name="quotedblright" unicode="&#x201d;" 
d="M253 722l-52 -166h-55l33 166h74zM132 722l-52 -166h-56l34 166h74z" />
    <glyph glyph-name="quotedblbase" unicode="&#x201e;" 
d="M253 76l-52 -166h-55l33 166h74zM132 76l-52 -166h-56l34 166h74z" />
    <glyph glyph-name="dagger" unicode="&#x2020;" 
d="M266 494h-94v-494h-64v494h-96v51h96v177h64v-177h94v-51z" />
    <glyph glyph-name="daggerdbl" unicode="&#x2021;" 
d="M266 181h-95v-181h-66v181h-93v53h93v258h-93v53h93v177h66v-177h95v-53h-95v-258h95v-53z" />
    <glyph glyph-name="bullet" unicode="&#x2022;" horiz-adv-x="500" 
d="M428 356q0 -74 -52 -126t-126 -52t-126 52t-52 126t52 126t126 52t126 -52t52 -126z" />
    <glyph glyph-name="ellipsis" unicode="&#x2026;" horiz-adv-x="1000" 
d="M864 0h-69v76h69v-76zM534 0h-69v76h69v-76zM204 0h-69v76h69v-76z" />
    <glyph glyph-name="perthousand" unicode="&#x2030;" horiz-adv-x="684" 
d="M652 69q0 -73 -82 -73q-79 0 -79 77v187q0 43 18 64t62 21t62.5 -18t18.5 -62v-196zM193 450q0 -73 -82 -73q-79 0 -79 77v187q0 43 18 64t62 21t62.5 -18t18.5 -62v-196zM390 729l-249 -735h-51l249 735h51zM447 69q0 -73 -82 -73q-79 0 -79 77v187q0 43 18 64t62 21
t62.5 -18t18.5 -62v-196zM598 69v200q0 20 -6 28t-20 8q-26 0 -26 -39v-200q0 -13 7.5 -21.5t18.5 -8.5t18.5 9.5t7.5 23.5zM139 450v200q0 20 -6 28t-20 8q-26 0 -26 -39v-200q0 -13 7.5 -21.5t18.5 -8.5t18.5 9.5t7.5 23.5zM393 69v200q0 20 -6 28t-20 8q-26 0 -26 -39
v-200q0 -13 7.5 -21.5t18.5 -8.5t18.5 9.5t7.5 23.5z" />
    <glyph glyph-name="guilsinglleft" unicode="&#x2039;" horiz-adv-x="167" 
d="M138 61h-52l-58 213l57 210h53l-47 -210z" />
    <glyph glyph-name="guilsinglright" unicode="&#x203a;" horiz-adv-x="167" 
d="M138 272l-55 -211h-55l45 212l-45 211h56z" />
    <glyph glyph-name="interrobang" unicode="&#x203d;" horiz-adv-x="295" 
d="M110 0v76h69v-76h-69zM119 175l-5 417h62l-2 -139q15 36 15 59v118q0 21 -12 32.5t-29 11.5q-19 0 -33 -13t-14 -35v-90h-61v79q0 114 112 114q45 0 74 -23t29 -66v-126q0 -47 -21 -89l-44 -86q-17 -32 -17 -109v-55h-54z" />
    <glyph glyph-name="fraction" unicode="&#x2044;" horiz-adv-x="130" 
d="M-57 0l194 722h50l-194 -722h-50z" />
    <glyph glyph-name="zero.superior" unicode="&#x2070;" horiz-adv-x="220" 
d="M107 283q-74 0 -74 63v316q0 29 20.5 46.5t55.5 17.5q77 0 77 -69v-307q0 -67 -79 -67zM108 322q22 0 22 24v316q0 25 -21 25q-20 0 -20 -24v-318q0 -23 19 -23z" />
    <glyph glyph-name="four.superior" unicode="&#x2074;" horiz-adv-x="220" 
d="M114 287v112h-86v49l69 274h74v-285h35v-38h-35v-112h-57zM78 437h36v174z" />
    <glyph glyph-name="five.superior" unicode="&#x2075;" horiz-adv-x="220" 
d="M112 283q-38 0 -58.5 17.5t-20.5 49.5v64h57v-64q0 -29 21 -29t21 31v147q0 26 -20 26q-22 0 -22 -25v-26h-54v248h149v-42h-95v-127q20 11 38 11q60 0 60 -59v-142q0 -80 -76 -80z" />
    <glyph glyph-name="six.superior" unicode="&#x2076;" horiz-adv-x="220" 
d="M109 283q-75 0 -75 69v308q0 66 79 66q74 0 74 -63v-69h-55v69q0 24 -22 24q-20 0 -20 -25v-113q16 10 35 10q62 0 62 -59v-152q0 -30 -21 -47.5t-57 -17.5zM110 322q22 0 22 24v153q0 23 -20 23q-22 0 -22 -25v-149q0 -26 20 -26z" />
    <glyph glyph-name="seven.superior" unicode="&#x2077;" horiz-adv-x="220" 
d="M54 287l80 393h-109v42h160v-47l-73 -388h-58z" />
    <glyph glyph-name="eight.superior" unicode="&#x2078;" horiz-adv-x="220" 
d="M109 283q-77 0 -77 69v111q0 42 28 51q-28 11 -28 47v91q0 74 79 74q76 0 76 -76v-86q0 -38 -25 -50q25 -8 25 -41v-125q0 -65 -78 -65zM108 321q24 0 24 30v118q0 27 -21 27q-23 0 -23 -27v-121q0 -27 20 -27zM109 531q23 0 23 29v105q0 23 -21 23q-22 0 -22 -26v-103
q0 -28 20 -28z" />
    <glyph glyph-name="nine.superior" unicode="&#x2079;" horiz-adv-x="220" 
d="M107 283q-74 0 -74 63v69h56v-69q0 -24 20 -24q21 0 21 25v112q-18 -7 -35 -7q-62 0 -62 57v153q0 29 20.5 46.5t55.5 17.5q77 0 77 -69v-307q0 -67 -79 -67zM108 489q22 0 22 24v149q0 25 -21 25q-20 0 -20 -24v-151q0 -23 19 -23z" />
    <glyph glyph-name="plus.superior" unicode="&#x207a;" horiz-adv-x="360" 
d="M160 287v125h-128v39h128v125h41v-125h127v-39h-127v-125h-41z" />
    <glyph glyph-name="minus.superior" unicode="&#x207b;" horiz-adv-x="360" 
d="M32 412v39h296v-39h-296z" />
    <glyph glyph-name="equal.superior" unicode="&#x207c;" horiz-adv-x="360" 
d="M32 358v39h296v-39h-296zM32 466v39h296v-39h-296z" />
    <glyph glyph-name="parenleft.superior" unicode="&#x207d;" horiz-adv-x="120" 
d="M64 223q-47 107 -47 253q0 145 48 253h45q-39 -120 -39 -257q0 -132 39 -249h-46z" />
    <glyph glyph-name="parenright.superior" unicode="&#x207e;" horiz-adv-x="120" 
d="M56 223h-46q39 117 39 249q0 137 -39 257h45q48 -108 48 -253q0 -146 -47 -253z" />
    <glyph glyph-name="n.superior" unicode="&#x207f;" horiz-adv-x="220" 
d="M30 380v341h53v-16q23 21 51 21q60 0 60 -59v-287h-55v268q0 35 -25 35q-29 0 -29 -35v-268h-55z" />
    <glyph glyph-name="zero.inferior" unicode="&#x2080;" horiz-adv-x="220" 
d="M107 -4q-74 0 -74 63v316q0 29 20.5 46.5t55.5 17.5q77 0 77 -69v-307q0 -67 -79 -67zM108 35q22 0 22 24v316q0 25 -21 25q-20 0 -20 -24v-318q0 -23 19 -23z" />
    <glyph glyph-name="one.inferior" unicode="&#x2081;" horiz-adv-x="220" 
d="M142 0h-56v375q-25 -14 -46 -22v48q38 17 54 34h48v-435z" />
    <glyph glyph-name="two.inferior" unicode="&#x2082;" horiz-adv-x="220" 
d="M189 0h-158v44l84 216q18 46 18 94q0 26 -4.5 36t-16.5 10q-21 0 -21 -30v-53h-56v54q0 68 77 68q46 0 61 -21.5t15 -63.5q0 -52 -21 -104l-83 -209h105v-41z" />
    <glyph glyph-name="three.inferior" unicode="&#x2083;" horiz-adv-x="220" 
d="M183 70q0 -71 -77 -71q-36 0 -56 16.5t-20 43.5v71h56v-63q0 -30 20 -30q22 0 22 30v112q0 17 -6.5 24t-23.5 7h-22v39h20q19 0 25.5 5.5t6.5 21.5v99q0 28 -22 28q-19 0 -19 -28v-57h-56v53q0 70 77 70q75 0 75 -68v-94q0 -42 -21 -50q21 -7 21 -39v-120z" />
    <glyph glyph-name="four.inferior" unicode="&#x2084;" horiz-adv-x="220" 
d="M114 0v112h-86v49l69 274h74v-285h35v-38h-35v-112h-57zM78 150h36v174z" />
    <glyph glyph-name="five.inferior" unicode="&#x2085;" horiz-adv-x="220" 
d="M112 -4q-38 0 -58.5 17.5t-20.5 49.5v64h57v-64q0 -29 21 -29t21 31v147q0 26 -20 26q-22 0 -22 -25v-26h-54v248h149v-42h-95v-127q20 11 38 11q60 0 60 -59v-142q0 -80 -76 -80z" />
    <glyph glyph-name="six.inferior" unicode="&#x2086;" horiz-adv-x="220" 
d="M109 -4q-75 0 -75 69v308q0 66 79 66q74 0 74 -63v-69h-55v69q0 24 -22 24q-20 0 -20 -25v-113q16 10 35 10q62 0 62 -59v-152q0 -30 -21 -47.5t-57 -17.5zM110 35q22 0 22 24v153q0 23 -20 23q-22 0 -22 -25v-149q0 -26 20 -26z" />
    <glyph glyph-name="seven.inferior" unicode="&#x2087;" horiz-adv-x="220" 
d="M54 0l80 393h-109v42h160v-47l-73 -388h-58z" />
    <glyph glyph-name="eight.inferior" unicode="&#x2088;" horiz-adv-x="220" 
d="M109 -4q-77 0 -77 69v111q0 42 28 51q-28 11 -28 47v91q0 74 79 74q76 0 76 -76v-86q0 -37 -25 -50q25 -8 25 -41v-125q0 -65 -78 -65zM108 34q24 0 24 30v118q0 27 -21 27q-23 0 -23 -27v-121q0 -27 20 -27zM109 244q23 0 23 29v105q0 23 -21 23q-22 0 -22 -26v-103
q0 -28 20 -28z" />
    <glyph glyph-name="nine.inferior" unicode="&#x2089;" horiz-adv-x="220" 
d="M107 -4q-74 0 -74 63v69h56v-69q0 -24 20 -24q21 0 21 25v112q-18 -7 -35 -7q-62 0 -62 57v153q0 29 20.5 46.5t55.5 17.5q77 0 77 -69v-307q0 -67 -79 -67zM108 202q22 0 22 24v149q0 25 -21 25q-20 0 -20 -24v-151q0 -23 19 -23z" />
    <glyph glyph-name="plus.inferior" unicode="&#x208a;" horiz-adv-x="360" 
d="M160 0v125h-128v39h128v125h41v-125h127v-39h-127v-125h-41z" />
    <glyph glyph-name="minus.inferior" unicode="&#x208b;" horiz-adv-x="360" 
d="M32 125v39h296v-39h-296z" />
    <glyph glyph-name="equal.inferior" unicode="&#x208c;" horiz-adv-x="360" 
d="M32 71v39h296v-39h-296zM32 179v39h296v-39h-296z" />
    <glyph glyph-name="parenleft.inferior" unicode="&#x208d;" horiz-adv-x="120" 
d="M64 -64q-47 107 -47 253q0 145 48 253h45q-39 -120 -39 -257q0 -132 39 -249h-46z" />
    <glyph glyph-name="parenright.inferior" unicode="&#x208e;" horiz-adv-x="120" 
d="M56 -64h-46q39 117 39 249q0 137 -39 257h45q48 -108 48 -253q0 -146 -47 -253z" />
    <glyph glyph-name="Euro" unicode="&#x20ac;" horiz-adv-x="276" 
d="M272 692l-12 -56q-11 19 -31 31q-20 11 -48 11q-27 0 -40 -12q-13 -11 -13 -38v-172h103l-11 -50h-92v-74h78l-11 -50h-67v-188q0 -23 14 -37q13 -13 40 -13q26 0 46 10t34 27v-62q-12 -9 -32 -17q-21 -8 -49 -8q-52 0 -78 19q-37 28 -37 88v181h-66l11 50h55v74h-62
l11 50h51v165q0 57 32 83q30 24 80 24q32 0 60 -11q22 -9 34 -25z" />
    <glyph glyph-name="afii61248" unicode="&#x2105;" horiz-adv-x="504" 
d="M109 377q-35 0 -56 15.5t-21 41.5v224q0 31 21.5 49.5t57.5 18.5q32 0 53.5 -15t21.5 -37v-68h-51v57q0 21 -24 21q-9 0 -16.5 -6.5t-7.5 -19.5v-215q0 -27 23 -27q25 0 25 29v52h51v-59q0 -28 -21 -44.5t-56 -16.5zM128 0l194 722h50l-194 -722h-50zM311 72v187
q0 85 80 85q45 0 63 -20t18 -65v-191q0 -35 -23.5 -54t-58.5 -19q-36 0 -57.5 21.5t-21.5 55.5zM418 68v200q0 36 -26 36t-26 -39v-200q0 -12 7 -21t19 -9t19 11t7 22z" />
    <glyph glyph-name="afii61289" unicode="&#x2113;" horiz-adv-x="500" 
d="M409 39q-56 -53 -124 -53q-54 0 -87.5 31.5t-33.5 93.5v125l-60 -65l-23 32l83 84v263q0 80 34.5 125.5t86.5 45.5q46 0 75 -33.5t29 -91.5q0 -143 -168 -320v-156q0 -49 22.5 -69.5t54.5 -20.5q46 0 89 40zM341 592q0 39 -16 63.5t-40 24.5q-27 0 -45.5 -31t-18.5 -91
v-230q120 142 120 264z" />
    <glyph glyph-name="afii61352" unicode="&#x2116;" horiz-adv-x="500" 
d="M52 0v722h98l75 -588h2v588h60v-722h-96l-77 612h-2v-612h-60zM328 0v40h138v-40h-138zM397 90q-69 0 -69 63v209q0 63 69 63t69 -63v-209q0 -63 -69 -63zM397 122q23 0 23 33v205q0 33 -23 33t-23 -33v-205q0 -33 23 -33z" />
    <glyph glyph-name="published" unicode="&#x2117;" horiz-adv-x="800" 
d="M444 329h-101v-187h-52v426h149q74 0 108 -28.5t34 -87.5q0 -58 -36 -90.5t-102 -32.5zM343 375h81q51 0 78.5 17.5t27.5 60.5q0 41 -28 55t-76 14h-83v-147zM766 363q0 -152 -107.5 -259.5t-258.5 -107.5q-152 0 -259.5 108t-107.5 259q0 152 107.5 259t259.5 107
t259 -107.5t107 -258.5zM717 361q0 132 -92.5 224.5t-224.5 92.5t-224.5 -92.5t-92.5 -224.5t92.5 -224.5t224.5 -92.5t224.5 92.5t92.5 224.5z" />
    <glyph glyph-name="trademark" unicode="&#x2122;" horiz-adv-x="990" 
d="M815 366h-36v311l-120 -311h-34l-120 311v-311h-36v356h59l115 -298l115 298h57v-356zM404 687h-126v-321h-39v321h-126v35h291v-35z" />
    <glyph glyph-name="Omega" unicode="&#x2126;" horiz-adv-x="349" 
d="M40 0v50h63v67q-13 7 -22.5 16.5t-15 24.5t-9 24.5t-5 31.5t-2 29.5t0 34.5t0.5 31v237q0 36 1.5 56.5t8 47.5t19 41.5t36.5 25t59 10.5t59.5 -10.5t37 -25t19 -41.5t8 -47.5t1.5 -56.5v-237q0 -4 0.5 -30.5t0 -34l-2 -30t-5 -32t-9 -24.5t-15 -24.5t-22.5 -16.5v-67h63
v-50h-113v156q17 5 27.5 24.5t10.5 39.5v354q0 48 -11 74.5t-48 26.5q-22 0 -35 -9.5t-18 -30t-6 -35t-1 -42.5v-11v-327q0 -20 10.5 -39.5t27.5 -24.5v-156h-113z" />
    <glyph glyph-name="estimated" unicode="&#x212e;" horiz-adv-x="742" 
d="M698 340h-511v-230q75 -75 183 -75q79 0 138 36.5t106 115.5l44 -26q-58 -92 -123.5 -131.5t-164.5 -39.5q-146 0 -236 100t-90 250t90 250t236 100q145 0 235.5 -97.5t92.5 -252.5zM187 386h368v183q-79 76 -186 76q-108 0 -182 -76v-183z" />
    <glyph glyph-name="onethird" unicode="&#x2153;" horiz-adv-x="556" 
d="M142 287h-56v375q-25 -13 -46 -22v48q38 17 54 34h48v-435zM129 0l194 722h50l-194 -722h-50zM504 70q0 -71 -77 -71q-36 0 -56 16.5t-20 43.5v71h56v-63q0 -30 20 -30q22 0 22 30v112q0 17 -6.5 24t-23.5 7h-22v39h20q19 0 25.5 5.5t6.5 21.5v99q0 28 -22 28
q-19 0 -19 -28v-57h-56v53q0 70 77 70q75 0 75 -68v-94q0 -42 -21 -50q21 -7 21 -39v-120z" />
    <glyph glyph-name="twothirds" unicode="&#x2154;" horiz-adv-x="556" 
d="M199 287h-158v44l84 216q18 46 18 94q0 26 -4.5 36t-16.5 10q-21 0 -21 -30v-53h-56v54q0 68 77 68q46 0 61 -21.5t15 -63.5q0 -51 -21 -104l-83 -209h105v-41zM157 0l194 722h50l-194 -722h-50zM514 70q0 -71 -77 -71q-36 0 -56 16.5t-20 43.5v71h56v-63q0 -30 20 -30
q22 0 22 30v112q0 17 -6.5 24t-23.5 7h-22v39h20q19 0 25.5 5.5t6.5 21.5v99q0 28 -22 28q-19 0 -19 -28v-57h-56v53q0 70 77 70q75 0 75 -68v-94q0 -42 -21 -50q21 -7 21 -39v-120z" />
    <glyph glyph-name="oneeighth" unicode="&#x215b;" horiz-adv-x="556" 
d="M142 287h-56v375q-25 -13 -46 -22v48q38 17 54 34h48v-435zM129 0l194 722h50l-194 -722h-50zM424 -4q-77 0 -77 69v111q0 42 28 51q-28 11 -28 47v91q0 74 79 74q76 0 76 -76v-86q0 -37 -25 -50q25 -8 25 -41v-125q0 -65 -78 -65zM423 34q24 0 24 30v118q0 27 -21 27
q-23 0 -23 -27v-121q0 -27 20 -27zM424 244q23 0 23 29v105q0 23 -21 23q-22 0 -22 -26v-103q0 -28 20 -28z" />
    <glyph glyph-name="threeeighths" unicode="&#x215c;" horiz-adv-x="556" 
d="M193 357q0 -71 -77 -71q-36 0 -56 16.5t-20 43.5v71h56v-63q0 -30 20 -30q22 0 22 30v112q0 17 -6.5 24t-23.5 7h-22v39h20q19 0 25.5 5.5t6.5 21.5v99q0 28 -22 28q-19 0 -19 -28v-57h-56v53q0 70 77 70q75 0 75 -68v-94q0 -42 -21 -50q21 -7 21 -39v-120zM149 0
l194 722h50l-194 -722h-50zM437 -4q-77 0 -77 69v111q0 42 28 51q-28 11 -28 47v91q0 74 79 74q76 0 76 -76v-86q0 -37 -25 -50q25 -8 25 -41v-125q0 -65 -78 -65zM436 34q24 0 24 30v118q0 27 -21 27q-23 0 -23 -27v-121q0 -27 20 -27zM437 244q23 0 23 29v105q0 23 -21 23
q-22 0 -22 -26v-103q0 -28 20 -28z" />
    <glyph glyph-name="fiveeighths" unicode="&#x215d;" horiz-adv-x="556" 
d="M119 283q-38 0 -58.5 17.5t-20.5 49.5v64h57v-64q0 -29 21 -29t21 31v147q0 26 -20 26q-22 0 -22 -25v-26h-54v248h149v-42h-95v-127q20 11 38 11q60 0 60 -59v-142q0 -80 -76 -80zM154 0l194 722h50l-194 -722h-50zM438 -4q-77 0 -77 69v111q0 42 28 51q-28 11 -28 47
v91q0 74 79 74q76 0 76 -76v-86q0 -37 -25 -50q25 -8 25 -41v-125q0 -65 -78 -65zM437 34q24 0 24 30v118q0 27 -21 27q-23 0 -23 -27v-121q0 -27 20 -27zM438 244q23 0 23 29v105q0 23 -21 23q-22 0 -22 -26v-103q0 -28 20 -28z" />
    <glyph glyph-name="seveneighths" unicode="&#x215e;" horiz-adv-x="556" 
d="M74 287l80 393h-109v42h160v-47l-73 -388h-58zM129 0l194 722h50l-194 -722h-50zM425 -4q-77 0 -77 69v111q0 42 28 51q-28 11 -28 47v91q0 74 79 74q76 0 76 -76v-86q0 -37 -25 -50q25 -8 25 -41v-125q0 -65 -78 -65zM424 34q24 0 24 30v118q0 27 -21 27q-23 0 -23 -27
v-121q0 -27 20 -27zM425 244q23 0 23 29v105q0 23 -21 23q-22 0 -22 -26v-103q0 -28 20 -28z" />
    <glyph glyph-name="partialdiff" unicode="&#x2202;" horiz-adv-x="425" 
d="M177 -10q-68 0 -108.5 54t-40.5 151q0 105 53 175t129 70q73 0 109 -64l4 2l1 23q0 137 -44.5 220.5t-108.5 83.5q-56 0 -107 -34l-19 43q64 44 132 44q86 0 149.5 -100.5t63.5 -274.5q0 -196 -64 -294.5t-149 -98.5zM184 42q52 0 90.5 76.5t43.5 186.5q-14 40 -40 62.5
t-56 22.5q-52 0 -89 -54.5t-37 -137.5q0 -81 25 -118.5t63 -37.5z" />
    <glyph glyph-name="Delta" unicode="&#x2206;" horiz-adv-x="560" 
d="M549 0h-538l228 722h78zM461 57l-184 605l-182 -605h366z" />
    <glyph glyph-name="product" unicode="&#x220f;" horiz-adv-x="573" 
d="M50 -132v883h476v-883h-65v828h-346v-828h-65z" />
    <glyph glyph-name="summation" unicode="&#x2211;" horiz-adv-x="512" 
d="M10 -132v42q96 187 206 395l-193 400v46h463v-53h-378v-10l179 -378l-194 -378v-11h420v-53h-503z" />
    <glyph glyph-name="minus" unicode="&#x2212;" horiz-adv-x="600" 
d="M547 218h-494v45h494v-45z" />
    <glyph glyph-name="uni2215" unicode="&#x2215;" horiz-adv-x="130" 
d="M-57 0l194 722h50l-194 -722h-50z" />
    <glyph glyph-name="uni2219" unicode="&#x2219;" horiz-adv-x="138" 
d="M104 274h-69v76h69v-76z" />
    <glyph glyph-name="radical" unicode="&#x221a;" horiz-adv-x="498" 
d="M234 -90l-148 407l-70 -27l-16 45l129 51q73 -209 110 -314q13 -39 20 -76h1q5 44 13 74q9 33 51 215.5t79 348.5l37 166h62l-209 -890h-59z" />
    <glyph glyph-name="infinity" unicode="&#x221e;" horiz-adv-x="722" 
d="M686 251q0 -62 -37 -103t-99 -41q-35 0 -72 18t-60 37t-56 51q-4 -3 -20.5 -17.5t-22 -19.5t-21 -17.5t-23.5 -17t-23 -13t-26 -12t-26 -6.5t-29 -3q-60 0 -97.5 40t-37.5 101q0 60 37 102.5t96 42.5q19 0 39 -5.5t33.5 -12t34 -21.5t29 -22t30.5 -27.5t27 -24.5
q28 28 41 40t40.5 33.5t52.5 30.5t52 9q61 0 99.5 -40.5t38.5 -101.5zM634 248q0 40 -22.5 66t-62.5 26q-19 0 -39 -7.5t-45 -27t-33.5 -27t-34.5 -31.5q2 -1 16.5 -14t18 -16t17.5 -14t20 -14.5t18.5 -11t21.5 -10t21 -5t23 -2.5q38 0 59.5 25t21.5 63zM326 247l-33 27.5
t-41 33t-38.5 21.5t-44.5 11q-36 0 -58.5 -27.5t-22.5 -64.5q0 -40 23 -64t62 -24q61 0 153 87z" />
    <glyph glyph-name="integral" unicode="&#x222b;" horiz-adv-x="314" 
d="M61 -147q-29 0 -43 7q4 25 9 48q16 -4 30 -4q72 0 72 178q0 3 -0.5 11.5t-0.5 13.5q-3 80 -3 424q0 230 135 230q22 0 38 -7q-1 -7 -4.5 -22t-5.5 -24q-12 3 -26 3q-41 0 -58.5 -41.5t-17.5 -143.5v-28q0 -56 4.5 -168t4.5 -178q0 -165 -33 -232t-101 -67z" />
    <glyph glyph-name="approxequal" unicode="&#x2248;" horiz-adv-x="600" 
d="M560 388q-7 -54 -37 -89.5t-81 -35.5q-41 0 -191 51q-69 23 -91 23q-33 0 -55 -24.5t-28 -58.5h-37q24 127 118 127q23 0 57.5 -9t89 -27.5t57.5 -19.5q56 -18 79 -18q65 0 84 81h35zM560 227q-8 -53 -37 -89t-81 -36q-18 0 -46 6.5t-48.5 12.5t-54.5 17.5t-42 14.5
q-66 23 -91 23q-33 0 -55 -24t-28 -59h-37q24 127 118 127q14 0 34.5 -4t45.5 -11.5t43.5 -13t46 -15.5t34.5 -12q54 -18 79 -18q65 0 84 81h35z" />
    <glyph glyph-name="notequal" unicode="&#x2260;" horiz-adv-x="600" 
d="M543 127h-286l-75 -141l-39 21l64 120h-158v45h182l73 137h-255v45h280l77 144l39 -20l-67 -124h165v-45h-189l-73 -137h262v-45z" />
    <glyph glyph-name="lessequal" unicode="&#x2264;" horiz-adv-x="600" 
d="M547 65l-495 195v49l495 195v-50l-432 -170l432 -170v-49zM547 -21h-495v44h495v-44z" />
    <glyph glyph-name="greaterequal" unicode="&#x2265;" horiz-adv-x="600" 
d="M547 260l-495 -195v49l432 170l-432 170v50l495 -195v-49zM547 -21h-495v44h495v-44z" />
    <glyph glyph-name="lozenge" unicode="&#x25ca;" horiz-adv-x="493" 
d="M215 -31l-163 361l163 362h61l163 -362l-163 -361h-61zM245 35h3q5 17 7 22l115 271l-116 273q-6 12 -9 26h-2q-1 -4 -4 -11.5t-4 -10.5l-115 -273l104 -244q2 -5 7 -15.5t8.5 -19.5t5.5 -18z" />
    <glyph glyph-name="f_i" unicode="&#xf001;" horiz-adv-x="308" 
d="M45 0v492h-30v53h30v86q0 47 15.5 71t67.5 24q4 0 12 -0.5t12 -0.5v-53q-6 2 -8 2q-35 0 -35 -46v-83h41v-53h-41v-492h-64zM200 648v74h67v-74h-67zM203 0v545h62v-545h-62z" />
    <glyph glyph-name="f_l" unicode="&#xf002;" horiz-adv-x="308" 
d="M45 0v492h-30v53h30v86q0 47 15.5 71t67.5 24q4 0 12 -0.5t12 -0.5v-53q-6 2 -8 2q-35 0 -35 -46v-83h41v-53h-41v-492h-64zM203 0v722h62v-722h-62z" />
    <glyph glyph-name="uniF8FF" unicode="&#xf8ff;" horiz-adv-x="497" 
d="M270 114h-55v64h55v-64zM263 228h-47v16q0 51 11.5 77t47.5 57q47 46 47 82q0 34 -22 58t-52 24q-69 0 -79 -92l-49 8q7 67 41.5 100t89.5 33q54 0 87.5 -35t33.5 -92q0 -33 -12.5 -57.5t-48.5 -58.5q-35 -31 -41.5 -47t-6.5 -59v-14zM48 48h401v600h-401v-600zM0 697
h497v-697h-497v697z" />
    <glyph glyph-name="grave.cap" horiz-adv-x="148" 
d="M59 753l-62 108h70l43 -108h-51z" />
    <glyph glyph-name="acute.cap" horiz-adv-x="148" 
d="M31 753l45 108h71l-64 -108h-52z" />
    <glyph glyph-name="circumflex.cap" horiz-adv-x="148" 
d="M-12 753l46 108h85l42 -108h-60l-24 71l-29 -71h-60z" />
    <glyph glyph-name="caron.cap" horiz-adv-x="148" 
d="M31 753l-42 108h58l28 -75l28 75h57l-44 -108h-85z" />
    <glyph glyph-name="caron.alt" horiz-adv-x="148" 
d="M31 614l24 108h62l-39 -108h-47z" />
    <glyph glyph-name="tilde.cap" horiz-adv-x="148" 
d="M16 772h-33q0 28 15.5 47t42.5 19q13 0 34.5 -9t30.5 -9t16 6.5t7 15.5h35q-2 -28 -17.5 -48.5t-42.5 -20.5q-12 0 -34 9.5t-33 9.5q-15 0 -21 -20z" />
    <glyph glyph-name="dieresis.cap" horiz-adv-x="148" 
d="M-7 766v77h60v-77h-60zM94 766v77h60v-77h-60z" />
    <glyph glyph-name="macron.cap" horiz-adv-x="148" 
d="M-16 783v46h179v-46h-179z" />
    <glyph glyph-name="breve.cap" horiz-adv-x="148" 
d="M-18 838v4h35q3 -33 53 -33q53 0 59 33h36v-5q0 -35 -27.5 -54t-63.5 -19q-92 0 -92 74z" />
    <glyph glyph-name="ring.cap" horiz-adv-x="148" 
d="M74 735q-28 0 -47.5 20t-19.5 47q0 28 19.5 47.5t47.5 19.5t47.5 -19.5t19.5 -47.5q0 -27 -19.5 -47t-47.5 -20zM74 770q13 0 22.5 9.5t9.5 22.5q0 14 -9.5 23.5t-22.5 9.5t-22.5 -9.5t-9.5 -23.5q0 -13 9.5 -22.5t22.5 -9.5z" />
    <glyph glyph-name="hungarumlaut.cap" horiz-adv-x="148" 
d="M83 753l44 108h70l-70 -108h-44zM-17 753l44 108h70l-70 -108h-44z" />
    <glyph glyph-name="dotaccent.cap" horiz-adv-x="148" 
d="M43 766v77h62v-77h-62z" />
    <glyph glyph-name="commaaccent" horiz-adv-x="148" 
d="M35 -136l24 108h62l-39 -108h-47z" />
    <glyph glyph-name="commaaccent.alt" horiz-adv-x="148" 
d="M39 614l39 108h47l-24 -108h-62z" />
    </font>
</defs>
</svg>
