<?xml version="1.0" encoding="utf-8"?>
<!-- Generator: Adobe Illustrator 21.0.0, SVG Export Plug-In . SVG Version: 6.00 Build 0)  -->
<svg version="1.1" id="Layer_1" xmlns="http://www.w3.org/2000/svg" xmlns:xlink="http://www.w3.org/1999/xlink" x="0px" y="0px"
	 viewBox="0 0 522 441" style="enable-background:new 0 0 522 441;" xml:space="preserve" preserveAspectRatio="none">
<style type="text/css">
	.st0{fill:url(#SVGID_1_);}
</style>
<g>
	<g>
		<radialGradient id="SVGID_1_" cx="260.9991" cy="220.4979" r="241.5987" gradientUnits="userSpaceOnUse">
			<stop  offset="0" style="stop-color:#BC537B"/>
			<stop  offset="0.4391" style="stop-color:#C8B78E"/>
			<stop  offset="1" style="stop-color:#8A3651"/>
		</radialGradient>
		<path class="st0" d="M418,8.7L418,7.2l-48,2l0.1,1.5L418,8.7z M375.1,23.7l57-10l-0.3-1.5l-57,10L375.1,23.7z M380.2,38.7l66-19
			l-0.4-1.4l-66,19L380.2,38.7z M386.3,52.7l75-29l-0.5-1.4l-75,29L386.3,52.7z M398.4,70.6l73-42l-0.7-1.3l-73,42L398.4,70.6z
			 M407.4,84.6l73-52l-0.9-1.2l-73,52L407.4,84.6z M428.5,94.5l59-58l-1.1-1.1l-59,58L428.5,94.5z M443.6,107.4l48-64l-1.2-0.9
			l-48,64L443.6,107.4z M456.7,120.4l38-68l-1.3-0.7l-38,68L456.7,120.4z M473.7,125.3l26-61l-1.4-0.6l-26,61L473.7,125.3z
			 M489.7,125.2l14-49l-1.4-0.4l-14,49L489.7,125.2z M503.7,125.2l7-33l-1.5-0.3l-7,33L503.7,125.2z M146,9L97.9,7l-0.1,1.5l48.1,2
			L146,9z M141.1,22L84,12l-0.3,1.5l57.1,10L141.1,22z M136.2,37L70,18l-0.4,1.4l66.1,19L136.2,37z M130.2,51L55.1,22l-0.5,1.4
			l75.1,29L130.2,51z M118.3,69.1l-73.1-42l-0.7,1.3l73.1,42L118.3,69.1z M109.3,83.1l-73.1-52l-0.9,1.2l73.1,52L109.3,83.1z
			 M88.4,93.2l-59.1-58l-1.1,1.1l59.1,58L88.4,93.2z M73.4,106.3l-48.1-64l-1.2,0.9l48.1,64L73.4,106.3z M60.5,119.4l-38.1-68
			l-1.3,0.7l38.1,68L60.5,119.4z M43.5,124.4l-26-61L16,64l26,61L43.5,124.4z M27.5,124.5l-14-49L12,75.9l14,49L27.5,124.5z
			 M13.5,124.6l-7-33L5,91.9l7,33L13.5,124.6z M370.2,426.8l48,2l0.1-1.5l-48-2L370.2,426.8z M375.1,413.8l57,10l0.3-1.5l-57-10
			L375.1,413.8z M380,398.8l66,19l0.4-1.4l-66-19L380,398.8z M385.9,384.8l75,28.9l0.5-1.4l-75-28.9L385.9,384.8z M397.8,366.8
			l73,41.9l0.7-1.3l-73-41.9L397.8,366.8z M406.8,352.8l73,51.9l0.9-1.2l-73-51.9L406.8,352.8z M427.7,342.7l59,57.9l1.1-1.1
			l-59-57.9L427.7,342.7z M442.6,329.7l48,63.8l1.2-0.9l-48-63.8L442.6,329.7z M455.6,316.6l38,67.8l1.3-0.7l-38-67.8L455.6,316.6z
			 M472.6,311.6l26,60.9l1.4-0.6L474,311L472.6,311.6z M488.5,311.5l14,48.9l1.4-0.4l-14-48.9L488.5,311.5z M504,311.1l-1.5,0.3
			l7,32.9l1.5-0.3L504,311.1z M97.9,427.5L98,429l48.1-2l-0.1-1.5L97.9,427.5z M140.9,412.6l-57.1,10L84,424l57.1-10L140.9,412.6z
			 M135.8,397.6l-66.2,18.9l0.4,1.4l66.2-18.9L135.8,397.6z M129.7,383.7l-75.2,28.9l0.5,1.4l75.2-28.9L129.7,383.7z M117.6,365.8
			l-73.2,41.9l0.7,1.3l73.2-41.9L117.6,365.8z M108.5,351.8l-73.2,51.9l0.9,1.2l73.2-51.9L108.5,351.8z M87.4,341.9l-59.1,57.8
			l1.1,1.1L88.4,343L87.4,341.9z M72.3,329.1l-48.1,63.8l1.2,0.9L73.5,330L72.3,329.1z M59.2,316.2L21.1,384l1.3,0.7l38.1-67.8
			L59.2,316.2z M42.1,311.3l-26.1,60.8l1.4,0.6l26.1-60.8L42.1,311.3z M26,311.4l-14,48.9l1.4,0.4l14-48.9L26,311.4z M6.5,344.6
			l7-32.9l-1.5-0.3l-7,32.9L6.5,344.6z M103.9,99c-38.5,38.3-96.7,46.3-97.3,46.4L6,145.4V157h1.5v-10.3c6.6-1,60.8-10.2,97.5-46.7
			L103.9,99z M511,144.4l-0.7-0.1c-0.6-0.1-58.8-8.1-97.3-46.4L412,99c36.7,36.5,91,45.7,97.5,46.7V156h1.5V144.4z M105,336
			c-36.7-36.5-91-45.7-97.5-46.7V279H6v11.6l0.7,0.1c0.6,0.1,58.8,8.1,97.3,46.4L105,336z M509.5,290.2c-6.6,1-60.8,10.3-97.5,46.7
			l1.1,1.1c38.5-38.3,96.7-46.3,97.3-46.4l0.7-0.1V280h-1.5V290.2z M399,85.2c-29.1-37.5-32.3-78.1-32.3-78.5L366.6,6H158.5
			l-0.1,0.7c-0.1,0.6-7.6,58.1-39.4,84.2l1,1.2c30.4-24.9,38.9-78,39.9-84.5h205.4c0.6,5.6,5.3,43.5,32.6,78.6L399,85.2z M0.8,10.3
			c-0.4,0-0.8,0.3-0.8,0.8c0,0.5,0.3,0.8,0.8,0.8h2.8v1.3c0,0.5,0.3,0.8,0.8,0.8c0.4,0,0.8-0.3,0.8-0.8v-1.3h1.2v1.3
			c0,0.4,0.4,0.8,0.8,0.8c0.4,0,0.8-0.3,0.8-0.8v-1.3h1.3c1.5,0,2.8-1.3,2.8-2.9c0-1.1-0.6-2-1.5-2.5c0.3-0.5,0.5-1,0.5-1.6
			c0-1.6-1.3-2.8-2.8-2.8H7.9V0.8C7.9,0.3,7.6,0,7.2,0C6.7,0,6.4,0.3,6.4,0.8v1.3H5.1V0.8C5.1,0.3,4.8,0,4.3,0
			C3.9,0,3.5,0.3,3.5,0.8v1.3H0.8C0.3,2.1,0,2.4,0,2.9s0.3,0.8,0.8,0.8h1.3v6.7H0.8z M3.6,3.6h4.5c0.7,0,1.3,0.6,1.3,1.3
			c0,0.7-0.6,1.3-1.3,1.3H3.6V3.6z M3.6,7.8h4.5c0,0,0,0,0,0s0,0,0,0h1c0.7,0,1.2,0.6,1.2,1.3c0,0.7-0.5,1.2-1.2,1.2H3.6V7.8z
			 M10.5,433.5c0.3-0.5,0.5-1,0.5-1.6c0-1.6-1.3-2.8-2.8-2.8H7.9v-1.3c0-0.5-0.3-0.8-0.8-0.8c-0.4,0-0.8,0.3-0.8,0.8v1.3H5.1v-1.3
			c0-0.5-0.3-0.8-0.8-0.8c-0.4,0-0.8,0.3-0.8,0.8v1.3H0.8c-0.4,0-0.8,0.3-0.8,0.8c0,0.5,0.3,0.8,0.8,0.8h1.3v6.7H0.8
			c-0.4,0-0.8,0.3-0.8,0.8c0,0.5,0.3,0.8,0.8,0.8h2.8v1.3c0,0.5,0.3,0.8,0.8,0.8c0.4,0,0.8-0.3,0.8-0.8v-1.3h1.2v1.3
			c0,0.4,0.4,0.8,0.8,0.8c0.4,0,0.8-0.3,0.8-0.8v-1.3h1.3c1.5,0,2.8-1.3,2.8-2.9C12,434.9,11.4,434,10.5,433.5z M3.6,430.6h4.5
			c0.7,0,1.3,0.6,1.3,1.3c0,0.7-0.6,1.3-1.3,1.3H3.6V430.6z M9.2,437.3H3.6v-2.5h4.5c0,0,0,0,0,0s0,0,0,0h1c0.7,0,1.2,0.6,1.2,1.3
			C10.4,436.7,9.9,437.3,9.2,437.3z M520.5,433.5c0.3-0.5,0.5-1,0.5-1.6c0-1.6-1.3-2.8-2.8-2.8h-0.2v-1.3c0-0.5-0.3-0.8-0.8-0.8
			c-0.4,0-0.8,0.3-0.8,0.8v1.3h-1.2v-1.3c0-0.5-0.3-0.8-0.8-0.8s-0.8,0.3-0.8,0.8v1.3h-2.8c-0.4,0-0.8,0.3-0.8,0.8
			c0,0.5,0.3,0.8,0.8,0.8h1.3v6.7h-1.3c-0.4,0-0.8,0.3-0.8,0.8c0,0.5,0.3,0.8,0.8,0.8h2.8v1.3c0,0.5,0.3,0.8,0.8,0.8
			s0.8-0.3,0.8-0.8v-1.3h1.2v1.3c0,0.4,0.4,0.8,0.8,0.8c0.4,0,0.8-0.3,0.8-0.8v-1.3h1.3c1.5,0,2.8-1.3,2.8-2.9
			C522,434.9,521.4,434,520.5,433.5z M513.6,430.6h4.5c0.7,0,1.3,0.6,1.3,1.3c0,0.7-0.6,1.3-1.3,1.3h-4.5V430.6z M519.2,437.3h-5.6
			v-2.5h4.5c0,0,0,0,0,0s0,0,0,0h1c0.7,0,1.2,0.6,1.2,1.3C520.4,436.7,519.9,437.3,519.2,437.3z M510.8,13.3c-0.4,0-0.8,0.3-0.8,0.8
			s0.3,0.8,0.8,0.8h2.8v1.3c0,0.5,0.3,0.8,0.8,0.8s0.8-0.3,0.8-0.8v-1.3h1.2v1.3c0,0.4,0.4,0.8,0.8,0.8c0.4,0,0.8-0.3,0.8-0.8v-1.3
			h1.3c1.5,0,2.8-1.3,2.8-2.9c0-1.1-0.6-2-1.5-2.5c0.3-0.5,0.5-1,0.5-1.6c0-1.6-1.3-2.8-2.8-2.8h-0.2V3.8c0-0.5-0.3-0.8-0.8-0.8
			c-0.4,0-0.8,0.3-0.8,0.8v1.3h-1.2V3.8c0-0.5-0.3-0.8-0.8-0.8s-0.8,0.3-0.8,0.8v1.3h-2.8c-0.4,0-0.8,0.3-0.8,0.8s0.3,0.8,0.8,0.8
			h1.3v6.7H510.8z M513.6,6.6h4.5c0.7,0,1.3,0.6,1.3,1.3c0,0.7-0.6,1.3-1.3,1.3h-4.5V6.6z M513.6,10.8h4.5c0,0,0,0,0,0s0,0,0,0h1
			c0.7,0,1.2,0.6,1.2,1.3c0,0.7-0.6,1.2-1.2,1.2h-5.6V10.8z"/>
	</g>
</g>
</svg>
