<?xml version="1.0" encoding="utf-8"?>
<!-- Generator: Adobe Illustrator 21.0.0, SVG Export Plug-In . SVG Version: 6.00 Build 0)  -->
<svg version="1.1" id="Layer_1" xmlns="http://www.w3.org/2000/svg" xmlns:xlink="http://www.w3.org/1999/xlink" x="0px" y="0px"
	 viewBox="0 0 406 236" style="enable-background:new 0 0 406 236;" xml:space="preserve" preserveAspectRatio="none">
<style type="text/css">
	.st0{fill:url(#SVGID_1_);}
</style>
<g>
	<g>
		<radialGradient id="SVGID_1_" cx="202.9993" cy="117.9983" r="166.0306" gradientUnits="userSpaceOnUse">
			<stop  offset="0" style="stop-color:#BC537B"/>
			<stop  offset="0.4391" style="stop-color:#C8B78E"/>
			<stop  offset="1" style="stop-color:#8A3651"/>
		</radialGradient>
		<path class="st0" d="M325.1,5.6l-37.3,1.6l0,1.2l37.3-1.6L325.1,5.6z M291.8,18.5l44.3-7.8l-0.2-1.1l-44.3,7.8L291.8,18.5z
			 M295.7,30.1l51.3-14.8l-0.3-1.1L295.4,29L295.7,30.1z M300.4,41l58.3-22.6l-0.4-1.1L300,39.9L300.4,41z M309.8,54.9l56.8-32.7
			l-0.6-1l-56.8,32.7L309.8,54.9z M316.9,65.8l56.8-40.4l-0.7-1l-56.8,40.4L316.9,65.8z M113.6,7L76.2,5.4l0,1.2l37.4,1.6L113.6,7z
			 M109.7,17.1L65.3,9.3l-0.2,1.1l44.4,7.8L109.7,17.1z M105.9,28.8L54.5,14l-0.3,1.1l51.4,14.8L105.9,28.8z M101.3,39.7L42.8,17.1
			l-0.4,1.1l58.4,22.5L101.3,39.7z M92,53.7L35.1,21.1l-0.6,1l56.9,32.7L92,53.7z M85,64.6L28.2,24.2l-0.7,1l56.9,40.4L85,64.6z
			 M287.9,224.9l37.4,1.6l0-1.2l-37.4-1.6L287.9,224.9z M291.7,214.8l44.4,7.8l0.2-1.1l-44.4-7.8L291.7,214.8z M295.6,203.2
			l51.4,14.7l0.3-1.1l-51.4-14.7L295.6,203.2z M300.2,192.3l58.4,22.5l0.4-1.1l-58.4-22.5L300.2,192.3z M309.4,178.3l56.8,32.6
			l0.6-1L310,177.3L309.4,178.3z M316.4,167.4l56.8,40.3l0.7-0.9l-56.8-40.3L316.4,167.4z M76.1,225.5l0,1.2l37.4-1.6l0-1.2
			L76.1,225.5z M109.6,213.9l-44.4,7.8l0.2,1.1l44.4-7.8L109.6,213.9z M105.6,202.3L54.2,217l0.3,1.1l51.5-14.7L105.6,202.3z
			 M100.9,191.4l-58.5,22.5l0.4,1.1l58.5-22.5L100.9,191.4z M91.5,177.5l-56.9,32.6l0.6,1l56.9-32.6L91.5,177.5z M84.4,166.7
			L27.5,207l0.7,0.9l56.9-40.3L84.4,166.7z M8.2,5.1c0.2-0.4,0.4-0.8,0.4-1.2c0-1.2-1-2.2-2.2-2.2H6.2v-1C6.2,0.3,5.9,0,5.6,0
			S4.9,0.3,4.9,0.6v1H4v-1C4,0.3,3.7,0,3.4,0C3,0,2.8,0.3,2.8,0.6v1H0.6C0.3,1.6,0,1.9,0,2.2s0.3,0.6,0.6,0.6h1V8h-1
			C0.3,8,0,8.3,0,8.6C0,9,0.3,9.3,0.6,9.3h2.1v1c0,0.4,0.3,0.6,0.6,0.6c0.3,0,0.6-0.3,0.6-0.6v-1h0.9v1c0,0.3,0.3,0.6,0.6,0.6
			c0.3,0,0.6-0.3,0.6-0.6v-1h1c1.2,0,2.2-1,2.2-2.2C9.3,6.1,8.9,5.4,8.2,5.1z M2.8,2.8h3.5c0.5,0,1,0.5,1,1c0,0.5-0.5,1-1,1H2.8V2.8
			z M7.1,8H2.8V6h3.5c0,0,0,0,0,0s0,0,0,0h0.8c0.5,0,1,0.4,1,1C8.1,7.6,7.7,8,7.1,8z M8.2,230.2c0.2-0.4,0.4-0.8,0.4-1.2
			c0-1.2-1-2.2-2.2-2.2H6.2v-1c0-0.4-0.3-0.6-0.6-0.6s-0.6,0.3-0.6,0.6v1H4v-1c0-0.4-0.3-0.6-0.6-0.6c-0.3,0-0.6,0.3-0.6,0.6v1H0.6
			c-0.3,0-0.6,0.3-0.6,0.6c0,0.4,0.3,0.6,0.6,0.6h1v5.2h-1c-0.3,0-0.6,0.3-0.6,0.6c0,0.4,0.3,0.6,0.6,0.6h2.1v1
			c0,0.4,0.3,0.6,0.6,0.6c0.3,0,0.6-0.3,0.6-0.6v-1h0.9v1c0,0.3,0.3,0.6,0.6,0.6c0.3,0,0.6-0.3,0.6-0.6v-1h1c1.2,0,2.2-1,2.2-2.2
			C9.3,231.3,8.9,230.5,8.2,230.2z M2.8,227.9h3.5c0.5,0,1,0.5,1,1c0,0.5-0.5,1-1,1H2.8V227.9z M7.1,233.1H2.8v-2h3.5c0,0,0,0,0,0
			s0,0,0,0h0.8c0.5,0,1,0.4,1,1C8.1,232.7,7.7,233.1,7.1,233.1z M404.8,230.2c0.2-0.4,0.4-0.8,0.4-1.2c0-1.2-1-2.2-2.2-2.2h-0.2v-1
			c0-0.4-0.3-0.6-0.6-0.6s-0.6,0.3-0.6,0.6v1h-1v-1c0-0.4-0.3-0.6-0.6-0.6s-0.6,0.3-0.6,0.6v1h-2.1c-0.3,0-0.6,0.3-0.6,0.6
			c0,0.4,0.3,0.6,0.6,0.6h1v5.2h-1c-0.3,0-0.6,0.3-0.6,0.6c0,0.4,0.3,0.6,0.6,0.6h2.1v1c0,0.4,0.3,0.6,0.6,0.6s0.6-0.3,0.6-0.6v-1
			h0.9v1c0,0.3,0.3,0.6,0.6,0.6c0.3,0,0.6-0.3,0.6-0.6v-1h1c1.2,0,2.2-1,2.2-2.2C406,231.3,405.5,230.5,404.8,230.2z M399.5,227.9
			h3.5c0.5,0,1,0.5,1,1c0,0.5-0.5,1-1,1h-3.5V227.9z M403.8,233.1h-4.3v-2h3.5c0,0,0,0,0,0s0,0,0,0h0.8c0.5,0,1,0.4,1,1
			C404.8,232.7,404.3,233.1,403.8,233.1z M397.3,10.4c-0.3,0-0.6,0.3-0.6,0.6c0,0.4,0.3,0.6,0.6,0.6h2.1v1c0,0.4,0.3,0.6,0.6,0.6
			s0.6-0.3,0.6-0.6v-1h0.9v1c0,0.3,0.3,0.6,0.6,0.6c0.3,0,0.6-0.3,0.6-0.6v-1h1c1.2,0,2.2-1,2.2-2.2c0-0.9-0.5-1.6-1.2-1.9
			c0.2-0.4,0.4-0.8,0.4-1.2c0-1.2-1-2.2-2.2-2.2h-0.2V3c0-0.4-0.3-0.6-0.6-0.6s-0.6,0.3-0.6,0.6v1h-1V3c0-0.4-0.3-0.6-0.6-0.6
			s-0.6,0.3-0.6,0.6v1h-2.1c-0.3,0-0.6,0.3-0.6,0.6c0,0.4,0.3,0.6,0.6,0.6h1v5.2H397.3z M399.5,5.1h3.5c0.5,0,1,0.5,1,1
			c0,0.5-0.5,1-1,1h-3.5V5.1z M399.5,8.4h3.5c0,0,0,0,0,0s0,0,0,0h0.8c0.5,0,1,0.4,1,1c0,0.5-0.4,1-1,1h-4.3V8.4z"/>
	</g>
</g>
</svg>
