<?xml version="1.0" encoding="utf-8"?>
<!-- Generator: Adobe Illustrator 21.0.0, SVG Export Plug-In . SVG Version: 6.00 Build 0)  -->
<svg version="1.1" id="BG" xmlns="http://www.w3.org/2000/svg" xmlns:xlink="http://www.w3.org/1999/xlink" x="0px" y="0px"
	 viewBox="0 0 104.9 64" style="enable-background:new 0 0 104.9 64;" xml:space="preserve">
<style type="text/css">
	.st0{fill:url(#SVGID_1_);}
</style>
<linearGradient id="SVGID_1_" gradientUnits="userSpaceOnUse" x1="3.875375e-07" y1="32.0034" x2="104.9463" y2="32.0034" gradientTransform="matrix(-1 0 0 -1 104.9463 64.0069)">
	<stop  offset="0" style="stop-color:#633A4A"/>
	<stop  offset="1" style="stop-color:#96416C"/>
</linearGradient>
<path class="st0" d="M104.2,5.7l0.7,0.7C68,43.5,13,52.6,7.6,53.5V64h-1V52.6L7,52.5C7.6,52.4,65.7,44.4,104.2,5.7z M11.8,8.8
	c0,1.6-1.2,2.8-2.8,2.8H7.8v1.2c0,0.4-0.3,0.8-0.8,0.8c-0.4,0-0.8-0.3-0.8-0.7v-1.2H5v1.2c0,0.4-0.3,0.8-0.8,0.8s-0.8-0.3-0.8-0.8
	v-1.2H2.8h-2c-0.4,0-0.8-0.3-0.8-0.8C0,10.4,0.3,10,0.8,10H2V6.8V3.6H0.8C0.3,3.6,0,3.2,0,2.8C0,2.4,0.3,2,0.8,2h2h0.7V0.8
	C3.5,0.3,3.8,0,4.2,0C4.7,0,5,0.3,5,0.8V2h1.2V0.8C6.2,0.3,6.6,0,7,0c0.4,0,0.8,0.3,0.8,0.8V2H8c1.5,0,2.8,1.2,2.8,2.8
	c0,0.6-0.2,1.1-0.5,1.6C11.2,6.8,11.8,7.7,11.8,8.8z M3.5,6H8c0.7,0,1.2-0.6,1.2-1.2S8.6,3.5,8,3.5H3.5V6z M10.2,8.8
	c0-0.7-0.5-1.2-1.2-1.2H8c0,0,0,0,0,0s0,0,0,0H3.5V10H9C9.7,10,10.2,9.5,10.2,8.8z"/>
</svg>
