<?xml version="1.0" encoding="utf-8"?>
<!-- Generator: Adobe Illustrator 21.0.0, SVG Export Plug-In . SVG Version: 6.00 Build 0)  -->
<svg version="1.1" id="BG" xmlns="http://www.w3.org/2000/svg" xmlns:xlink="http://www.w3.org/1999/xlink" x="0px" y="0px"
	 viewBox="0 0 104.9 64" style="enable-background:new 0 0 104.9 64;" xml:space="preserve">
<style type="text/css">
	.st0{fill:url(#SVGID_1_);}
</style>
<linearGradient id="SVGID_1_" gradientUnits="userSpaceOnUse" x1="0" y1="32.0034" x2="104.9463" y2="32.0034">
	<stop  offset="0" style="stop-color:#633A4A"/>
	<stop  offset="1" style="stop-color:#96416C"/>
</linearGradient>
<path class="st0" d="M0.7,58.3L0,57.6c37-37.1,91.9-46.2,97.4-47V0h1v11.4l-0.4,0.1C97.3,11.6,39.2,19.6,0.7,58.3z M104.9,59.2
	c0,1.6-1.2,2.8-2.8,2.8h-1.2v1.2c0,0.4-0.3,0.8-0.8,0.8c-0.4,0-0.8-0.3-0.8-0.7V62h-1.2v1.2c0,0.4-0.3,0.8-0.8,0.8
	c-0.4,0-0.8-0.3-0.8-0.8V62H96h-2c-0.4,0-0.8-0.3-0.8-0.8c0-0.4,0.3-0.8,0.8-0.8h1.2v-3.2V54H94c-0.4,0-0.8-0.3-0.8-0.8
	c0-0.4,0.3-0.8,0.8-0.8h2h0.7v-1.2c0-0.4,0.3-0.8,0.8-0.8c0.4,0,0.8,0.3,0.8,0.8v1.2h1.2v-1.2c0-0.4,0.3-0.8,0.8-0.8
	c0.4,0,0.8,0.3,0.8,0.8v1.2h0.2c1.5,0,2.8,1.2,2.8,2.8c0,0.6-0.2,1.1-0.5,1.6C104.3,57.2,104.9,58.1,104.9,59.2z M96.7,56.4h4.4
	c0.7,0,1.2-0.6,1.2-1.2c0-0.7-0.6-1.2-1.2-1.2h-4.4V56.4z M103.4,59.2c0-0.7-0.5-1.2-1.2-1.2h-1c0,0,0,0,0,0s0,0,0,0h-4.4v2.5h5.5
	C102.9,60.4,103.4,59.9,103.4,59.2z"/>
</svg>
