<?xml version="1.0" encoding="utf-8"?>
<!-- Generator: Adobe Illustrator 21.0.0, SVG Export Plug-In . SVG Version: 6.00 Build 0)  -->
<svg version="1.1" id="BG" xmlns="http://www.w3.org/2000/svg" xmlns:xlink="http://www.w3.org/1999/xlink" x="0px" y="0px"
	 viewBox="0 0 104.9 64" style="enable-background:new 0 0 104.9 64;" xml:space="preserve">
<style type="text/css">
	.st0{fill:url(#SVGID_1_);}
</style>
<linearGradient id="SVGID_1_" gradientUnits="userSpaceOnUse" x1="1.091394e-10" y1="32.0034" x2="104.9463" y2="32.0034" gradientTransform="matrix(1 0 0 -1 0 64.0069)">
	<stop  offset="0" style="stop-color:#633A4A"/>
	<stop  offset="1" style="stop-color:#96416C"/>
</linearGradient>
<path class="st0" d="M97.9,52.5l0.4,0.1V64h-1V53.5C91.9,52.6,37,43.5,0,6.4l0.7-0.7C39.2,44.4,97.3,52.4,97.9,52.5z M104.9,8.8
	c0,1.6-1.2,2.8-2.8,2.8h-1.2v1.2c0,0.4-0.3,0.8-0.8,0.8c-0.4,0-0.8-0.3-0.8-0.7v-1.2h-1.2v1.2c0,0.4-0.3,0.8-0.8,0.8
	c-0.4,0-0.8-0.3-0.8-0.8v-1.2H96h-2c-0.4,0-0.8-0.3-0.8-0.8c0-0.4,0.3-0.8,0.8-0.8h1.2V6.8V3.6H94c-0.4,0-0.8-0.3-0.8-0.8
	C93.2,2.4,93.5,2,94,2h2h0.7V0.8C96.7,0.3,97,0,97.4,0c0.4,0,0.8,0.3,0.8,0.8V2h1.2V0.8c0-0.4,0.3-0.8,0.8-0.8
	c0.4,0,0.8,0.3,0.8,0.8V2h0.2c1.5,0,2.8,1.2,2.8,2.8c0,0.6-0.2,1.1-0.5,1.6C104.3,6.8,104.9,7.7,104.9,8.8z M96.7,6h4.4
	c0.7,0,1.2-0.6,1.2-1.2s-0.6-1.2-1.2-1.2h-4.4V6z M103.4,8.8c0-0.7-0.5-1.2-1.2-1.2h-1c0,0,0,0,0,0s0,0,0,0h-4.4V10h5.5
	C102.9,10,103.4,9.5,103.4,8.8z"/>
</svg>
