<?xml version="1.0" encoding="utf-8"?>
<!-- Generator: Adobe Illustrator 21.0.0, SVG Export Plug-In . SVG Version: 6.00 Build 0)  -->
<svg version="1.1" id="BG" xmlns="http://www.w3.org/2000/svg" xmlns:xlink="http://www.w3.org/1999/xlink" x="0px" y="0px"
	 viewBox="0 0 104.9 64" style="enable-background:new 0 0 104.9 64;" xml:space="preserve">
<style type="text/css">
	.st0{fill:url(#SVGID_1_);}
</style>
<linearGradient id="SVGID_1_" gradientUnits="userSpaceOnUse" x1="0" y1="32.0034" x2="104.9463" y2="32.0034" gradientTransform="matrix(-1 0 0 1 104.9463 0)">
	<stop  offset="0" style="stop-color:#633A4A"/>
	<stop  offset="1" style="stop-color:#96416C"/>
</linearGradient>
<path class="st0" d="M7,11.5l-0.4-0.1V0l1,0v10.6c5.4,0.8,60.4,9.9,97.4,47l-0.7,0.7C65.7,19.6,7.6,11.6,7,11.5z M11.8,59.2
	c0,1.6-1.2,2.8-2.8,2.8H7.8v1.2C7.8,63.6,7.4,64,7,64c-0.4,0-0.8-0.3-0.8-0.7V62H5v1.2C5,63.7,4.7,64,4.2,64s-0.8-0.3-0.8-0.8V62
	H2.8h-2C0.3,62,0,61.6,0,61.2c0-0.4,0.3-0.8,0.8-0.8H2v-3.2V54H0.8C0.3,54,0,53.6,0,53.2c0-0.4,0.3-0.8,0.8-0.8h2h0.7v-1.2
	c0-0.4,0.3-0.8,0.8-0.8S5,50.7,5,51.2v1.2h1.2v-1.2c0-0.4,0.3-0.8,0.8-0.8c0.4,0,0.8,0.3,0.8,0.8v1.2H8c1.5,0,2.8,1.2,2.8,2.8
	c0,0.6-0.2,1.1-0.5,1.6C11.2,57.2,11.8,58.1,11.8,59.2z M3.5,56.4H8c0.7,0,1.2-0.6,1.2-1.2c0-0.7-0.6-1.2-1.2-1.2H3.5V56.4z
	 M10.2,59.2c0-0.7-0.5-1.2-1.2-1.2H8c0,0,0,0,0,0s0,0,0,0H3.5v2.5H9C9.7,60.4,10.2,59.9,10.2,59.2z"/>
</svg>
