<?xml version="1.0" encoding="utf-8"?>
<!-- Generator: Adobe Illustrator 21.0.0, SVG Export Plug-In . SVG Version: 6.00 Build 0)  -->
<svg version="1.1" id="Layer_2" xmlns="http://www.w3.org/2000/svg" xmlns:xlink="http://www.w3.org/1999/xlink" x="0px" y="0px"
	 viewBox="0 0 297.6 392.6" style="enable-background:new 0 0 297.6 392.6;" xml:space="preserve">
<style type="text/css">
	.st0{fill-rule:evenodd;clip-rule:evenodd;fill:#65314D;}
</style>
<path class="st0" d="M0,156.6L12.6,144l12,12h40.2l-5.4-5.4H43l-16-16v-17.6h17.6l16,16V150l6,6h13.9v-10H68.9v-15.8l-11.2-11.2
	l11.2-11.2V91.8h15.8l11.3-11.3h13.4l-9.3-9.2H87.4V57.5h13.7v12.7l9.2,9.3V66.3l11.4-11.4V39h15.8l10.6-10.6v-9.8l-9-9l9.7-9.7
	l9.7,9.7l-9,9v9.8L160,39h15.8v15.8l11.4,11.4l0,13.2l9.3-9.2V57.5h13.7v13.7h-12.8l-9.3,9.2h13.4l11.3,11.3h15.8v15.9l11.3,11.2
	l-11.3,11.2v15.8h-11.5l0.1,10h13.9l5.9-6l0-17.1l15.9-16h17.6v17.6l-15.9,16h-16.4l-5.3,5.4h40.2l11.9-12l12.6,12.6L285,169.2
	l-12-12H170.9l-22.1-21.9l-21.9,21.9H24.6l-12,12L0,156.6z M274.2,156.6l10.8,10.8l10.8-10.8L285,145.8L274.2,156.6z M1.8,156.6
	l10.8,10.8l10.8-10.8l-10.8-10.8L1.8,156.6z M202.9,155.9h13l-0.1-10h-3L202.9,155.9z M187.4,155.9h12.9l-10-10h-3L187.4,155.9z
	 M164.3,148.8l7.1,7.1h14.7l0-10h-11.6v-15.8l-10.2-10.2V148.8z M111.5,155.9h14.9l6.9-6.9v-29.1L123,130.1v15.8h-11.5V155.9z
	 M97.2,155.9h12.9v-10h-3L97.2,155.9z M81.8,155.9h12.9l-9.9-10h-3V155.9z M202.3,142.4v12.2l8.8-8.8H211l17.7-17.7l0.8-0.7l7.9-7.9
	h-12.3L202.3,142.4z M87.4,146.8l7.9,7.9v-12.2l-22.9-22.9H60.2l8.8,8.7v-0.1l17.7,17.7L87.4,146.8z M201,154.7v-12.2l-22.9-22.9
	h-12.2l8.7,8.7v0L201,154.7z M96.6,142.4v12.2l8.8-8.8h0l17.7-17.7l0.9-0.8l7.8-7.8h-12.2L96.6,142.4z M239.5,149.2h14.6l6.5-6.5
	h-14.5L239.5,149.2z M43.5,149.2h14.6l-6.5-6.5H37L43.5,149.2z M238.3,133.4v15.2l6.5-6.5l0-15.2L238.3,133.4z M52.8,142.2l6.5,6.5
	v-15.2l-6.5-6.5V142.2z M134.6,147.7l13.3-13.3l-13.3-13.3V147.7z M149.8,134.4l13.3,13.2v-26.5L149.8,134.4z M214.2,144.6h12.2
	l-6.1-6.1L214.2,144.6z M176.8,144.6h12.3l-6.1-6.1L176.8,144.6z M108.5,144.6h12.3l-6.2-6.1L108.5,144.6z M71.1,144.6h12.3
	l-6.1-6.1L71.1,144.6z M175.9,143.7l6.2-6.2l-6.2-6.1V143.7z M70.2,143.7l6.1-6.1l-6.1-6.1V143.7z M221.2,137.6l6.1,6.1v-12.2
	L221.2,137.6z M115.6,137.6l6.2,6.1v-12.3L115.6,137.6z M247.3,141.4h14.6l6.4-6.4h-14.6L247.3,141.4z M35.7,141.4h14.6l-6.4-6.4
	H29.3L35.7,141.4z M179.3,118.9l22.3,22.3l22.3-22.3l-22.3-22.3L179.3,118.9z M73.6,118.9L96,141.3l22.3-22.3L96,96.6L73.6,118.9z
	 M45.1,134.4l6.4,6.4v-15.2l-6.4-6.4V134.4z M246.1,125.6v15.2l6.4-6.4v-15.2L246.1,125.6z M255.1,133.7h14.3v-14.3L255.1,133.7z
	 M28.3,133.7h14.3l-14.3-14.3V133.7z M253.8,133.2l15-15h-15V133.2z M43.8,133.2v-15h-15L43.8,133.2z M134.6,119.3l13.6,13.6v-13.6
	l-13.6-13.6V119.3z M149.4,119.3v13.6l13.6-13.6v-13.6L149.4,119.3z M202.3,95.4l22.9,22.9h12.2l-35.1-35.1V95.4z M165.9,118.3h12.2
	L201,95.4V83.2L165.9,118.3z M96.6,95.4l22.9,22.9h12.2L96.6,83.2V95.4z M60.2,118.3h12.3l22.9-22.9V83.2L60.2,118.3z M164.3,118
	l10.2-10.2V93.1h-10.2V118z M123,107.8l10.2,10.2V93.1H123V107.8z M134.6,103.9l13.6,13.6v-13.8l-10.6-10.6h-3V103.9z M149.4,103.7
	v13.8l13.6-13.6V93.1h-3L149.4,103.7z M175.9,106.4l6.2-6.2l-6.2-6.2V106.4z M115.6,100.2l6.2,6.2V94L115.6,100.2z M70.2,106.4
	l6.2-6.2l-6.2-6.1V106.4z M221.2,100.2l6.2,6.2V94.1L221.2,100.2z M148.2,101.9V89.6l-22.9-22.9h-12.2L148.2,101.9z M149.4,89.6
	v12.2l35.1-35.1h-12.2L149.4,89.6z M220.3,99.3l6.2-6.2h-12.3L220.3,99.3z M182.9,99.3l6.2-6.2h-12.4L182.9,99.3z M77.3,99.3
	l6.2-6.2H71.1L77.3,99.3z M114.7,99.3l6.2-6.2h-12.4L114.7,99.3z M176.8,91.8h13.7l10-10h-13.7L176.8,91.8z M161.3,91.8h12.4
	l-6.2-6.2L161.3,91.8z M124,91.8h12.4l-6.2-6.2L124,91.8z M107.1,91.8h13.7l-10-10H97.1L107.1,91.8z M168.4,84.7l6.2,6.2V78.6
	L168.4,84.7z M123,90.9l6.2-6.2l-6.2-6.2V90.9z M111.6,80.8l10.1,10.1V77.3l-10.1-10.1V80.8z M175.9,77.3v13.6L186,80.8V67.2
	L175.9,77.3z M126.5,66.1l22.3,22.3l22.3-22.3l-22.3-22.3L126.5,66.1z M197.8,69.9h11.1V58.9h-11.1V69.9z M88.7,69.9h11.1V58.9H88.7
	V69.9z M149.4,42.6l22.9,22.9h12.2l-35.1-35.1V42.6z M113,65.4h12.3l22.9-22.9V30.3L113,65.4z M168.4,47.4l6.2,6.2V41.2L168.4,47.4z
	 M123,53.6l6.2-6.2l-6.2-6.1V53.6z M167.5,46.5l6.2-6.2h-12.4L167.5,46.5z M130.1,46.5l6.2-6.2H124L130.1,46.5z M141,9.7l7.9,7.9
	l7.8-7.9l-7.8-7.8L141,9.7z M86.3,118.9l9.7-9.7l9.7,9.7l-9.7,9.7L86.3,118.9z M88.1,118.9l7.9,7.8l7.8-7.8l-7.8-7.8L88.1,118.9z
	 M192,118.9l9.7-9.7l9.7,9.7l-9.7,9.7L192,118.9z M193.8,118.9l7.9,7.8l7.8-7.8l-7.8-7.8L193.8,118.9z M139.1,66.1l9.7-9.7l9.7,9.7
	l-9.7,9.7L139.1,66.1z M141,66.1l7.9,7.8l7.8-7.8l-7.8-7.9L141,66.1z"/>
<path class="st0" d="M139.1,383l9-9v-9.8l-10.6-10.6h-15.8v-15.8l-11.4-11.4v-13.3l-9.2,9.2v12.7H87.4v-13.7h12.8l9.3-9.3H96.1
	l-11.3-11.3H68.9V285l-11.2-11.3l11.2-11.2v-15.8h11.5v-9.9H66.6l-6,5.9v17.1l-16,15.9H27v-17.6l16-15.9h16.4l5.4-5.4H24.6l-12,11.9
	L0,236.1l12.6-12.6l12,12h102.3l21.9,21.9l22.1-21.9H273l12-12l12.6,12.6L285,248.7l-11.9-11.9h-40.2l5.3,5.4h16.4l15.9,15.9v17.6
	H253L237,259.8l0-17.1l-5.9-5.9h-13.9l-0.1,9.9h11.5v15.8l11.3,11.2L228.7,285v15.8h-15.8l-11.3,11.3h-13.4l9.3,9.3h12.8v13.7h-13.7
	v-12.7l-9.3-9.2l0,13.3l-11.4,11.4v15.8H160l-10.6,10.6v9.8l9,9l-9.7,9.7L139.1,383z M141,383l7.9,7.8l7.8-7.8l-7.8-7.9L141,383z
	 M149.4,350.1v12.2l35.1-35.1h-12.2L149.4,350.1z M148.2,362.3v-12.2l-22.9-22.9H113L148.2,362.3z M161.3,352.3h12.4l-6.2-6.2
	L161.3,352.3z M124,352.3h12.4l-6.2-6.2L124,352.3z M168.4,345.2l6.2,6.2v-12.4L168.4,345.2z M123,351.4l6.2-6.2l-6.2-6.2V351.4z
	 M126.5,326.6l22.3,22.3l22.3-22.3l-22.3-22.3L126.5,326.6z M197.8,333.8h11.1v-11.1h-11.1V333.8z M88.7,333.8h11.1v-11.1H88.7
	V333.8z M149.4,303l22.9,22.9h12.2l-35.1-35.1V303z M113.1,325.9h12.2l22.9-22.9v-12.3L113.1,325.9z M111.6,311.8v13.6l10.1-10.1
	v-13.6L111.6,311.8z M175.9,315.4l10.1,10.1v-13.6l-10.1-10.1V315.4z M168.4,307.9l6.2,6.2v-12.4L168.4,307.9z M123,314.1l6.2-6.2
	l-6.2-6.2V314.1z M186.8,310.8h13.7l-10-10h-13.7L186.8,310.8z M97.1,310.8h13.7l10-10h-13.7L97.1,310.8z M202.3,297.2v12.3
	l35.1-35.1h-12.2L202.3,297.2z M201,309.5v-12.3l-22.9-22.9h-12.2L201,309.5z M96.6,297.2v12.3l35.1-35.1h-12.2L96.6,297.2z
	 M95.3,309.5v-12.3l-22.9-22.9H60.2L95.3,309.5z M167.5,307l6.2-6.2h-12.4L167.5,307z M130.1,307l6.2-6.2H124L130.1,307z
	 M214.1,299.5h12.3l-6.2-6.2L214.1,299.5z M176.8,299.5h12.4l-6.2-6.2L176.8,299.5z M164.3,299.5h10.2v-14.6l-10.2-10.2V299.5z
	 M149.4,288.9l10.6,10.6h3v-10.7l-13.6-13.6V288.9z M134.6,288.8v10.7h3l10.6-10.6v-13.7L134.6,288.8z M123,284.9v14.6h10.2v-24.9
	L123,284.9z M108.5,299.5h12.4l-6.2-6.2L108.5,299.5z M71.1,299.5h12.4l-6.2-6.2L71.1,299.5z M175.9,298.6l6.2-6.2l-6.2-6.2V298.6z
	 M115.6,292.4l6.2,6.2v-12.4L115.6,292.4z M70.2,298.6l6.2-6.2l-6.2-6.2V298.6z M221.2,292.4l6.2,6.2v-12.4L221.2,292.4z
	 M179.3,273.7l22.3,22.3l22.3-22.3l-22.3-22.3L179.3,273.7z M73.6,273.7L96,296l22.3-22.3L96,251.4L73.6,273.7z M134.6,273.4v13.6
	l13.6-13.6v-13.6L134.6,273.4z M149.4,273.4l13.6,13.6v-13.6l-13.6-13.6V273.4z M253.8,274.4h15l-15-14.9V274.4z M28.9,274.4h15
	v-14.9L28.9,274.4z M45.1,258.2v15.2l6.4-6.4v-15.2L45.1,258.2z M246.1,267l6.4,6.4v-15.2l-6.4-6.4V267z M269.3,273.2v-14.3h-14.3
	L269.3,273.2z M28.3,273.2l14.3-14.3H28.3V273.2z M202.3,250.2l22.9,22.9h12.2l-8.8-8.8v0.1L211,246.7l-0.8-0.9l-7.9-7.9V250.2z
	 M165.9,273.1h12.2l22.9-22.9v-12.2L165.9,273.1z M96.6,250.2l22.9,22.9h12.2l-26.4-26.4h0l-0.8-0.9l-7.9-7.9V250.2z M68.1,265.2
	l-7.9,7.9h12.3l22.9-22.9v-12.2l-8.8,8.8h0.1l-17.7,17.7L68.1,265.2z M123,262.5l10.2,10.2v-29.1l-6.9-6.9h-14.9v9.9H123V262.5z
	 M164.3,243.8v28.9l10.2-10.2v-15.8h11.6l0-9.9h-14.7L164.3,243.8z M149.8,258.3l13.3,13.3v-26.4L149.8,258.3z M134.6,271.5
	l13.3-13.3l-13.3-13.3V271.5z M52.8,250.5v15.3l6.5-6.5V244L52.8,250.5z M238.3,259.2l6.5,6.5l0-15.3l-6.5-6.5V259.2z M175.9,261.2
	l6.2-6.1l-6.2-6.2V261.2z M115.6,255.1l6.2,6.1v-12.3L115.6,255.1z M70.2,261.2l6.1-6.1l-6.1-6.1V261.2z M221.2,255l6.1,6.1v-12.3
	L221.2,255z M253.7,257.6h14.6l-6.4-6.4h-14.6L253.7,257.6z M29.3,257.6h14.6l6.4-6.4H35.7L29.3,257.6z M182.9,254.2l6.1-6.2h-12.3
	L182.9,254.2z M114.7,254.2l6.2-6.2h-12.3L114.7,254.2z M220.3,254.1l6.1-6.1h-12.2L220.3,254.1z M77.3,254.1l6.1-6.1H71.1
	L77.3,254.1z M246.1,249.9h14.5l-6.5-6.5h-14.6L246.1,249.9z M37,249.9h14.5l6.5-6.5H43.5L37,249.9z M274.2,236.1l10.8,10.8
	l10.8-10.8L285,225.3L274.2,236.1z M1.8,236.1l10.8,10.8l10.8-10.8l-10.8-10.8L1.8,236.1z M212.9,246.7h3l0.1-9.9h-13L212.9,246.7z
	 M187.4,246.7h3l10-9.9h-12.9L187.4,246.7z M107.2,246.7h3v-9.9H97.2L107.2,246.7z M81.8,246.7h3l9.9-9.9H81.8V246.7z M139.1,326.6
	l9.7-9.7l9.7,9.7l-9.7,9.7L139.1,326.6z M141,326.6l7.9,7.8l7.8-7.8l-7.8-7.9L141,326.6z M86.3,273.7L96,264l9.7,9.7l-9.7,9.7
	L86.3,273.7z M88.1,273.7l7.9,7.9l7.8-7.9l-7.8-7.8L88.1,273.7z M192,273.7l9.7-9.7l9.7,9.7l-9.7,9.7L192,273.7z M193.8,273.7
	l7.9,7.9l7.8-7.9l-7.8-7.8L193.8,273.7z"/>
</svg>
